/* XPM */
static char * black_pawn_on_white_xpm[] = {
"48 48 74 1",
" 	c #EFEED4",
".	c #DEE2C4",
"+	c #ECEBD1",
"@	c #5A5950",
"#	c #030302",
"$	c #000000",
"%	c #050504",
"&	c #717064",
"*	c #131311",
"=	c #B2B19E",
"-	c #E7E6CD",
";	c #020202",
">	c #EEEDD3",
",	c #3A3A33",
"'	c #78786B",
")	c #070706",
"!	c #151513",
"~	c #060605",
"{	c #121210",
"]	c #20201C",
"^	c #58584E",
"/	c #11110F",
"(	c #A6A593",
"_	c #050505",
":	c #BFBEA9",
"<	c #47473F",
"[	c #747467",
"}	c #727165",
"|	c #A5A492",
"1	c #E0DFC7",
"2	c #E8E7CD",
"3	c #57564D",
"4	c #8D8D7E",
"5	c #141412",
"6	c #020201",
"7	c #121110",
"8	c #44443C",
"9	c #7D7C6F",
"0	c #DDDCC4",
"a	c #E6E5CC",
"b	c #646459",
"c	c #959484",
"d	c #767568",
"e	c #8F8E7F",
"f	c #1C1C19",
"g	c #30302B",
"h	c #EBEAD0",
"i	c #8D8C7D",
"j	c #C8C8B2",
"k	c #CAC9B3",
"l	c #ECEBD2",
"m	c #030303",
"n	c #7D7D6F",
"o	c #B5B4A1",
"p	c #0D0D0B",
"q	c #D6D5BD",
"r	c #E2E1C9",
"s	c #262622",
"t	c #59584F",
"u	c #010100",
"v	c #0B0B0A",
"w	c #E4E3CA",
"x	c #EDECD2",
"y	c #CFCEB8",
"z	c #DFDEC6",
"A	c #B3B39F",
"B	c #CECDB7",
"C	c #888879",
"D	c #BCBCA7",
"E	c #6E6E62",
"F	c #A8A795",
"G	c #838274",
"H	c #3E3E37",
"I	c #AEAE9B",
"                                               .",
"                                               .",
"                                               .",
"                                               .",
"                                               .",
"                                               .",
"                                               .",
"                    +@#$$%&                    .",
"                    *$$$$$$=                   .",
"                   -$$$$$$$;>                  .",
"                   ,$$$$$$$$'                  .",
"                   )$$$$$$$$!                  .",
"                   ~$$$$$$$${                  .",
"                   ]$$$$$$$$^                  .",
"                    $$$$$$$/                   .",
"                   ($$$$$$$_:                  .",
"                  <$$$$$$$$$$[                 .",
"                 }$$$$$$$$$$$$|                .",
"                1$$$$$$$$$$$$$$2               .",
"                3$$$$$$$$$$$$$$4               .",
"                #$$$$$$$$$$$$$$5               .",
"               +$$$$$$$$$$$$$$$;               .",
"                6$$$$$$$$$$$$$$7               .",
"                8$$$$$$$$$$$$$$9               .",
"                0$$$$$$$$$$$$$$a               .",
"                 b$$$$$$$$$$$$c                .",
"                 d$$$$$$$$$$$$e                .",
"               af$$$$$$$$$$$$$$gh              .",
"              i$$$$$$$$$$$$$$$$$$=             .",
"             j$$$$$$$$$$$$$$$$$$$$             .",
"             ~$$$$$$$$$$$$$$$$$$$$k            .",
"            l$$$$$$$$$$$$$$$$$$$$$m            .",
"            n$$$$$$$$$$$$$$$$$$$$$$o           .",
"           >;$$$$$$$$$$$$$$$$$$$$$$p           .",
"           q$$$$$$$$$$$$$$$$$$$$$$$$r          .",
"           s$$$$$$$$$$$$$$$$$$$$$$$$t          .",
"           u$$$$$$$$$$$$$$$$$$$$$$$$v          .",
"          w$$$$$$$$$$$$$$$$$$$$$$$$$$x         .",
"          y$$$$$$$$$$$$$$$$$$$$$$$$$$z         .",
"          A$$$$$$$$$$$$$$$$$$$$$$$$$$B         .",
"          C$$$$$$$$$$$$$$$$$$$$$$$$$$D         .",
"          E$$$$$$$$$$$$$$$$$$$$$$$$$$F         .",
"          GHHHHHHHHHHHHHHHHHHHHHHHHHHI         .",
"                                               .",
"                                               .",
"                                               .",
"                                               .",
"                                               ."};
