/* XPM */
static char * black_pawn_on_green_xpm[] = {
"48 48 67 1",
" 	c #71965C",
".	c #82A26D",
"+	c #6C8F58",
"@	c #6D9059",
"#	c #6F945B",
"$	c #2A3823",
"%	c #010201",
"&	c #000000",
"*	c #020302",
"=	c #35472B",
"-	c #090C07",
";	c #547044",
">	c #6D9159",
",	c #010101",
"'	c #1B2416",
")	c #394B2E",
"!	c #030403",
"~	c #0A0D08",
"{	c #030402",
"]	c #36482C",
"^	c #516C42",
"/	c #080B07",
"(	c #4F6840",
"_	c #5A7849",
":	c #222D1B",
"<	c #37492D",
"[	c #36472C",
"}	c #4E673F",
"|	c #6A8D56",
"1	c #6E9159",
"2	c #293621",
"3	c #435936",
"4	c #040503",
"5	c #202B1A",
"6	c #3B4E30",
"7	c #688B55",
"8	c #6D9058",
"9	c #2F3F26",
"0	c #465E39",
"a	c #384A2D",
"b	c #445A37",
"c	c #3E5233",
"d	c #4F6940",
"e	c #435836",
"f	c #5F7E4D",
"g	c #5F7F4E",
"h	c #70945B",
"i	c #3B4F30",
"j	c #567246",
"k	c #060805",
"l	c #506B42",
"m	c #638451",
"n	c #12180F",
"o	c #2A3822",
"p	c #050704",
"q	c #70955B",
"r	c #628250",
"s	c #698C56",
"t	c #557145",
"u	c #61814F",
"v	c #405634",
"w	c #597649",
"x	c #314028",
"y	c #4C653E",
"z	c #3E5232",
"A	c #1D2718",
"B	c #526D43",
"                                               .",
"                                               .",
"                                               .",
"                                               .",
"                                               .",
"                                               .",
"                       +@                      .",
"                    #$%&&*=                    .",
"                    -&&&&&&;                   .",
"                   >&&&&&&&,                   .",
"                   '&&&&&&&&)                  .",
"                   !&&&&&&&&~                  .",
"                   {&&&&&&&&-                  .",
"                   ]&&&&&&&&^                  .",
"                    &&&&&&&/                   .",
"                   (&&&&&&&*_                  .",
"                  :&&&&&&&&&&<                 .",
"                 [&&&&&&&&&&&&}                .",
"                |&&&&&&&&&&&&&&1               .",
"                2&&&&&&&&&&&&&&3               .",
"                &&&&&&&&&&&&&&&4               .",
"               #&&&&&&&&&&&&&&&,               .",
"                ,&&&&&&&&&&&&&&/               .",
"                5&&&&&&&&&&&&&&6               .",
"                7&&&&&&&&&&&&&&8               .",
"                 9&&&&&&&&&&&&0                .",
"                 a&&&&&&&&&&&&b                .",
"               c&&&&&&&&&&&&&&&&d              .",
"              e&&&&&&&&&&&&&&&&&&;             .",
"             f&&&&&&&&&&&&&&&&&&&&             .",
"             {&&&&&&&&&&&&&&&&&&&&g            .",
"            h&&&&&&&&&&&&&&&&&&&&&%            .",
"            i&&&&&&&&&&&&&&&&&&&&&&j           .",
"            ,&&&&&&&&&&&&&&&&&&&&&&k           .",
"           l&&&&&&&&&&&&&&&&&&&&&&&&m          .",
"           n&&&&&&&&&&&&&&&&&&&&&&&&o          .",
"           &&&&&&&&&&&&&&&&&&&&&&&&&p          .",
"          +&&&&&&&&&&&&&&&&&&&&&&&&&&q         .",
"          r&&&&&&&&&&&&&&&&&&&&&&&&&&s         .",
"          t&&&&&&&&&&&&&&&&&&&&&&&&&&u         .",
"          v&&&&&&&&&&&&&&&&&&&&&&&&&&w         .",
"          x&&&&&&&&&&&&&&&&&&&&&&&&&&y         .",
"          zAAAAAAAAAAAAAAAAAAAAAAAAAAB         .",
"                                               .",
"                                               .",
"                                               .",
"                                               .",
"                                               ."};
