/* XPM */
static char * black_rook_on_white_xpm[] = {
"48 48 260 2",
"  	c #9BB185",
". 	c #9BB285",
"+ 	c #ECECD1",
"@ 	c #EAEACF",
"# 	c #EFEED4",
"$ 	c #EDECD2",
"% 	c #E4E3CB",
"& 	c #E4E3CA",
"* 	c #E8E7CE",
"= 	c #E7E6CD",
"- 	c #E6E5CC",
"; 	c #EEEDD3",
"> 	c #E9E8CF",
", 	c #EBEAD0",
"' 	c #D7D7BF",
") 	c #5D5C52",
"! 	c #5F5D53",
"~ 	c #9E9D8C",
"{ 	c #EDECD3",
"] 	c #EAE9D0",
"^ 	c #79796B",
"/ 	c #5E5D52",
"( 	c #5E5D53",
"_ 	c #706F63",
": 	c #E3E2C9",
"< 	c #ABAA97",
"[ 	c #5C5B51",
"} 	c #5A594F",
"| 	c #C8C7B1",
"1 	c #D3D2BB",
"2 	c #393533",
"3 	c #6E6864",
"4 	c #6A6460",
"5 	c #69635F",
"6 	c #4E4845",
"7 	c #8E8D7E",
"8 	c #E9E8CE",
"9 	c #58584E",
"0 	c #6B6561",
"a 	c #5F5955",
"b 	c #4B4942",
"c 	c #E0DFC7",
"d 	c #9D9C8B",
"e 	c #57514E",
"f 	c #6C6662",
"g 	c #665F5C",
"h 	c #36312F",
"i 	c #C4C4AE",
"j 	c #3C3937",
"k 	c #706A66",
"l 	c #57504C",
"m 	c #554E4A",
"n 	c #47413D",
"o 	c #59584F",
"p 	c #6E6764",
"q 	c #5B5450",
"r 	c #554F4A",
"s 	c #514A45",
"t 	c #5C5653",
"u 	c #605A56",
"v 	c #544D48",
"w 	c #342F2C",
"x 	c #706965",
"y 	c #524B46",
"z 	c #47403C",
"A 	c #59584E",
"B 	c #959484",
"C 	c #939281",
"D 	c #383731",
"E 	c #655E5A",
"F 	c #534C47",
"G 	c #4F4844",
"H 	c #302E2A",
"I 	c #8C8C7C",
"J 	c #969685",
"K 	c #626257",
"L 	c #58524F",
"M 	c #59524E",
"N 	c #36302D",
"O 	c #3B3836",
"P 	c #6F6965",
"Q 	c #4E4743",
"R 	c #413B37",
"S 	c #403A36",
"T 	c #423C38",
"U 	c #514B46",
"V 	c #433D39",
"W 	c #403A37",
"X 	c #35302D",
"Y 	c #373432",
"Z 	c #6D6763",
"` 	c #363331",
" .	c #68615E",
"..	c #201E1D",
"+.	c #3A3532",
"@.	c #38332F",
"#.	c #383330",
"$.	c #211D1C",
"%.	c #DEDDC4",
"&.	c #606055",
"*.	c #0F0D0C",
"=.	c #2A2523",
"-.	c #312B29",
";.	c #312C29",
">.	c #2E2927",
",.	c #1B1817",
"'.	c #3E3E37",
").	c #CFCFB8",
"!.	c #AAA997",
"~.	c #3D3C35",
"{.	c #302C29",
"].	c #3A3431",
"^.	c #393431",
"/.	c #25221F",
"(.	c #7A7A6C",
"_.	c #D8D7BF",
":.	c #D7D6BE",
"<.	c #535349",
"[.	c #231F1E",
"}.	c #25211F",
"|.	c #231F1D",
"1.	c #191715",
"2.	c #A09F8E",
"3.	c #5C5C51",
"4.	c #4A4440",
"5.	c #504944",
"6.	c #4B4440",
"7.	c #463F3B",
"8.	c #322D2A",
"9.	c #DFDEC6",
"0.	c #4C4B42",
"a.	c #504A45",
"b.	c #69625F",
"c.	c #514A46",
"d.	c #4F4843",
"e.	c #48423E",
"f.	c #443E3A",
"g.	c #36312E",
"h.	c #7B7A6C",
"i.	c #D5D4BD",
"j.	c #3D3C36",
"k.	c #58524E",
"l.	c #746E6A",
"m.	c #726C68",
"n.	c #67615D",
"o.	c #504945",
"p.	c #433D3A",
"q.	c #3B3633",
"r.	c #4F4F46",
"s.	c #CCCBB4",
"t.	c #322E2B",
"u.	c #756F6B",
"v.	c #5F5854",
"w.	c #4B4540",
"x.	c #3C3C35",
"y.	c #C3C2AD",
"z.	c #6A635F",
"A.	c #49423E",
"B.	c #32302B",
"C.	c #D0CFB8",
"D.	c #F0EFD5",
"E.	c #9A9A89",
"F.	c #3C3633",
"G.	c #736D69",
"H.	c #4C4541",
"I.	c #433C39",
"J.	c #2E2A26",
"K.	c #BFBEA9",
"L.	c #78776A",
"M.	c #5D5652",
"N.	c #EAE9CF",
"O.	c #656559",
"P.	c #49433F",
"Q.	c #635C58",
"R.	c #4E4843",
"S.	c #37312E",
"T.	c #767668",
"U.	c #E1E0C7",
"V.	c #515147",
"W.	c #4E4844",
"X.	c #453E3B",
"Y.	c #D9D8C0",
"Z.	c #403F38",
"`.	c #3F3A36",
" +	c #DCDBC3",
".+	c #D2D1BA",
"++	c #312F2A",
"@+	c #CDCCB6",
"#+	c #2C2725",
"$+	c #5E5853",
"%+	c #746E6B",
"&+	c #2B2724",
"*+	c #C2C1AC",
"=+	c #F0EFD4",
"-+	c #37322F",
";+	c #5A534E",
">+	c #4D4642",
",+	c #302B29",
"'+	c #848475",
")+	c #67605C",
"!+	c #737265",
"~+	c #727165",
"{+	c #58514C",
"]+	c #55554B",
"^+	c #6D6764",
"/+	c #4C4641",
"(+	c #3F3E37",
"_+	c #42413A",
":+	c #564F4B",
"<+	c #58514D",
"[+	c #57514D",
"}+	c #534C48",
"|+	c #312E2A",
"1+	c #CDCDB6",
"2+	c #A6A694",
"3+	c #1D1B18",
"4+	c #2B2624",
"5+	c #1A1716",
"6+	c #89897A",
"7+	c #DDDCC4",
"8+	c #E3E3CA",
"9+	c #717164",
"0+	c #383331",
"a+	c #615B57",
"b+	c #645E5B",
"c+	c #635D59",
"d+	c #625C59",
"e+	c #45403D",
"f+	c #57564C",
"g+	c #D4D3BC",
"h+	c #34332E",
"i+	c #504A46",
"j+	c #47403D",
"k+	c #46403C",
"l+	c #453F3B",
"m+	c #221F1D",
"n+	c #CAC9B4",
"o+	c #272622",
"p+	c #D2D1BB",
"q+	c #E8E7CD",
"r+	c #6B6A5E",
"s+	c #3C3733",
"t+	c #4A443F",
"u+	c #38322F",
"v+	c #D9D8C1",
"w+	c #D1D0B9",
"x+	c #646358",
"y+	c #1E1C1A",
"z+	c #4C4B43",
"A+	c #C0C0AB",
"B+	c #1F1B19",
"C+	c #24201E",
"D+	c #BBBAA5",
"E+	c #070005",
"F+	c #383230",
"G+	c #342F2D",
"H+	c #1B1716",
"I+	c #E2E2C9",
"J+	c #BDBCA7",
"K+	c #BDBDA7",
"                                                                                              . ",
"+ + + + + + + + + + + + + + + + + + + + + + + + + + + + + + + + + + + + + + + + + + + + + + + @ ",
"# # # # # # # # # # # # # # # # # # # # # # # # # # # # # # # # # # # # # # # # # # # # # # # $ ",
"# # # # # # # # # # # # # # # # # # # # # # # # # # # # # # # # # # # # # # # # # # # # # # # $ ",
"# # # # # # # # # # # # # # # # # # # # # # # # # # # # # # # # # # # # # # # # # # # # # # # $ ",
"# # # # # # # # # # # # # # # # # # # # # # # # # # # # # # # # # # # # # # # # # # # # # # # $ ",
"# # # # # # # # # # # # # # # # # # # # # # # # # # # # # # # # # # # # # # # # # # # # # # # $ ",
"# # # # # # # # # # # # # # # # # # # # # # # # # # # # # # # # # # # # # # # # # # # # # # # $ ",
"# # # # # # # # # # # # # # # # # # # # # # # # # # # # # # # # # # # # # # # # # # # # # # # $ ",
"# # # # # # # # # # # $ % & & & & * # # = & & & & - ; # > & & & & & , # # # # # # # # # # # # $ ",
"# # # # # # # # # # # ' ) ! ! ! ) ~ { ] ^ / ! ! ( _ : # < [ ! ! ! } | # # # # # # # # # # # # $ ",
"# # # # # # # # # # # 1 2 3 4 5 6 7 $ 8 9 5 0 4 a b c # d e f 4 g h i # # # # # # # # # # # # $ ",
"# # # # # # # # # # # 1 j k l m n 7 $ * o p q r s b c # d t u r v w i # # # # # # # # # # # # $ ",
"# # # # # # # # # # # 1 j x v y z A B C D E F y G H I J K L M y y N i # # # # # # # # # # # # $ ",
"# # # # # # # # # # # 1 O P v y Q R S S T U y y s V S S W G y y y X i # # # # # # # # # # # # $ ",
"# # # # # # # # # # # 1 Y Z v y y y y y y y y y y y y y y y y y y X i # # # # # # # # # # # # $ ",
"# # # # # # # # # # # 1 `  .F y y y y y y y y y y y y y y y y y y X i # # # # # # # # # # # # $ ",
"# # # # # # # # # # # 1 ..+.@.@.@.@.@.@.@.@.@.@.@.@.@.@.@.@.@.@.#.$.i # # # # # # # # # # # # $ ",
"# # # # # # # # # # # %.&.*.=.-.;.;.;.;.;.;.;.;.;.;.;.;.;.;.;.>.,.'.).# # # # # # # # # # # # $ ",
"# # # # # # # # # # # # & !.~.{.].].].].].].].].].].].].].].^./.(._.# # # # # # # # # # # # # $ ",
"# # # # # # # # # # # # # ; :.<.[.}.|.|.|.|.|.|.|.|.|.|.|.|.1.2.8 # # # # # # # # # # # # # # $ ",
"# # # # # # # # # # # # # # * 3.4.5.6.7.V T T T T T T T T T 8.< # # # # # # # # # # # # # # # $ ",
"# # # # # # # # # # # # # # 9.0.a.b.l c.d.e.f.T T T T T T T g.h.; # # # # # # # # # # # # # # $ ",
"# # # # # # # # # # # # # # i.j.k.l.m.n.F y o.6.p.T T T T T q.r., # # # # # # # # # # # # # # $ ",
"# # # # # # # # # # # # # # s.t.u u.u.l.v.y y y o.w.p.T T T S x.9.# # # # # # # # # # # # # # $ ",
"# # # # # # # # # # # # # # y.8.E u.u.u.z.y y y y y o.A.T T R B.C.# # # # # # # # # # # # # # $ ",
"# # # # # # # # # # # # # D.E.F.n.u.u.u.G.m y y y y y y H.I.T J.K.# # # # # # # # # # # # # # $ ",
"# # # # # # # # # # # # # D.L.f.f u.u.u.l.M.y y y y y y y A.T {.!.# # # # # # # # # # # # # # $ ",
"# # # # # # # # # # # # # N.O.P.3 u.u.u.u.Q.y y y y y y y R.V S.T.# # # # # # # # # # # # # # $ ",
"# # # # # # # # # # # # # U.V.W.k u.u.u.u.5 y y y y y y y c.X.F.V.N.# # # # # # # # # # # # # $ ",
"# # # # # # # # # # # # # Y.Z.y m.u.u.u.u.P y y y y y y y y 6.`.'. +# # # # # # # # # # # # # $ ",
"# # # # # # # # # # # # # .+t.M G.u.u.u.u.m.v y y y y y y y 5.T ++@+# # # # # # # # # # # # # $ ",
"# # # # # # # # # # # # # s.#+$+%+u.u.u.u.G.l y y y y y y y y z &+*+# # # # # # # # # # # # # $ ",
"# # # # # # # # # # # # =+!.-+Q.u.u.u.u.u.G.;+y y y y y y y y >+,+< # # # # # # # # # # # # # $ ",
"# # # # # # # # # # # # D.'+V )+u.u.u.u.u.G.M y y y y y y y y s +.!+# # # # # # # # # # # # # $ ",
"# # # # # # # # # # # # $ ~+n f u.u.u.u.u.G.{+y y y y y y y y y f.]+> # # # # # # # # # # # # $ ",
"# # # # # # # # # # # # & [ 4.0 G.G.G.G.G.^+v y y y y y y y y y /+(+Y.# # # # # # # # # # # # $ ",
"# # # # # # # # # # # #  +_+/+:+<+<+<+<+[+}+s s s s s s s s s s G |+1+# # # # # # # # # # # # $ ",
"# # # # # # # # # # # - 2+3+=.&+&+&+&+&+&+&+&+&+&+&+&+&+&+&+&+&+4+5+6+7+# # # # # # # # # # # $ ",
"# # # # # # # # # # 8+9+0+a+b+b+b+b+b+b+b+b+b+b+b+b+b+b+c+c+c+c+c+d+e+f+g+# # # # # # # # # # $ ",
"# # # # # # # # # # 9.h+Q v v v v v v v v v v v v v v i+j+k+k+k+k+k+l+m+n+# # # # # # # # # # $ ",
"# # # # # # # # # # : r.6.y y y y y y y y y y y y y s k+T T T T T T S o+p+# # # # # # # # # # $ ",
"# # # # # # # # # # q+r+s+t+6.6.6.6.6.6.6.6.6.6.6.t+f.T T T T T T R u+~.v+# # # # # # # # # # $ ",
"# # # # # # # # # # # w+x+1.[.|.|.|.|.|.|.|.|.m+m+m+m+m+m+m+m+m+m+y+z+A+$ # # # # # # # # # # $ ",
"# # # # # # # # # # # # w+B+7.l+l+l+l+l+l+l+l+S #.#.#.#.#.#.#.#.#.C+D+# # # # # # # # # # # # $ ",
"# # # # # # # # # # # # .+E+F+u+u+u+u+u+u+u+u+G+=.=.=.=.=.=.=.=.=.H+2.# # # # # # # # # # # # $ ",
"# # # # # # # # # # # # I+J+K+K+K+K+K+K+K+K+K+K+K+K+K+K+K+K+K+K+K+J+C.# # # # # # # # # # # # $ ",
"# # # # # # # # # # # # # # # # # # # # # # # # # # # # # # # # # # # # # # # # # # # # # # # $ "};
