/* XPM */
static char * black_rook_on_green_xpm[] = {
"48 48 258 2",
"  	c #759960",
". 	c #779A62",
"+ 	c #71965C",
"@ 	c #73985E",
"# 	c #70955B",
"$ 	c #6E9259",
"% 	c #6E9159",
"& 	c #6F935A",
"* 	c #6E925A",
"= 	c #6F945B",
"- 	c #6D9159",
"; 	c #70945B",
"> 	c #668853",
", 	c #314128",
"' 	c #36432C",
") 	c #34422A",
"! 	c #4C653D",
"~ 	c #3C5131",
"{ 	c #35432B",
"] 	c #394C2E",
"^ 	c #6C8F58",
"/ 	c #526D42",
"( 	c #334129",
"_ 	c #314028",
": 	c #5F7E4D",
"< 	c #648451",
"[ 	c #363330",
"} 	c #6B6561",
"| 	c #68625E",
"1 	c #67615D",
"2 	c #4D4744",
"3 	c #425835",
"4 	c #2F3A28",
"5 	c #66605C",
"6 	c #69635F",
"7 	c #5D5753",
"8 	c #2B3224",
"9 	c #6A8D56",
"0 	c #49623B",
"a 	c #554F4C",
"b 	c #645E5A",
"c 	c #383330",
"d 	c #5C7A4A",
"e 	c #3B3836",
"f 	c #716A66",
"g 	c #59524E",
"h 	c #57504B",
"i 	c #47413D",
"j 	c #435835",
"k 	c #313B2A",
"l 	c #6E6864",
"m 	c #5C5652",
"n 	c #57504C",
"o 	c #514A46",
"p 	c #2C3324",
"q 	c #5C5753",
"r 	c #625B57",
"s 	c #554E49",
"t 	c #37312E",
"u 	c #706965",
"v 	c #544D48",
"w 	c #524B46",
"x 	c #47403C",
"y 	c #2D3B23",
"z 	c #4A633C",
"A 	c #262B21",
"B 	c #534C47",
"C 	c #4F4844",
"D 	c #24251D",
"E 	c #475F39",
"F 	c #4C663E",
"G 	c #314227",
"H 	c #595350",
"I 	c #5A534F",
"J 	c #3A3735",
"K 	c #6F6965",
"L 	c #4D4742",
"M 	c #3D3734",
"N 	c #3C3633",
"O 	c #3E3935",
"P 	c #514A45",
"Q 	c #403A37",
"R 	c #3C3733",
"S 	c #37322F",
"T 	c #363331",
"U 	c #6D6763",
"V 	c #38322F",
"W 	c #69625F",
"X 	c #383230",
"Y 	c #22201E",
"Z 	c #3F3A37",
"` 	c #282422",
" .	c #678A54",
"..	c #24321C",
"+.	c #0F0D0C",
"@.	c #282322",
"#.	c #2D2826",
"$.	c #2B2724",
"%.	c #1C1817",
"&.	c #141D0F",
"*.	c #60804E",
"=.	c #698C56",
"-.	c #1D2218",
";.	c #342F2C",
">.	c #3C3734",
",.	c #25221F",
"'.	c #628350",
").	c #71955C",
"!.	c #70955C",
"~.	c #62824F",
"{.	c #222F1B",
"].	c #1E1B19",
"^.	c #1F1C1A",
"/.	c #1D1A18",
"(.	c #1E1A18",
"_.	c #141210",
":.	c #2B3922",
"<.	c #4A433F",
"[.	c #453F3B",
"}.	c #423C39",
"|.	c #423C38",
"1.	c #312D2A",
"2.	c #506C41",
"3.	c #6A8C56",
"4.	c #25301E",
"5.	c #504945",
"6.	c #564F4A",
"7.	c #4E4742",
"8.	c #433D39",
"9.	c #35302D",
"0.	c #3A4E2F",
"a.	c #658652",
"b.	c #282C21",
"c.	c #58514D",
"d.	c #746E6A",
"e.	c #706A67",
"f.	c #655E5A",
"g.	c #534B47",
"h.	c #504944",
"i.	c #3B3532",
"j.	c #25321E",
"k.	c #6F935B",
"l.	c #302D29",
"m.	c #605955",
"n.	c #756F6B",
"o.	c #4A443F",
"p.	c #3F3A36",
"q.	c #1E2618",
"r.	c #5C7B4A",
"s.	c #352F2D",
"t.	c #48413D",
"u.	c #413B37",
"v.	c #20231B",
"w.	c #638350",
"x.	c #726C68",
"y.	c #4B4440",
"z.	c #292723",
"A.	c #5A7849",
"B.	c #374B2C",
"C.	c #6C6562",
"D.	c #48423E",
"E.	c #302C29",
"F.	c #2F3F25",
"G.	c #49433F",
"H.	c #625C58",
"I.	c #4E4743",
"J.	c #36312E",
"K.	c #384C2D",
"L.	c #6A8D57",
"M.	c #27331F",
"N.	c #4E4843",
"O.	c #706A66",
"P.	c #69625E",
"Q.	c #443E3A",
"R.	c #3B3633",
"S.	c #26321E",
"T.	c #678954",
"U.	c #272C20",
"V.	c #514B46",
"W.	c #4A4440",
"X.	c #1E2718",
"Y.	c #688A55",
"Z.	c #638450",
"`.	c #2B2925",
" +	c #736D69",
".+	c #534C48",
"++	c #21231B",
"@+	c #61814F",
"#+	c #302B29",
"$+	c #5E5753",
"%+	c #46403C",
"&+	c #282522",
"*+	c #5B7A4A",
"=+	c #516C41",
"-+	c #59534E",
";+	c #4D4642",
">+	c #71975C",
",+	c #3D5331",
"'+	c #3A3431",
")+	c #36492C",
"!+	c #34472A",
"~+	c #6C6662",
"{+	c #58514C",
"]+	c #433D3A",
"^+	c #27351F",
"/+	c #6C9058",
"(+	c #2C3A23",
"_+	c #544D49",
":+	c #4C4541",
"<+	c #20281A",
"[+	c #242B1D",
"}+	c #4C4641",
"|+	c #57504D",
"1+	c #544E49",
"2+	c #25251F",
"3+	c #526E43",
"4+	c #151611",
"5+	c #2F2A28",
"6+	c #2E2927",
"7+	c #1A1715",
"8+	c #445C37",
"9+	c #6B8E57",
"0+	c #33302D",
"a+	c #5E5855",
"b+	c #615B58",
"c+	c #615B57",
"d+	c #605A57",
"e+	c #413D3A",
"f+	c #2F3D25",
"g+	c #668753",
"h+	c #698B55",
"i+	c #1F231A",
"j+	c #524B47",
"k+	c #211E1C",
"l+	c #27311F",
"m+	c #4B4540",
"n+	c #403A36",
"o+	c #1E1E19",
"p+	c #2F3F26",
"q+	c #3F3935",
"r+	c #393431",
"s+	c #1C2317",
"t+	c #5F7F4D",
"u+	c #283620",
"v+	c #252220",
"w+	c #221F1D",
"x+	c #1F2718",
"y+	c #567346",
"z+	c #211D1C",
"A+	c #25211F",
"B+	c #638451",
"C+	c #1F1A1A",
"D+	c #3E3936",
"E+	c #312C29",
"F+	c #4C653E",
"G+	c #526E42",
"H+	c #5E7E4D",
"I+	c #73975E",
"                                                                                              . ",
"+ + + + + + + + + + + + + + + + + + + + + + + + + + + + + + + + + + + + + + + + + + + + + + + @ ",
"+ + + + + + + + + + + + + + + + + + + + + + + + + + + + + + + + + + + + + + + + + + + + + + + @ ",
"+ + + + + + + + + + + + + + + + + + + + + + + + + + + + + + + + + + + + + + + + + + + + + + + @ ",
"+ + + + + + + + + + + + + + + + + + + + + + + + + + + + + + + + + + + + + + + + + + + + + + + @ ",
"+ + + + + + + + + + + + + + + + + + + + + + + + + + + + + + + + + + + + + + + + + + + + + + + @ ",
"+ + + + + + + + + + + + + + + + + + + + + + + + + + + + + + + + + + + + + + + + + + + + + + + @ ",
"+ + + + + + + + + + + + + + + + + + + + + + + + + + + + + + + + + + + + + + + + + + + + + + + @ ",
"+ + + + + + + + + + + # $ % % % % & + + * % % % % * + + = - % % % - ; + + + + + + + + + + + + @ ",
"+ + + + + + + + + + + > , ' ' ' ) ! # & ~ { ' ' { ] ^ + / ( ' ' ' _ : + + + + + + + + + + + + @ ",
"+ + + + + + + + + + + < [ } | 1 2 3 # * 4 5 6 | 7 8 9 + 0 a 6 | b c d + + + + + + + + + + + + @ ",
"+ + + + + + + + + + + < e f g h i j # $ k l m n o p 9 + 0 q r n s t d + + + + + + + + + + + + @ ",
"+ + + + + + + + + + + < e u v w x y ! z A 5 B w C D E F G H I w w c d + + + + + + + + + + + + @ ",
"+ + + + + + + + + + + < J K v w L M N N O w w w P Q N N R C w w w S d + + + + + + + + + + + + @ ",
"+ + + + + + + + + + + < T U v w w w w w w w w w w w w w w w w w w V d + + + + + + + + + + + + @ ",
"+ + + + + + + + + + + < T W B w w w w w w w w w w w w w w w w w w X d + + + + + + + + + + + + @ ",
"+ + + + + + + + + + + < Y Z R R R R R R R R R R R R R R R R R R R ` d + + + + + + + + + + + + @ ",
"+ + + + + + + + + + +  ...+.@.#.#.#.#.#.#.#.#.#.#.#.#.#.#.#.#.$.%.&.*.+ + + + + + + + + + + + @ ",
"+ + + + + + + + + + + + =.0 -.;.R >.>.>.>.>.>.>.>.>.>.>.>.>.N ,.G '.).+ + + + + + + + + + + + @ ",
"+ + + + + + + + + + + + + !.~.{.].^./.(.(.(.(.(.(.(.(.(.(.(._.E - + + + + + + + + + + + + + + @ ",
"+ + + + + + + + + + + + + + * :.<.C <.[.}.|.|.|.|.|.|.|.|.|.1.2.+ + + + + + + + + + + + + + + @ ",
"+ + + + + + + + + + + + + + 3.4.5.5 6.P 7.i 8.|.|.|.|.|.|.|.9.0.!.+ + + + + + + + + + + + + + @ ",
"+ + + + + + + + + + + + + + a.b.c.d.e.f.g.w h.<.8.|.|.|.|.|.i.j.k.+ + + + + + + + + + + + + + @ ",
"+ + + + + + + + + + + + + + *.l.m.n.n.d.7 w w w h.o.8.|.|.|.p.q.3.+ + + + + + + + + + + + + + @ ",
"+ + + + + + + + + + + + + + r.s.b n.n.n.W w w w w w h.t.|.|.u.v.w.+ + + + + + + + + + + + + + @ ",
"+ + + + + + + + + + + + + + 0 >.1 n.n.n.x.s w w w w w o y.|.|.z.A.+ + + + + + + + + + + + + + @ ",
"+ + + + + + + + + + + + + + B.8.C.n.n.n.d.m w w w w w w o D.|.E.2.+ + + + + + + + + + + + + + @ ",
"+ + + + + + + + + + + + + & F.G.U n.n.n.n.H.w w w w w w w I.|.J.K.+ + + + + + + + + + + + + + @ ",
"+ + + + + + + + + + + + + L.M.N.O.n.n.n.n.P.w w w w w w w o Q.R.S.& + + + + + + + + + + + + + @ ",
"+ + + + + + + + + + + + + T.U.V.x.n.n.n.n.l w w w w w w w w W.p.X.Y.+ + + + + + + + + + + + + @ ",
"+ + + + + + + + + + + + + Z.`.c. +n.n.n.n.x..+w w w w w w w h.|.++@++ + + + + + + + + + + + + @ ",
"+ + + + + + + + + + + + + *.#+$+d.n.n.n.n. +n w w w w w w w w %+&+*++ + + + + + + + + + + + + @ ",
"+ + + + + + + + + + + + + =+c H.n.n.n.n.n. +-+w w w w w w w w ;+#+=++ + + + + + + + + + + + + @ ",
"+ + + + + + + + + + + + >+,+8.5 n.n.n.n.n. +-+w w w w w w w w P '+)++ + + + + + + + + + + + + @ ",
"+ + + + + + + + + + + + # !+i ~+n.n.n.n.n. +{+w w w w w w w w w ]+^+& + + + + + + + + + + + + @ ",
"+ + + + + + + + + + + + /+(+W.} d.d.d.d.d.K _+w w w w w w w w w :+<+T.+ + + + + + + + + + + + @ ",
"+ + + + + + + + + + + + Y.[+}+|+I I I I I 1+o o o o o o o o o o C 2+@++ + + + + + + + + + + + @ ",
"+ + + + + + + + + + + * 3+4+#.5+5+5+5+5+5+5+5+5+5+5+5+5+5+5+5+5+6+7+8+9++ + + + + + + + + + + @ ",
"+ + + + + + + + + + /+0.0+a+H.H.H.H.H.H.H.H.H.H.H.H.H.H.b+c+c+c+c+d+e+f+g++ + + + + + + + + + @ ",
"+ + + + + + + + + + h+i+N.s s s s s s s s s s s s s s j+D.D.D.D.D.D.i k+: + + + + + + + + + + @ ",
"+ + + + + + + + + + 9+l+m+w w w w w w w w w w w w w o i |.|.|.|.|.|.n+o+w.+ + + + + + + + + + @ ",
"+ + + + + + + + + + - p+q+:+}+}+}+}+}+}+}+}+}+}+}+:+[.|.|.|.|.|.|.|.r+s+> + + + + + + + + + + @ ",
"+ + + + + + + + + + + t+u+].v+v+v+v+v+v+v+v+v+v+v+v+v+v+v+v+v+v+v+w+x+y+= + + + + + + + + + + @ ",
"+ + + + + + + + + + + + @+z+|.|.|.|.|.|.|.|.|.>.J.J.J.J.J.J.J.J.J.A+y++ + + + + + + + + + + + @ ",
"+ + + + + + + + + + + + B+C+D+O O O O O O O O R.E+E+E+E+E+E+E+E+E+A+F++ + + + + + + + + + + + @ ",
"+ + + + + + + + + + + + =.G+G+G+G+G+G+G+G+G+G+G+G+G+G+G+G+G+G+G+G+G+H++ + + + + + + + + + + + @ ",
"+ + + + + + + + + + + + + + + + + + + + + + + + + + + + + + + + + + + + + + + + + + + + + + + @ ",
"+ + + + + + + + + + + + + + + + + + + + + + + + + + + + + + + + + + + + + + + + + + + + + + + I+"};
