/* XPM */
static char * blue_queen_on_green_xpm[] = {
"48 48 703 2",
"  	c #779B62",
". 	c #72975D",
"+ 	c #74985F",
"@ 	c #769A61",
"# 	c #71965C",
"$ 	c #73975E",
"% 	c #6E9259",
"& 	c #60804F",
"* 	c #577347",
"= 	c #648552",
"- 	c #6F935A",
"; 	c #658653",
"> 	c #304534",
", 	c #1E515F",
"' 	c #186074",
") 	c #0E3E4A",
"! 	c #3D5336",
"~ 	c #6B8E57",
"{ 	c #6C9058",
"] 	c #2D4131",
"^ 	c #2E7E95",
"/ 	c #329BB9",
"( 	c #1D94B4",
"_ 	c #0183A3",
": 	c #035165",
"< 	c #435B39",
"[ 	c #70945B",
"} 	c #5D7C4C",
"| 	c #205868",
"1 	c #389EBC",
"2 	c #1D95B6",
"3 	c #0090B3",
"4 	c #0087A8",
"5 	c #016E89",
"6 	c #152F32",
"7 	c #698C56",
"8 	c #638451",
"9 	c #567346",
"0 	c #5E7C4C",
"a 	c #587548",
"b 	c #267288",
"c 	c #359EBC",
"d 	c #0390B2",
"e 	c #008FB1",
"f 	c #0085A6",
"g 	c #00708B",
"h 	c #0C2F38",
"i 	c #668753",
"j 	c #6A8D57",
"k 	c #5A784A",
"l 	c #587648",
"m 	c #698B55",
"n 	c #4B643D",
"o 	c #1E454D",
"p 	c #165D71",
"q 	c #0B4757",
"r 	c #35492F",
"s 	c #1A4C59",
"t 	c #349AB7",
"u 	c #0A8EB0",
"v 	c #0089AA",
"w 	c #007D9B",
"x 	c #02657E",
"y 	c #1B302D",
"z 	c #5E7E4D",
"A 	c #2A4137",
"B 	c #1D5D6E",
"C 	c #0A5367",
"D 	c #223B35",
"E 	c #5B794A",
"F 	c #1D4F5D",
"G 	c #2E94B0",
"H 	c #1591B1",
"I 	c #0080A0",
"J 	c #035267",
"K 	c #3F5535",
"L 	c #6F945B",
"M 	c #3B5135",
"N 	c #1A657A",
"O 	c #06819F",
"P 	c #007795",
"Q 	c #03667F",
"R 	c #093946",
"S 	c #4F6A41",
"T 	c #70955C",
"U 	c #283F37",
"V 	c #3086A0",
"W 	c #2297B7",
"X 	c #0184A4",
"Y 	c #026680",
"Z 	c #1E342F",
"` 	c #688B55",
" .	c #435A37",
"..	c #2C8098",
"+.	c #1F92B2",
"@.	c #008AAC",
"#.	c #026B85",
"$.	c #1E3734",
"%.	c #6A8C56",
"&.	c #6B8F58",
"*.	c #3D5435",
"=.	c #072B36",
"-.	c #07323F",
";.	c #0B2025",
">.	c #4D673F",
",.	c #607F4E",
"'.	c #1F5869",
").	c #369EBC",
"!.	c #0E93B6",
"~.	c #007592",
"{.	c #064353",
"].	c #536F44",
"^.	c #425836",
"/.	c #2E8098",
"(.	c #1993B4",
"_.	c #007D9C",
":.	c #026780",
"<.	c #1D3533",
"[.	c #045A70",
"}.	c #007E9D",
"|.	c #11404C",
"1.	c #668853",
"2.	c #60804E",
"3.	c #1D5564",
"4.	c #3299B6",
"5.	c #0991B3",
"6.	c #0086A7",
"7.	c #00728E",
"8.	c #074251",
"9.	c #174E5D",
"0.	c #12819E",
"a.	c #007B98",
"b.	c #006E89",
"c.	c #044F63",
"d.	c #3B5032",
"e.	c #1A728A",
"f.	c #0E8FB1",
"g.	c #0A4859",
"h.	c #233832",
"i.	c #20768E",
"j.	c #0783A2",
"k.	c #007895",
"l.	c #03657E",
"m.	c #193130",
"n.	c #658652",
"o.	c #455D39",
"p.	c #103843",
"q.	c #054759",
"r.	c #063C4B",
"s.	c #041F28",
"t.	c #597648",
"u.	c #4C6640",
"v.	c #2B7E96",
"w.	c #1391B3",
"x.	c #064C5F",
"y.	c #405635",
"z.	c #062833",
"A.	c #064658",
"B.	c #044557",
"C.	c #1D3430",
"D.	c #577447",
"E.	c #71955C",
"F.	c #70955B",
"G.	c #61804F",
"H.	c #3A4E30",
"I.	c #045970",
"J.	c #026E89",
"K.	c #6F935B",
"L.	c #455E3C",
"M.	c #34879F",
"N.	c #0D91B3",
"O.	c #05556A",
"P.	c #597749",
"Q.	c #6C8F58",
"R.	c #223E3C",
"S.	c #0D7C99",
"T.	c #044355",
"U.	c #465F39",
"V.	c #678954",
"W.	c #5C7B4B",
"X.	c #4C653D",
"Y.	c #536E44",
"Z.	c #186176",
"`.	c #0F8BAB",
" +	c #154049",
".+	c #3B5339",
"++	c #368DA6",
"@+	c #0C93B5",
"#+	c #046078",
"$+	c #526D43",
"%+	c #266678",
"&+	c #1E94B5",
"*+	c #0D4757",
"=+	c #4E683F",
"-+	c #628250",
";+	c #4E6840",
">+	c #194652",
",+	c #206D83",
"'+	c #0C566A",
")+	c #2F4532",
"!+	c #1D4A56",
"~+	c #2595B5",
"{+	c #47603A",
"]+	c #6E935A",
"^+	c #2F4739",
"/+	c #3793AE",
"(+	c #0690B2",
"_+	c #026C87",
":+	c #49623B",
"<+	c #314736",
"[+	c #338CA5",
"}+	c #098AAB",
"|+	c #2B4941",
"1+	c #5F7E4E",
"2+	c #243F3D",
"3+	c #1B657A",
"4+	c #04596F",
"5+	c #1B393B",
"6+	c #1F4248",
"7+	c #3394B0",
"8+	c #2494B3",
"9+	c #0385A5",
"0+	c #055064",
"a+	c #48603B",
"b+	c #6A8D56",
"c+	c #203F43",
"d+	c #2F94B0",
"e+	c #0083A3",
"f+	c #1E3A39",
"g+	c #6D9059",
"h+	c #233E3D",
"i+	c #3C9AB5",
"j+	c #028FB1",
"k+	c #027D9B",
"l+	c #405734",
"m+	c #5F7F4E",
"n+	c #2D9ABA",
"o+	c #017C9A",
"p+	c #344A34",
"q+	c #2F829A",
"r+	c #1F94B3",
"s+	c #00809F",
"t+	c #035E75",
"u+	c #32452E",
"v+	c #6E925A",
"w+	c #1C5666",
"x+	c #319BB9",
"y+	c #028BAC",
"z+	c #0082A1",
"A+	c #035D74",
"B+	c #384D30",
"C+	c #344B37",
"D+	c #338DA6",
"E+	c #0890B2",
"F+	c #056078",
"G+	c #1E4047",
"H+	c #3B9DBA",
"I+	c #008DAF",
"J+	c #0281A0",
"K+	c #324833",
"L+	c #374D34",
"M+	c #33859D",
"N+	c #1296B8",
"O+	c #016A85",
"P+	c #4B643C",
"Q+	c #203A38",
"R+	c #369AB7",
"S+	c #1991B1",
"T+	c #03677F",
"U+	c #1C3534",
"V+	c #688A55",
"W+	c #1F4146",
"X+	c #2A8DA8",
"Y+	c #007490",
"Z+	c #04485A",
"`+	c #3B5031",
" @	c #4A633C",
".@	c #32849C",
"+@	c #1792B3",
"@@	c #01809F",
"#@	c #1E3735",
"$@	c #1D4B58",
"%@	c #399FBC",
"&@	c #008CAE",
"*@	c #0085A5",
"=@	c #1B3B3D",
"-@	c #21515D",
";@	c #339DBB",
">@	c #0193B7",
",@	c #04556A",
"'@	c #6D9159",
")@	c #223328",
"!@	c #1B7790",
"~@	c #12829F",
"{@	c #00708C",
"]@	c #04576B",
"^@	c #15414B",
"/@	c #04576D",
"(@	c #064050",
"_@	c #053C4B",
":@	c #0D3944",
"<@	c #266476",
"[@	c #2495B4",
"}@	c #065F76",
"|@	c #4E6941",
"1@	c #567347",
"2@	c #286678",
"3@	c #379DBA",
"4@	c #0088A9",
"5@	c #0B3E4C",
"6@	c #61814F",
"7@	c #324730",
"8@	c #3788A0",
"9@	c #1E98BA",
"0@	c #008FB2",
"a@	c #0D4858",
"b@	c #445B39",
"c@	c #0D4959",
"d@	c #07303B",
"e@	c #055063",
"f@	c #074A5D",
"g@	c #1E3530",
"h@	c #5C7B4C",
"i@	c #526E43",
"j@	c #2C3D26",
"k@	c #0B738D",
"l@	c #04809E",
"m@	c #143C44",
"n@	c #1F4F5D",
"o@	c #3097B4",
"p@	c #008CAD",
"q@	c #133B45",
"r@	c #30422C",
"s@	c #37869D",
"t@	c #3099B7",
"u@	c #055A70",
"v@	c #314228",
"w@	c #286374",
"x@	c #3DA0BD",
"y@	c #0692B5",
"z@	c #018BAD",
"A@	c #203F3F",
"B@	c #48613B",
"C@	c #245D6D",
"D@	c #258EAB",
"E@	c #07495A",
"F@	c #557145",
"G@	c #5A7749",
"H@	c #1B4E5C",
"I@	c #1D8EAD",
"J@	c #017E9D",
"K@	c #133C45",
"L@	c #557246",
"M@	c #668854",
"N@	c #1D434D",
"O@	c #3797B3",
"P@	c #028EB0",
"Q@	c #008EB0",
"R@	c #12809D",
"S@	c #276678",
"T@	c #439FBA",
"U@	c #2997B6",
"V@	c #1485A3",
"W@	c #2A697B",
"X@	c #429DB8",
"Y@	c #2398B8",
"Z@	c #0287A8",
"`@	c #33472E",
" #	c #465D39",
".#	c #235867",
"+#	c #3697B2",
"@#	c #0E6F88",
"##	c #20342D",
"$#	c #374C32",
"%#	c #297F98",
"&#	c #118FAF",
"*#	c #017D9C",
"=#	c #104452",
"-#	c #1C3D43",
";#	c #3B98B3",
">#	c #1292B4",
",#	c #088EAF",
"'#	c #389DBB",
")#	c #3DA1BE",
"!#	c #1990B1",
"~#	c #008BAD",
"{#	c #0E90B1",
"]#	c #319BBA",
"^#	c #0590B3",
"/#	c #0182A2",
"(#	c #2E3E24",
"_#	c #3E5437",
":#	c #266679",
"<#	c #3799B5",
"[#	c #10809D",
"}#	c #49623C",
"|#	c #1C4C59",
"1#	c #2D95B2",
"2#	c #038CAE",
"3#	c #0188A9",
"4#	c #045E76",
"5#	c #1A5565",
"6#	c #3A9AB6",
"7#	c #1992B2",
"8#	c #0089AB",
"9#	c #008AAB",
"0#	c #028AAA",
"a#	c #078BAC",
"b#	c #138BAB",
"c#	c #1C4D5B",
"d#	c #327C91",
"e#	c #3A9BB7",
"f#	c #1288A6",
"g#	c #016179",
"h#	c #1F332B",
"i#	c #384C32",
"j#	c #2F869F",
"k#	c #2094B4",
"l#	c #018DAF",
"m#	c #1A90AF",
"n#	c #2A96B4",
"o#	c #0D8EAF",
"p#	c #008EB1",
"q#	c #1093B5",
"r#	c #399CB8",
"s#	c #379AB6",
"t#	c #1289A9",
"u#	c #006D87",
"v#	c #074151",
"w#	c #4B653E",
"x#	c #205360",
"y#	c #1391B1",
"z#	c #008BAE",
"A#	c #068DAF",
"B#	c #0489A9",
"C#	c #025E75",
"D#	c #1E332D",
"E#	c #304430",
"F#	c #2E88A3",
"G#	c #2E98B6",
"H#	c #068EAF",
"I#	c #008AAD",
"J#	c #006680",
"K#	c #064455",
"L#	c #4A633D",
"M#	c #1E5463",
"N#	c #1D91B1",
"O#	c #018AAC",
"P#	c #008CAF",
"Q#	c #0082A2",
"R#	c #006A85",
"S#	c #025F76",
"T#	c #193132",
"U#	c #688A54",
"V#	c #2F4433",
"W#	c #348BA4",
"X#	c #3198B5",
"Y#	c #1790B0",
"Z#	c #0089AC",
"`#	c #008BAC",
" $	c #0087A7",
".$	c #00728D",
"+$	c #00657E",
"@$	c #054657",
"#$	c #465E3A",
"$$	c #205867",
"%$	c #379CBA",
"&$	c #2E99B6",
"*$	c #058EB0",
"=$	c #007B99",
"-$	c #006982",
";$	c #026077",
">$	c #2C453A",
",$	c #328FAA",
"'$	c #339CBA",
")$	c #1192B3",
"!$	c #0086A6",
"~$	c #00718D",
"{$	c #00667E",
"]$	c #054B5E",
"^$	c #445B38",
"/$	c #547045",
"($	c #1E6073",
"_$	c #309AB8",
":$	c #0990B1",
"<$	c #008DB0",
"[$	c #00718C",
"}$	c #01667E",
"|$	c #11343C",
"1$	c #61824F",
"2$	c #213C3B",
"3$	c #1385A4",
"4$	c #007693",
"5$	c #055468",
"6$	c #3D5333",
"7$	c #4C673F",
"8$	c #044A5C",
"9$	c #046179",
"0$	c #046077",
"a$	c #045F76",
"b$	c #04617A",
"c$	c #04627A",
"d$	c #04637B",
"e$	c #04627B",
"f$	c #04586E",
"g$	c #092B35",
"h$	c #5A794A",
"i$	c #324732",
"j$	c #1E6477",
"k$	c #1B6E85",
"l$	c #0F6D85",
"m$	c #0B6A83",
"n$	c #0A6981",
"o$	c #08677F",
"p$	c #066078",
"q$	c #05566C",
"r$	c #05596E",
"s$	c #05596F",
"t$	c #045C73",
"u$	c #055970",
"v$	c #05566B",
"w$	c #055266",
"x$	c #055164",
"y$	c #083947",
"z$	c #465F3A",
"A$	c #3B5237",
"B$	c #256E83",
"C$	c #359BB8",
"D$	c #349BB8",
"E$	c #369DBA",
"F$	c #3C9FBC",
"G$	c #3EA0BC",
"H$	c #3A9DBA",
"I$	c #329AB7",
"J$	c #3198B6",
"K$	c #2893B1",
"L$	c #208CA9",
"M$	c #1489A8",
"N$	c #0E86A6",
"O$	c #0B809E",
"P$	c #077B99",
"Q$	c #037491",
"R$	c #026F89",
"S$	c #02647C",
"T$	c #0A3742",
"U$	c #4E6940",
"V$	c #19414C",
"W$	c #379CB8",
"X$	c #329AB8",
"Y$	c #359CBA",
"Z$	c #399DBB",
"`$	c #399CB9",
" %	c #3599B6",
".%	c #399BB6",
"+%	c #399AB6",
"@%	c #3498B4",
"#%	c #3097B5",
"$%	c #2C95B2",
"%%	c #228DAA",
"&%	c #23819B",
"*%	c #0C7590",
"=%	c #035E74",
"-%	c #26382B",
";%	c #2B4235",
">%	c #027895",
",%	c #0084A4",
"'%	c #007F9D",
")%	c #007F9E",
"!%	c #007E9C",
"~%	c #007A99",
"{%	c #006B85",
"]%	c #006780",
"^%	c #00647C",
"/%	c #034658",
"(%	c #5B7A4B",
"_%	c #1D3B3D",
":%	c #04667F",
"<%	c #017794",
"[%	c #007896",
"}%	c #007A98",
"|%	c #007694",
"1%	c #007491",
"2%	c #006E88",
"3%	c #006C86",
"4%	c #00657D",
"5%	c #044758",
"6%	c #2D402E",
"7%	c #3C5131",
"8%	c #32452D",
"9%	c #2F4330",
"0%	c #1B2B24",
"a%	c #08181D",
"b%	c #062A35",
"c%	c #073542",
"d%	c #083745",
"e%	c #083543",
"f%	c #083441",
"g%	c #083340",
"h%	c #083440",
"i%	c #083643",
"j%	c #07323E",
"k%	c #06222A",
"l%	c #08161C",
"m%	c #243529",
"n%	c #304431",
"o%	c #30442F",
"p%	c #33452A",
"q%	c #435936",
"r%	c #638350",
"s%	c #22505C",
"t%	c #358197",
"u%	c #3F96AF",
"v%	c #4098B2",
"w%	c #4097B0",
"x%	c #4098B1",
"y%	c #4097B1",
"z%	c #4199B3",
"A%	c #419AB4",
"B%	c #429CB6",
"C%	c #419AB5",
"D%	c #3F98B1",
"E%	c #3C97B2",
"F%	c #3494B0",
"G%	c #2990AD",
"H%	c #1089A7",
"I%	c #0182A1",
"J%	c #02667F",
"K%	c #1B3534",
"L%	c #597649",
"M%	c #5C7A4B",
"N%	c #1E4D59",
"O%	c #3B96B0",
"P%	c #3F9EB9",
"Q%	c #3FA0BD",
"R%	c #3F9FBA",
"S%	c #3F9FBB",
"T%	c #40A0BC",
"U%	c #40A0BD",
"V%	c #3FA0BC",
"W%	c #3F9EBA",
"X%	c #40A2BF",
"Y%	c #3FA1BD",
"Z%	c #40A1BD",
"`%	c #3C9EBA",
" &	c #349CBB",
".&	c #329CBA",
"+&	c #2899B9",
"@&	c #1391B2",
"#&	c #018FB1",
"$&	c #03596F",
"%&	c #24382D",
"&&	c #05738F",
"*&	c #0789AA",
"=&	c #088AAB",
"-&	c #078AAA",
";&	c #088CAD",
">&	c #088CAE",
",&	c #088EB0",
"'&	c #088FB0",
")&	c #078EAF",
"!&	c #088DAF",
"~&	c #078FB1",
"{&	c #078DAE",
"]&	c #078DAF",
"^&	c #0890B1",
"/&	c #068AAB",
"(&	c #048BAC",
"_&	c #048FB1",
":&	c #0191B4",
"<&	c #044253",
"[&	c #4F6940",
"}&	c #233E3A",
"|&	c #0181A0",
"1&	c #0088A8",
"2&	c #0081A1",
"3&	c #00809E",
"4&	c #00667F",
"5&	c #00637C",
"6&	c #00637B",
"7&	c #0A2D37",
"8&	c #066982",
"9&	c #056B85",
"0&	c #056982",
"a&	c #056A84",
"b&	c #056881",
"c&	c #03637B",
"d&	c #035F76",
"e&	c #035C72",
"f&	c #035B71",
"g&	c #03576D",
"h&	c #035368",
"i&	c #035266",
"j&	c #035164",
"k&	c #034E61",
"l&	c #034D60",
"m&	c #034E62",
"n&	c #034D61",
"o&	c #044658",
"p&	c #34472B",
"q&	c #415735",
"r&	c #7A9C65",
"s&	c #759960",
"t&	c #779A62",
"  . . . . . . . . . . . . . . . . . . . . . . . . . . . . . . . . . . . . . . . . . . . . . . + ",
"@ # # # # # # # # # # # # # # # # # # # # # # # # # # # # # # # # # # # # # # # # # # # # # # $ ",
"@ # # # # # # # # # # # # # # # # # # # # # % & * = - # # # # # # # # # # # # # # # # # # # # $ ",
"@ # # # # # # # # # # # # # # # # # # # # ; > , ' ) ! ~ # # # # # # # # # # # # # # # # # # # $ ",
"@ # # # # # # # # # # # # # # # # # # # { ] ^ / ( _ : < [ # # # # # # # # # # # # # # # # # # $ ",
"@ # # # # # # # # # # # # # # # # # # # } | 1 2 3 4 5 6 7 # # # # # # # # # # # # # # # # # # $ ",
"@ # # # # # # # # # # # # 8 9 0 % # # # a b c d e f g h i # # # j k l m # # # # # # # # # # # $ ",
"@ # # # # # # # # # # [ n o p q r 7 # # & s t u v w x y ~ # # z A B C D k # # # # # # # # # # $ ",
"@ # # # # # # # # # # E F G H I J K L # - M N O P Q R S T # { U V W X Y Z ` # # # # # # # # # $ ",
"@ # # # # # # # # # #  ...+.@.f #.$.%.# # &.*.=.-.;.>.- # # ,.'.).!.v ~.{.].# # # # # # # # # $ ",
"@ # # # # # # # # # # ^./.(.@._.:.<.7 # # # k [.}.|.1.# # # 2.3.4.5.6.7.8.].# # # # # # # # # $ ",
"@ # # # # # # # # # # a 9.0.a.b.c.d.- # # # 9 e.f.g.8 # # # { h.i.j.k.l.m.n.# # # # # # # # # $ ",
"@ # # # # # # # # # # L o.p.q.r.s.t.# # # # u.v.w.x.z # # # [ y.z.A.B.C.D.E.# # # # # # # # # $ ",
"@ # # # # # # # # # # # F.G.H.I.J.d.K.# # T L.M.N.O.P.# # # Q.R.S.T.U.V.# # # # # # # # # # # $ ",
"@ # # # # # L W.X.Y.%.# # # D.Z.`. +i # # [ .+++@+#+$+# # # 9 %+&+*+= # # # n.=+=+-+# # # # # $ ",
"@ # # # # T ;+>+,+'+)+7 # # G.!+~+l.{+F.# ]+^+/+(+_+:+# # - <+[+}+|+{ # # 1+2+3+4+5+W.# # # # $ ",
"@ # # # # V.6+7+8+9+0+a+F.# b+c+d+e+f+j # g+h+i+j+k+l+# # m+, n+o+K # # F.p+q+r+s+t+u+v+# # # $ ",
"@ # # # # W.w+x+y+z+A+B+L # - C+D+E+F+=+E.m G+H+I+J+K+v+[ L+M+N+O+P+# # [ Q+R+S+_.T+U+&.# # # $ ",
"@ # # # # V+W+X+e+Y+Z+`+L # #  @.@+@@@#@7 -+$@%@&@*@=@~ & -@;@>@,@9 # # '@)@!@~@{@]@u+v+# # # $ ",
"@ # # # # T S ^@/@(@_@:@a E.# 9 <@[@&@}@|@1@2@3@@.4@5@6@7@8@9@0@a@-+# - b@c@d@e@f@g@h@# # # # $ ",
"@ # # # # # [ -+i@j@k@l@m@P.# G.n@o@p@X q@r@s@t@I+e u@v@w@x@y@z@A@7 - B@C@D@E@`+F@1.# # # # # $ ",
"@ # # # # # # # # G@H@I@J@K@L@M@N@O@P@Q@R@S@T@U@I+Q@V@W@X@Y@0@Z@`@Q. #.#+#@###` # # # # # # # $ ",
"@ # # # # # # # # - $#%#&#*#=# .-#;#>#I+,#'#)#!#~#e {#c ]#^#e /#(#_#:#<#[#{.}## # # # # # # # $ ",
"@ # # # # # # # # # W.|#1#2#3#4#5#6#7#8#9#0#a#@.&@Q@I+0@e 0@e b#c#d#e#f#g#h#j # # # # # # # # $ ",
"@ # # # # # # # # # L i#j#k#l#Q@m#n#o#4@~#8#@.9#8#@.@.4@e p#I+q#r#s#t#u#v#w## # # # # # # # # $ ",
"@ # # # # # # # # # # W.x#t y#~#p@3#4@~#8#8#~#&@@.@.@.8#I+z#p#&@A#B#7.C#D#7 # # # # # # # # # $ ",
"@ # # # # # # # # # # ]+E#F#G#H#~#9#@.9#~#I#@.&@~#@.I+&@~#Q@Q@z#@.w J#K#L#T # # # # # # # # # $ ",
"@ # # # # # # # # # # # P.M#t N#O#@.p@@.&@~#8#@.&@~#~#&@I+0@P#~#Q#R#S#T#U## # # # # # # # # # $ ",
"@ # # # # # # # # # # # v+V#W#X#Y#z#I+I+~#9#4@v Z#9#~#`#&@p@@. $.$+$@$#$F.# # # # # # # # # # $ ",
"@ # # # # # # # # # # # # l $$%$&$*$`#Q@I+Z#@.`#8#8#~#@.@.~# $=$-$;$6 n.# # # # # # # # # # # $ ",
"@ # # # # # # # # # # # # Q.>$,$'$)$&@I+I+I+I+&@&@&@I+~#8#!$z+~${$]$^$F.# # # # # # # # # # # $ ",
"@ # # # # # # # # # # # # # /$($_$:$I+&@~#<$&@P#I+I+&@&@8#8#f [$}$|$1$# # # # # # # # # # # # $ ",
"@ # # # # # # # # # # # # # 7 2$3$e Q@Q@I+Q@@.I+I+I+&@&@~#&@&@4$5$6$L # # # # # # # # # # # # $ ",
"@ # # # # # # # # # # # # # E.7$8$9$#+0$#+9$a$9$b$9$0$#+c$d$e$f$g$h$# # # # # # # # # # # # # $ ",
"@ # # # # # # # # # # # # # j i$j$k$l$m$n$o$p$u@q$r$s$t$u$v$w$x$y$z$L # # # # # # # # # # # # $ ",
"@ # # # # # # # # # # # # '@A$B$C$D$E$F$G$H$I$J$K$L$M$N$O$P$Q$R$S$T$U$F.# # # # # # # # # # # $ ",
"@ # # # # # # # # # # # # -+V$W$/ X$Y$Z$H$H$`$ %.%+%+%@%#%$%%%&%*%=%-%{ # # # # # # # # # # # $ ",
"@ # # # # # # # # # # # # '@;%>%9#8#4@4@f 6.,%s+'%)%)%!%~%Y+{%]%^%/%#$# # # # # # # # # # # # $ ",
"@ # # # # # # # # # # E.L v+(%_%:%<%[%}%|%1%{@u#2%3%3%u#b.-$4%C#5%6%= - [ # # # # # # # # # # $ ",
"@ # # # # # # # # F.(%7%8%9%E#0%a%b%c%d%e%f%g%g%g%g%h%f%i%f%j%k%l%m%n%o%p%q%r%# # # # # # # # $ ",
"@ # # # # # # # F.L#s%t%u%v%w%w%w%x%y%w%y%y%w%y%z%A%B%A%C%C%v%D%E%F%G%H%I%J%K%L%# # # # # # # $ ",
"@ # # # # # # # M%N%O%P%Q%R%P%S%S%T%U%S%V%S%W%S%V%U%X%T%Y%Z%`% &.&+&@&#&Q@_.$&%&m # # # # # # $ ",
"@ # # # # # # #  .&&a#*&=&-&*&;&>&,&'&,&)&!&~&{&]&!&^&,&!&!&/&(&_&:&&@P#,%-$^%<&[&# # # # # # $ ",
"@ # # # # # # { }&|&v 1&4 4@4@4 4 ~#~#~#~#8#&@&@`#6.1&!$e+,%Q#2&3&'%_.~.4&5&6&: `+# # # # # # $ ",
"@ # # # # # # b+7&8&9&0&0&a&0&b&Q l.c&c&d&e&f&g&h&: i&j&k&l&l&m&n&k&l&k&m&k&n&o&p&F.# # # # # $ ",
"@ # # # # # # { ^.q&q&q&q&q&q&q&q&q&q&q&q&q&q&q&q&q&q&q&q&q&q&q&q&q&q&q&q&q&q&q&U$T # # # # # $ ",
"@ # # # # # # # # # # # # # # # # # # # # # # # # # # # # # # # # # # # # # # # # # # # # # # $ ",
"r&s&s&s&s&s&s&s&s&s&s&s&s&s&s&s&s&s&s&s&s&s&s&s&s&s&s&s&s&s&s&s&s&s&s&s&s&s&s&s&s&s&s&s&s&s&s&t&"};
