/* XPM */
static char * blue_queen_on_white_xpm[] = {
"48 48 706 2",
"  	c #EEEDD3",
". 	c #DBE0C2",
"+ 	c #EFEED4",
"@ 	c #DCE0C3",
"# 	c #EDECD2",
"$ 	c #E0DFC7",
"% 	c #BDBCA8",
"& 	c #C1C0AB",
"* 	c #E1E0C8",
"= 	c #ECEBD2",
"- 	c #ACAC99",
"; 	c #384B4F",
"> 	c #225E70",
", 	c #105467",
"' 	c #424C4C",
") 	c #B8B8A3",
"! 	c #27505C",
"~ 	c #3594AF",
"{ 	c #2B99B8",
"] 	c #108FB0",
"^ 	c #00738F",
"/ 	c #2D4147",
"( 	c #CECDB7",
"_ 	c #797A6D",
": 	c #3087A0",
"< 	c #339DBC",
"[ 	c #0590B3",
"} 	c #008EB1",
"| 	c #007E9D",
"1 	c #025469",
"2 	c #939282",
"3 	c #E6E5CC",
"4 	c #C4C3AE",
"5 	c #B7B7A3",
"6 	c #D7D6BF",
"7 	c #616359",
"8 	c #3699B6",
"9 	c #2599B8",
"0 	c #008DAF",
"a 	c #007C9A",
"b 	c #025B71",
"c 	c #848476",
"d 	c #D2D2BB",
"e 	c #B6B6A2",
"f 	c #C9C9B3",
"g 	c #EAE9CF",
"h 	c #D8D8C0",
"i 	c #6C6D63",
"j 	c #205869",
"k 	c #04566A",
"l 	c #3A4A4E",
"m 	c #A8A896",
"n 	c #858678",
"o 	c #2A7D94",
"p 	c #2797B6",
"q 	c #008BAD",
"r 	c #0085A6",
"s 	c #007591",
"t 	c #024B5E",
"u 	c #9A9A89",
"v 	c #EAE9D0",
"w 	c #969686",
"x 	c #33515A",
"y 	c #145D71",
"z 	c #194857",
"A 	c #7B7C6F",
"B 	c #E2E1C8",
"C 	c #EBEAD0",
"D 	c #7D7D70",
"E 	c #287A91",
"F 	c #2795B3",
"G 	c #058CAD",
"H 	c #01728E",
"I 	c #2A3F46",
"J 	c #C7C7B1",
"K 	c #167C97",
"L 	c #007D9B",
"M 	c #05566B",
"N 	c #4B504C",
"O 	c #DAD9C1",
"P 	c #B9B9A5",
"Q 	c #235666",
"R 	c #3298B5",
"S 	c #0D90B1",
"T 	c #007A97",
"U 	c #044C5F",
"V 	c #979786",
"W 	c #DBDBC3",
"X 	c #435A60",
"Y 	c #3094B1",
"Z 	c #078DAF",
"` 	c #008AAC",
" .	c #005266",
"..	c #F0EFD5",
"+.	c #C6C6B0",
"@.	c #454A46",
"#.	c #07323F",
"$.	c #052B36",
"%.	c #55574E",
"&.	c #D0D0B9",
"*.	c #848679",
"=.	c #2A9ABA",
"-.	c #008FB2",
";.	c #0081A1",
">.	c #026781",
",.	c #3C4240",
"'.	c #E5E4CB",
").	c #DADAC2",
"!.	c #42595F",
"~.	c #2D95B2",
"{.	c #048EAF",
"].	c #0086A7",
"^.	c #007592",
"/.	c #004F63",
"(.	c #949584",
"_.	c #6F7369",
":.	c #017996",
"<.	c #006C87",
"[.	c #848375",
"}.	c #858679",
"|.	c #2D8199",
"1.	c #2597B7",
"2.	c #02647D",
"3.	c #383F3E",
"4.	c #E9E8CF",
"5.	c #747569",
"6.	c #197088",
"7.	c #03809E",
"8.	c #007692",
"9.	c #01657E",
"0.	c #233D45",
"a.	c #C1C1AC",
"b.	c #ECEBD1",
"c.	c #606762",
"d.	c #1E90AF",
"e.	c #79796C",
"f.	c #B5B4A1",
"g.	c #1D4D5C",
"h.	c #1A83A0",
"i.	c #007F9E",
"j.	c #00718C",
"k.	c #054E62",
"l.	c #898A7B",
"m.	c #D3D2BC",
"n.	c #5F6159",
"o.	c #004253",
"p.	c #054657",
"q.	c #072F3A",
"r.	c #585B53",
"s.	c #465456",
"t.	c #2D99B7",
"u.	c #01809F",
"v.	c #6C6D61",
"w.	c #D9D8C1",
"x.	c #252B2A",
"y.	c #063846",
"z.	c #054A5D",
"A.	c #033948",
"B.	c #75766A",
"C.	c #DFDEC6",
"D.	c #E2E2C9",
"E.	c #B9B8A4",
"F.	c #313B3C",
"G.	c #027491",
"H.	c #1C5061",
"I.	c #C3C2AD",
"J.	c #DFDFC6",
"K.	c #364F55",
"L.	c #319CBA",
"M.	c #0284A4",
"N.	c #5E6159",
"O.	c #B4B3A0",
"P.	c #165C6F",
"Q.	c #03738F",
"R.	c #474A44",
"S.	c #BFBEA9",
"T.	c #E8E7CE",
"U.	c #B0AF9C",
"V.	c #A3A291",
"W.	c #C3C3AD",
"X.	c #62665E",
"Y.	c #1D86A3",
"Z.	c #868677",
"`.	c #D4D3BC",
" +	c #2E535E",
".+	c #319DBB",
"++	c #0289AA",
"@+	c #495554",
"#+	c #6C7067",
"$+	c #308DA8",
"%+	c #EDECD3",
"&+	c #BCBCA8",
"*+	c #A0A08E",
"=+	c #B4B39F",
"-+	c #62655C",
";+	c #1A5D70",
">+	c #186A81",
",+	c #204450",
"'+	c #A7A795",
")+	c #87887A",
"!+	c #2D7E95",
"~+	c #0789A9",
"{+	c #354C54",
"]+	c #D3D3BC",
"^+	c #295E6E",
"/+	c #2F9CBB",
"(+	c #284A56",
"_+	c #C6C5B0",
":+	c #295765",
"<+	c #2C9AB9",
"[+	c #006A84",
"}+	c #ADAC99",
"|+	c #919282",
"1+	c #245260",
"2+	c #09657C",
"3+	c #03485A",
"4+	c #7A7B6F",
"5+	c #E4E3CB",
"6+	c #9FA08E",
"7+	c #297186",
"8+	c #3197B4",
"9+	c #1490B0",
"0+	c #017592",
"a+	c #2C3D41",
"b+	c #D5D4BD",
"c+	c #A9A997",
"d+	c #2B6E82",
"e+	c #1B94B4",
"f+	c #00647C",
"g+	c #9B9A89",
"h+	c #2E6E81",
"i+	c #2C9AB8",
"j+	c #008EB0",
"k+	c #005065",
"l+	c #D1D0BA",
"m+	c #848577",
"n+	c #30839B",
"o+	c #1292B4",
"p+	c #165669",
"q+	c #CDCCB6",
"r+	c #2D505B",
"s+	c #3497B3",
"t+	c #048BAC",
"u+	c #013D4D",
"v+	c #77786C",
"w+	c #2D869F",
"x+	c #2093B3",
"y+	c #0088A9",
"z+	c #007896",
"A+	c #003645",
"B+	c #C2C2AD",
"C+	c #275664",
"D+	c #0186A7",
"E+	c #415154",
"F+	c #A4A492",
"G+	c #2F788E",
"H+	c #2998B7",
"I+	c #008DB0",
"J+	c #005970",
"K+	c #BAB9A5",
"L+	c #CFCEB7",
"M+	c #314F57",
"N+	c #329BB9",
"O+	c #018DAF",
"P+	c #385057",
"Q+	c #BEBDA8",
"R+	c #287085",
"S+	c #309AB8",
"T+	c #0188A9",
"U+	c #007490",
"V+	c #025164",
"W+	c #9B9B8A",
"X+	c #266C80",
"Y+	c #1C8CAB",
"Z+	c #007D9C",
"`+	c #016780",
" @	c #072630",
".@	c #C5C5B0",
"+@	c #E8E7CD",
"@@	c #354C52",
"#@	c #339BB9",
"$@	c #005F76",
"%@	c #9A9989",
"&@	c #8B8B7D",
"*@	c #34839A",
"=@	c #2395B5",
"-@	c #006882",
";@	c #9A9988",
">@	c #8C8C7D",
",@	c #31829A",
"'@	c #1E98BA",
")@	c #0187A8",
"!@	c #545750",
"~@	c #E3E2C9",
"{@	c #154453",
"]@	c #1F88A4",
"^@	c #027997",
"/@	c #016983",
"(@	c #043948",
"_@	c #B7B6A2",
":@	c #66685F",
"<@	c #145365",
"[@	c #005165",
"}@	c #06313C",
"|@	c #034659",
"1@	c #6B6E64",
"2@	c #656961",
"3@	c #338CA6",
"4@	c #058DAF",
"5@	c #455557",
"6@	c #D8D7C0",
"7@	c #61645C",
"8@	c #3B91AB",
"9@	c #1F92B2",
"0@	c #017490",
"a@	c #7F8072",
"b@	c #2F4E58",
"c@	c #399EBB",
"d@	c #0394B7",
"e@	c #757569",
"f@	c #4B5350",
"g@	c #074758",
"h@	c #063F4F",
"i@	c #005064",
"j@	c #1B424F",
"k@	c #7C7C6F",
"l@	c #E3E2CA",
"m@	c #BEBEA9",
"n@	c #9D9D8C",
"o@	c #1C414D",
"p@	c #0C87A7",
"q@	c #03657E",
"r@	c #74756A",
"s@	c #88887A",
"t@	c #338198",
"u@	c #1890B0",
"v@	c #036B85",
"w@	c #68695F",
"x@	c #2F484F",
"y@	c #42A1BD",
"z@	c #1390B1",
"A@	c #0186A6",
"B@	c #475150",
"C@	c #565B55",
"D@	c #398DA6",
"E@	c #299ABA",
"F@	c #0091B4",
"G@	c #006F8A",
"H@	c #979787",
"I@	c #D7D6BE",
"J@	c #5A5F59",
"K@	c #2F829A",
"L@	c #0C7995",
"M@	c #333B3B",
"N@	c #E7E6CD",
"O@	c #79796D",
"P@	c #227890",
"Q@	c #0C8CAD",
"R@	c #03647D",
"S@	c #6C6E64",
"T@	c #D9D8C0",
"U@	c #9F9F8E",
"V@	c #2F768A",
"W@	c #2496B5",
"X@	c #008BAC",
"Y@	c #1E6F86",
"Z@	c #358197",
"`@	c #42A2BE",
" #	c #058FB0",
".#	c #217289",
"+#	c #3EA1BE",
"@#	c #0691B4",
"##	c #01627A",
"$#	c #D1D0B9",
"%#	c #585D57",
"&#	c #317F95",
"*#	c #298FAC",
"=#	c #0A4C5E",
"-#	c #2D525D",
";#	c #2690AE",
">#	c #028AAB",
",#	c #036781",
"'#	c #5B605A",
")#	c #7F7F71",
"!#	c #2A6D80",
"~#	c #329CBA",
"{#	c #2294B4",
"]#	c #3DA1BD",
"^#	c #349CBA",
"/#	c #018BAD",
"(#	c #2496B6",
"_#	c #399FBD",
":#	c #1F95B6",
"<#	c #0090B2",
"[#	c #0C5D73",
"}#	c #949484",
"|#	c #475454",
"1#	c #3287A0",
"2#	c #2C95B3",
"3#	c #036882",
"4#	c #343D3C",
"5#	c #D7D7BF",
"6#	c #EBEAD1",
"7#	c #808072",
"8#	c #287991",
"9#	c #1D92B2",
"0#	c #008CAE",
"a#	c #007B98",
"b#	c #07495A",
"c#	c #2B7A91",
"d#	c #359CBA",
"e#	c #008CAD",
"f#	c #0089AB",
"g#	c #0089AA",
"h#	c #078BAC",
"i#	c #038AAC",
"j#	c #028FB1",
"k#	c #1C738B",
"l#	c #205868",
"m#	c #3C92AC",
"n#	c #2C96B4",
"o#	c #027894",
"p#	c #074859",
"q#	c #CDCDB6",
"r#	c #335862",
"s#	c #3097B5",
"t#	c #0E8EAF",
"u#	c #068DAF",
"v#	c #2693B2",
"w#	c #2293B2",
"x#	c #0088AA",
"y#	c #008AAB",
"z#	c #0087A8",
"A#	c #008FB1",
"B#	c #2797B7",
"C#	c #3C9DB9",
"D#	c #2A93B2",
"E#	c #027D9C",
"F#	c #025F77",
"G#	c #323B3B",
"H#	c #DBDAC2",
"I#	c #7F7F72",
"J#	c #2B97B6",
"K#	c #048DAE",
"L#	c #0189AB",
"M#	c #008CAF",
"N#	c #028DAF",
"O#	c #088DAE",
"P#	c #0182A1",
"Q#	c #006781",
"R#	c #054A5C",
"S#	c #999988",
"T#	c #C4C4AF",
"U#	c #3499B6",
"V#	c #1F93B3",
"W#	c #00708B",
"X#	c #333E3F",
"Y#	c #727367",
"Z#	c #2E839C",
"`#	c #0D8EAE",
" $	c #008AAD",
".$	c #007996",
"+$	c #00647D",
"@$	c #044D5F",
"#$	c #919181",
"$$	c #ECECD2",
"%$	c #2D5865",
"&$	c #379BB7",
"*$	c #2A95B2",
"=$	c #058DAE",
"-$	c #008DAE",
";$	c #00809E",
">$	c #006A83",
",$	c #025F76",
"'$	c #26363A",
")$	c #6B6D62",
"!$	c #31869F",
"~$	c #349BB8",
"{$	c #1F95B4",
"]$	c #0084A4",
"^$	c #00718D",
"/$	c #00677F",
"($	c #034D60",
"_$	c #BABAA6",
":$	c #2A6070",
"<$	c #369CBA",
"[$	c #2A99B8",
"}$	c #008BAE",
"|$	c #016179",
"1$	c #23383E",
"2$	c #D1D1BA",
"3$	c #5E635C",
"4$	c #2E89A3",
"5$	c #2396B6",
"6$	c #006B85",
"7$	c #01566B",
"8$	c #7A7A6D",
"9$	c #EEEDD4",
"0$	c #ABAA98",
"a$	c #1B5D70",
"b$	c #048FB1",
"c$	c #0086A6",
"d$	c #016A84",
"e$	c #203D47",
"f$	c #E4E3CA",
"g$	c #4B524E",
"h$	c #045D73",
"i$	c #046178",
"j$	c #046077",
"k$	c #046078",
"l$	c #045F76",
"m$	c #04627A",
"n$	c #046179",
"o$	c #04637B",
"p$	c #05495B",
"q$	c #616358",
"r$	c #BDBDA8",
"s$	c #2B464D",
"t$	c #1F6F85",
"u$	c #166E85",
"v$	c #0B6C85",
"w$	c #0B6982",
"x$	c #096880",
"y$	c #07657D",
"z$	c #065D74",
"A$	c #05586D",
"B$	c #05596E",
"C$	c #055A70",
"D$	c #045C72",
"E$	c #055569",
"F$	c #055165",
"G$	c #054D5F",
"H$	c #3B4341",
"I$	c #CECEB7",
"J$	c #CAC9B3",
"K$	c #3D4F53",
"L$	c #359CB9",
"M$	c #389EBC",
"N$	c #3E9FBB",
"O$	c #3D9FBC",
"P$	c #359BB8",
"Q$	c #329AB7",
"R$	c #2F96B4",
"S$	c #258FAD",
"T$	c #1B8AA8",
"U$	c #1188A8",
"V$	c #0D83A2",
"W$	c #097D9B",
"X$	c #057996",
"Y$	c #02718D",
"Z$	c #016B85",
"`$	c #04566B",
" %	c #4E514B",
".%	c #8A8A7B",
"+%	c #2B788F",
"@%	c #359DBA",
"#%	c #339BB8",
"$%	c #379DBB",
"%%	c #3A9DBA",
"&%	c #369AB7",
"*%	c #389AB6",
"=%	c #399AB6",
"-%	c #3097B4",
";%	c #2692AF",
">%	c #2387A3",
",%	c #1D7C96",
"'%	c #006E89",
")%	c #004152",
"!%	c #F0EFD4",
"~%	c #1C4F5F",
"{%	c #0082A2",
"]%	c #007F9D",
"^%	c #007C9B",
"/%	c #006982",
"(%	c #00657E",
"_%	c #015F76",
":%	c #27383D",
"<%	c #D4D4BD",
"[%	c #E4E4CB",
"}%	c #8A8B7C",
"|%	c #0F4D5F",
"1%	c #02718C",
"2%	c #007997",
"3%	c #007895",
"4%	c #007693",
"5%	c #00728E",
"6%	c #006D88",
"7%	c #006D87",
"8%	c #006C86",
"9%	c #006881",
"0%	c #03576D",
"a%	c #1F3B44",
"b%	c #E5E5CC",
"c%	c #A2A290",
"d%	c #757567",
"e%	c #6A6C61",
"f%	c #66695F",
"g%	c #606259",
"h%	c #111C1F",
"i%	c #081F26",
"j%	c #06313D",
"k%	c #083745",
"l%	c #083643",
"m%	c #083543",
"n%	c #083340",
"o%	c #083440",
"p%	c #083542",
"q%	c #062D38",
"r%	c #071A20",
"s%	c #1F2628",
"t%	c #64665D",
"u%	c #6C6C61",
"v%	c #78786B",
"w%	c #ACAB98",
"x%	c #DCDBC3",
"y%	c #60645C",
"z%	c #296A7C",
"A%	c #3B8EA6",
"B%	c #4097B1",
"C%	c #4097B0",
"D%	c #4098B1",
"E%	c #419AB4",
"F%	c #419BB6",
"G%	c #419BB5",
"H%	c #419AB5",
"I%	c #409AB4",
"J%	c #3E97B2",
"K%	c #3996B1",
"L%	c #3093AF",
"M%	c #1F8DAB",
"N%	c #0686A6",
"O%	c #034C60",
"P%	c #747568",
"Q%	c #818275",
"R%	c #2B758A",
"S%	c #3F9DB9",
"T%	c #3F9FBB",
"U%	c #3FA0BC",
"V%	c #3F9EBA",
"W%	c #3F9FBA",
"X%	c #40A1BD",
"Y%	c #40A0BD",
"Z%	c #3E9FBA",
"`%	c #40A2BE",
" &	c #40A1BE",
".&	c #389DBB",
"+&	c #349CBB",
"@&	c #309BBA",
"#&	c #2096B6",
"$&	c #078FB0",
"%&	c #0D4454",
"&&	c #999989",
"*&	c #25444F",
"=&	c #0688A9",
"-&	c #0789AA",
";&	c #088AAB",
">&	c #088FB0",
",&	c #088EB0",
"'&	c #078EB0",
")&	c #078FB1",
"!&	c #078DAE",
"~&	c #088DAF",
"{&	c #0890B1",
"]&	c #088EAF",
"^&	c #078CAD",
"/&	c #048AAB",
"(&	c #048DAF",
"_&	c #0391B3",
":&	c #016077",
"<&	c #434844",
"[&	c #DDDCC4",
"}&	c #03576C",
"|&	c #0088A8",
"1&	c #0087A7",
"2&	c #0084A5",
"3&	c #0082A1",
"4&	c #0080A0",
"5&	c #007E9C",
"6&	c #006E8A",
"7&	c #00637B",
"8&	c #00627A",
"9&	c #1A3943",
"0&	c #A5A492",
"a&	c #035064",
"b&	c #036B86",
"c&	c #026A83",
"d&	c #036881",
"e&	c #026780",
"f&	c #006179",
"g&	c #005D75",
"h&	c #005B71",
"i&	c #00596F",
"j&	c #00556B",
"k&	c #005164",
"l&	c #004D61",
"m&	c #004D60",
"n&	c #004E61",
"o&	c #014D61",
"p&	c #002F3C",
"q&	c #C2C1AC",
"r&	c #BFBFAA",
"s&	c #8B8B7C",
"t&	c #8B8C7C",
"u&	c #D2D1BA",
"v&	c #EBEBD0",
"w&	c #D9DEC0",
"                                                                                              . ",
"+ + + + + + + + + + + + + + + + + + + + + + + + + + + + + + + + + + + + + + + + + + + + + + + @ ",
"+ + + + + + + + + + + + + + + + + + + + + # $ % & *   + + + + + + + + + + + + + + + + + + + + @ ",
"+ + + + + + + + + + + + + + + + + + + + = - ; > , ' )   + + + + + + + + + + + + + + + + + + + @ ",
"+ + + + + + + + + + + + + + + + + + + + % ! ~ { ] ^ / ( + + + + + + + + + + + + + + + + + + + @ ",
"+ + + + + + + + + + + + + + + + + + + + _ : < [ } | 1 2   + + + + + + + + + + + + + + + + + + @ ",
"+ + + + + + + + + + + + 3 4 5 6 + + + + 7 8 9 } 0 a b c = + + # d e f g + + + + + + + + + + + @ ",
"+ + + + + + + + + + + h i j k l m   + + n o p q r s t u   + v w x y z A B + + + + + + + + + + @ ",
"+ + + + + + + + + + C D E F G H I J + + ( ; K L H M N O + + P Q R S T U V # + + + + + + + + + @ ",
"+ + + + + + + + + + W X Y Z ` a  .w ..+   +.@.#.$.%.&.+ + # *.: =.-.;.>.,.'.+ + + + + + + + + @ ",
"+ + + + + + + + + + ).!.~.{.].^./.(...+ + = _.:.<.[.  + + # }.|.1.0 | 2.3.'.+ + + + + + + + + @ ",
"+ + + + + + + + + + 4.5.6.7.8.9.0.a.+ + + b.c.d.L e.# + + + f.g.h.i.j.k.l.b.+ + + + + + + + + @ ",
"+ + + + + + + + + + + m.n.o.p.q.r.3 + + + '.s.t.u.v.4.+ + + w.x.y.z.A.B.C.+ + + + + + + + + + @ ",
"+ + + + + + + + ..+ + + D.E.F.G.H.I.+ + + J.K.L.M.N.'.+ + + O.P.Q.R.S.T.+ + + ..+ + + + + + + @ ",
"+ + + + + + C.U.V.W.b.+ + # X.Y.j.Z.  + + `. +.+++@+$ + + T.#+$+L D %++ + C &+*+=+'.+ + + + + @ ",
"+ + + + + $ -+;+>+,+'+# + %+)+!+~+{+]++ + 4 ^+/+` (+O + + _+:+<+[+}++ + C |+1+2+3+4+5++ + + + @ ",
"+ + + + + 6+7+8+9+0+a+b++ + c+d+e+f+g++ + O.h+i+j+k+l++ %+m+n+o+p+q++ + q+r+s+t+^.u+5 + + + + @ ",
"+ + + + # v+w+x+y+z+A+B++ + f C+{ D+E+O + F+G+H+I+J+K++ L+M+N+O+P+w.+ + Q+R+S+T+U+V+W+..+ + + @ ",
"+ + + + + F+X+Y+Z+`+ @.@+ + +@@@#@0 $@%@# &@*@=@0 -@;@# >@,@'@)@!@~@+ + E.{@]@^@/@(@_@+ + + + @ ",
"+ + + + + * :@<@[@}@|@1@C.+ v 2@3@4@M.5@6@7@8@9@` 0@a@a.b@c@d@Z+e@# + `.f@g@h@i@j@k@'.+ + + + @ ",
"+ + + + + + l@m@n@o@p@q@r@J.# s@t@u@q v@w@x@y@z@0 A@B@C@D@E@F@G@H@..I@J@K@L@M@F+a.N@+ + + + + @ ",
"+ + + + + + + + g O@P@Q@R@S@T@U@V@W@j+X@Y@Z@`@ #0 j+.#Z@+#@#-.##m@$#%#&#*#=#H@  + + + + + + + @ ",
"+ + + + + + + + + q+-#;#>#,#'#)#!#~#} 0 {#]#^#/#0 j+(#_#:#<#j+[#}#|#1#2#3#4#5#+ + + + + + + + @ ",
"+ + + + + + + + + 6#7#8#9#0#a#b#c#d#e#f#g#h#i#` 0 j+0 <#-.-.j#k#l#m#n#o#p#n@  + + + + + + + + @ ",
"+ + + + + + + + + + q#r#s#t#j+u#v#w#` x#q y#y#` ` q z#e#-.I+A#B#C#D#E#F#G#H#+ + + + + + + + + @ ",
"+ + + + + + + + + + b.I#|.J#K#0#L#y+f#` f#y#q 0#` y#y#X@0 M#0 N#O#P#Q#R#S#%++ + + + + + + + + @ ",
"+ + + + + + + + + + + T#:+U#V#0#` ` f#q q y#0#0#q q 0#0#0 j+0 q y+W#F#X#5#+ + + + + + + + + + @ ",
"+ + + + + + + + + + + 6#Y#Z#n#`#y#q q q  $` f#X@0 ` q 0 j+j+0#g#.$+$@$#$$$+ + + + + + + + + + @ ",
"+ + + + + + + + + + + + I.%$&$*$=$M#-$0#` g#y+f#` X@` q 0 X@f#;$>$,$'$]++ + + + + + + + + + + @ ",
"+ + + + + + + + + + + + $$)$!$~${$X@0 j+0#g#0#f#f#` q ` ` f#]$^$/$($Z.b.+ + + + + + + + + + + @ ",
"+ + + + + + + + + + + + + _$:$<$[$0 0#0 0 0 0#}$0#0 0#X@y+]$Z+>$|$1$2$+ + + + + + + + + + + + @ ",
"+ + + + + + + + + + + + + 4.3$4$5$j+0 X@0 0 0#0 0 0#0#` f#g#| 6$7$8$v + + + + + + + + + + + + @ ",
"+ + + + + + + + + + + + + 9$0$a$b$A#j+0 } 0 q 0 0 0#0 q }$0 c$d$e$+.+ + + + + + + + + + + + + @ ",
"+ + + + + + + + + + + + + + f$g$h$i$j$k$k$i$l$m$n$k$j$n$o$o$n$p$q$3 + + + + + + + + + + + + + @ ",
"+ + + + + + + + + + + + +   r$s$t$u$v$w$x$y$z$A$A$B$C$D$A$E$F$G$H$I$+ + + + + + + + + + + + + @ ",
"+ + + + + + + + + + + + + J$K$$+L$~$M$N$O$P$Q$R$S$T$U$V$W$X$Y$Z$`$ %h + + + + + + + + + + + + @ ",
"+ + + + + + + + + + + + 9$.%+%@%N+#%$%%%%%%%&%*%=%=%*%8+-%;%>%,%'%)%'+!%+ + + + + + + + + + + @ ",
"+ + + + + + + + + + + + + m@~%z#y#g#y+z#c$r {%i.]%i.]%^%z+W#/%(%_%:%<%+ + + + + + + + + + + + @ ",
"+ + + + + + + + + + + # v [%}%|%1%.$2%3%4%5%G@6%7%8%8%'%8%9%##0%a%n@b%6## + + + + + + + + + + @ ",
"+ + + + + + + + + * c%d%e%f%g%h%i%j%k%l%m%n%n%n%n%n%o%p%p%n%q%r%s%t%f%u%v%w%3 + + + + + + + + @ ",
"+ + + + + + + + x%y%z%A%B%B%C%C%B%D%B%B%B%C%C%D%E%F%G%H%I%G%B%J%K%L%M%N%2%O%P%B + + + + + + + @ ",
"+ + + + + + + v Q%R%S%T%U%V%V%W%T%X%Y%T%U%W%T%Z%X%X%`%U% &U%.&+&@&#&$&-.e#8%%&&&+ + + + + + + @ ",
"+ + + + + + + C.*&=&h#-&;&-&h#O#O#>&,&'&O#)&'&!&~&>&{&~&]&^&/&(&_&A#q 0#3%f+:&<&[&+ + + + + + @ ",
"+ + + + + + + 5 }&` y+z#y+|&y+1&f#q }$q y#` 0 q g#].|&2&{%]$3&4&i.5&a 6&f+7&8&9&f + + + + + + @ ",
"+ + + + + + + 0&a&b&c&>.c&c&d&e&(%+$7&f&g&h&i&j& .[@k&/.l&m&n&n&m&m&m&n&n&m&o&p&q&+ + + + + + @ ",
"+ + + + + + + r&s&s&s&s&s&s&s&s&s&s&s&s&s&s&s&s&s&s&s&s&s&s&s&s&s&s&s&s&s&s&s&t&u&+ + + + + + @ ",
"+ + + + + + + + ................................................................+ + + + + + + @ ",
"v&v&v&v&v&v&v&v&v&v&v&v&v&v&v&v&v&v&v&v&v&v&v&v&v&v&v&v&v&v&v&v&v&v&v&v&v&v&v&v&v&v&v&v&v&v&v&w&"};
