/* XPM */
static char * red_queen_on_green_xpm[] = {
"46 48 802 2",
"  	c #71965C",
". 	c #72955C",
"+ 	c #75935A",
"@ 	c #798F58",
"# 	c #7C8C57",
"$ 	c #7E8B56",
"% 	c #7B8D57",
"& 	c #779059",
"* 	c #74945B",
"= 	c #73945B",
"- 	c #769159",
"; 	c #7D8B56",
"> 	c #7A8E58",
", 	c #75925A",
"' 	c #848553",
") 	c #8F7A4D",
"! 	c #97734A",
"~ 	c #997149",
"{ 	c #95754B",
"] 	c #8C7E4F",
"^ 	c #808955",
"/ 	c #779159",
"( 	c #898051",
"_ 	c #93774B",
": 	c #987149",
"< 	c #987249",
"[ 	c #92784C",
"} 	c #868352",
"| 	c #74935A",
"1 	c #8B7E50",
"2 	c #9C6E47",
"3 	c #A46542",
"4 	c #9C5F3E",
"5 	c #985D3D",
"6 	c #A06140",
"7 	c #A36744",
"8 	c #96734A",
"9 	c #858453",
"0 	c #7B8C57",
"a 	c #818754",
"b 	c #A16944",
"c 	c #A26341",
"d 	c #995D3D",
"e 	c #9A5E3D",
"f 	c #A36441",
"g 	c #9F6B46",
"h 	c #8F7B4E",
"i 	c #7E8A56",
"j 	c #789059",
"k 	c #898050",
"l 	c #9A5D3D",
"m 	c #643E27",
"n 	c #542A22",
"o 	c #632B27",
"p 	c #4C2C1C",
"q 	c #7E4E32",
"r 	c #A26241",
"s 	c #9A7048",
"t 	c #8D7D4F",
"u 	c #95754A",
"v 	c #A36643",
"w 	c #8A5436",
"x 	c #503220",
"y 	c #602B26",
"z 	c #5A2821",
"A 	c #593722",
"B 	c #93593A",
"C 	c #A26844",
"D 	c #8E7B4E",
"E 	c #7A8D57",
"F 	c #72955B",
"G 	c #73955B",
"H 	c #7F8955",
"I 	c #9E5F3E",
"J 	c #4F2D1F",
"K 	c #B9464D",
"L 	c #EF5C65",
"M 	c #F34C58",
"N 	c #E21C30",
"O 	c #7D0C13",
"P 	c #72462D",
"Q 	c #A56442",
"R 	c #A06A45",
"S 	c #A46643",
"T 	c #844F33",
"U 	c #682A2A",
"V 	c #D8525A",
"W 	c #F35760",
"X 	c #EF3243",
"Y 	c #C80D22",
"Z 	c #572016",
"` 	c #9D6D47",
" .	c #74935B",
"..	c #72965C",
"+.	c #74462D",
"@.	c #A94147",
"#.	c #FD646D",
"$.	c #FD515D",
"%.	c #FA1A33",
"&.	c #FA1331",
"*.	c #EB1029",
"=.	c #601712",
"-.	c #945A3B",
";.	c #A86341",
">.	c #A1603F",
",.	c #502C20",
"'.	c #DF565E",
").	c #FF616B",
"!.	c #FB3043",
"~.	c #FA132E",
"{.	c #C00C1F",
"].	c #5C3722",
"^.	c #A26542",
"/.	c #8C7D4F",
"(.	c #798E58",
"_.	c #7E8A55",
":.	c #828653",
"<.	c #828754",
"[.	c #8A7F50",
"}.	c #A16643",
"|.	c #4F2E1D",
"1.	c #D9535B",
"2.	c #FF646D",
"3.	c #FB3241",
"4.	c #F9132A",
"5.	c #F9132C",
"6.	c #F81330",
"7.	c #920816",
"8.	c #815134",
"9.	c #8F5839",
"0.	c #722829",
"a.	c #FA6069",
"b.	c #FE5560",
"c.	c #F9152C",
"d.	c #F91330",
"e.	c #E41029",
"f.	c #542619",
"g.	c #9F613F",
"h.	c #90794D",
"i.	c #7A8E57",
"j.	c #838654",
"k.	c #808855",
"l.	c #818854",
"m.	c #9E6C46",
"n.	c #9E6D47",
"o.	c #977349",
"p.	c #8B7E4F",
"q.	c #A16743",
"r.	c #512E1D",
"s.	c #D6454E",
"t.	c #FF636C",
"u.	c #FB3040",
"v.	c #F8122F",
"w.	c #900816",
"x.	c #835134",
"y.	c #A86241",
"z.	c #915739",
"A.	c #6D181B",
"B.	c #F9555F",
"C.	c #FE5760",
"D.	c #F9162D",
"E.	c #E21029",
"F.	c #532619",
"G.	c #91784C",
"H.	c #888151",
"I.	c #9B6F48",
"J.	c #788F59",
"K.	c #76925A",
"L.	c #838653",
"M.	c #A26643",
"N.	c #895436",
"O.	c #8E5838",
"P.	c #9F603F",
"Q.	c #94754B",
"R.	c #9F6B45",
"S.	c #7C492F",
"T.	c #9E0D1E",
"U.	c #F93647",
"V.	c #FA273D",
"W.	c #F9142B",
"X.	c #FA132F",
"Y.	c #E6112B",
"Z.	c #571C14",
"`.	c #985B3B",
" +	c #A66442",
".+	c #A3603F",
"++	c #512B1B",
"@+	c #D02332",
"#+	c #FD4654",
"$+	c #FA2639",
"%+	c #FA142D",
"&+	c #BA0B1F",
"*+	c #613824",
"=+	c #91784D",
"-+	c #A06B45",
";+	c #A16140",
">+	c #925A3A",
",+	c #855335",
"'+	c #995E3D",
")+	c #878251",
"!+	c #94764B",
"~+	c #A26441",
"{+	c #73462D",
"]+	c #5F2A27",
"^+	c #973A3E",
"/+	c #8C2D33",
"(+	c #522418",
"_+	c #875235",
":+	c #977249",
"<+	c #997148",
"[+	c #522D1C",
"}+	c #A50B1B",
"|+	c #E2112D",
"1+	c #F9132D",
"2+	c #E8112F",
"3+	c #631214",
"4+	c #7A5033",
"5+	c #A56542",
"6+	c #8B5638",
"7+	c #521E14",
"8+	c #D10F2A",
"9+	c #EB122F",
"0+	c #BA0C22",
"a+	c #542317",
"b+	c #975A3B",
"c+	c #9B6E47",
"d+	c #95744A",
"e+	c #935839",
"f+	c #522F20",
"g+	c #833336",
"h+	c #9C363C",
"i+	c #6B191C",
"j+	c #633C26",
"k+	c #868252",
"l+	c #7D4A2F",
"m+	c #833337",
"n+	c #ED5D65",
"o+	c #FF5F69",
"p+	c #FB3447",
"q+	c #D91026",
"r+	c #5B1812",
"s+	c #92774C",
"t+	c #9D6E47",
"u+	c #9C5E3D",
"v+	c #5F452B",
"w+	c #741C22",
"x+	c #F91334",
"y+	c #F01031",
"z+	c #501E15",
"A+	c #93613E",
"B+	c #A16642",
"C+	c #4A3221",
"D+	c #D9263A",
"E+	c #FB1333",
"F+	c #AB0C23",
"G+	c #483922",
"H+	c #945C3C",
"I+	c #92774B",
"J+	c #9A6F48",
"K+	c #9D5E3D",
"L+	c #502B20",
"M+	c #CB4F55",
"N+	c #FC5A64",
"O+	c #FD3347",
"P+	c #F11631",
"Q+	c #9E0918",
"R+	c #6B4129",
"S+	c #8E7C4E",
"T+	c #788F58",
"U+	c #8D7C4E",
"V+	c #A06441",
"W+	c #543121",
"X+	c #E1585F",
"Y+	c #FF656D",
"Z+	c #FB3746",
"`+	c #BC0B1E",
" @	c #694029",
".@	c #A56543",
"+@	c #7A5335",
"@@	c #B0464B",
"#@	c #FB3347",
"$@	c #F81235",
"%@	c #8D0B18",
"&@	c #805134",
"*@	c #A46743",
"=@	c #A16945",
"-@	c #692B2A",
";@	c #F83146",
">@	c #FB1336",
",@	c #C10B27",
"'@	c #5A3F27",
")@	c #9F6C46",
"!@	c #834D32",
"~@	c #9B3C40",
"{@	c #FD626B",
"]@	c #FB3545",
"^@	c #FA1332",
"/@	c #EC112B",
"(@	c #5E1813",
"_@	c #9A5C3C",
":@	c #8F7B4D",
"<@	c #9C603F",
"[@	c #5B2D25",
"}@	c #F05E66",
"|@	c #FE5F68",
"1@	c #F91E33",
"2@	c #DA1026",
"3@	c #52311F",
"4@	c #90784D",
"5@	c #A46543",
"6@	c #5F3B25",
"7@	c #C85258",
"8@	c #FC3C4B",
"9@	c #FA1334",
"0@	c #CB0E27",
"a@	c #593A24",
"b@	c #A36743",
"c@	c #71482E",
"d@	c #AA3F45",
"e@	c #FA2840",
"f@	c #FA1333",
"g@	c #D80E2C",
"h@	c #492E1C",
"i@	c #78482E",
"j@	c #BB464C",
"k@	c #FE6069",
"l@	c #FA1732",
"m@	c #F6122E",
"n@	c #740A12",
"o@	c #925638",
"p@	c #76915A",
"q@	c #A06642",
"r@	c #56301F",
"s@	c #DC4852",
"t@	c #FF626B",
"u@	c #F91231",
"v@	c #A80B1E",
"w@	c #714B30",
"x@	c #93764B",
"y@	c #96744A",
"z@	c #A36341",
"A@	c #47291C",
"B@	c #DD5D62",
"C@	c #FB3947",
"D@	c #FA142E",
"E@	c #F0102E",
"F@	c #5D1B14",
"G@	c #945E3D",
"H@	c #A76341",
"I@	c #A16541",
"J@	c #4D3021",
"K@	c #E2535B",
"L@	c #FA1B34",
"M@	c #ED1032",
"N@	c #562317",
"O@	c #9B5F3E",
"P@	c #865336",
"Q@	c #802529",
"R@	c #FA545E",
"S@	c #FA2437",
"T@	c #F9132B",
"U@	c #EA102A",
"V@	c #5A1A14",
"W@	c #9B5D3D",
"X@	c #828654",
"Y@	c #9C6F47",
"Z@	c #721219",
"`@	c #EC2F3F",
" #	c #F9253D",
".#	c #F9132E",
"+#	c #F11130",
"@#	c #591113",
"##	c #815E3C",
"$#	c #9F6A45",
"%#	c #9D5F3E",
"&#	c #4F2922",
"*#	c #F3666C",
"=#	c #FB3442",
"-#	c #FA142B",
";#	c #F91331",
">#	c #950919",
",#	c #725737",
"'#	c #81603D",
")#	c #763232",
"!#	c #F95660",
"~#	c #FA182D",
"{#	c #FA142C",
"]#	c #F81233",
"^#	c #891118",
"/#	c #8F593A",
"(#	c #8F6440",
"_#	c #401B13",
":#	c #E21733",
"<#	c #FA1531",
"[#	c #F2112D",
"}#	c #910A18",
"|#	c #72422A",
"1#	c #A06944",
"2#	c #9F6843",
"3#	c #7A472E",
"4#	c #551A13",
"5#	c #8D0C1B",
"6#	c #F01534",
"7#	c #FA1234",
"8#	c #CC0E29",
"9#	c #4A2919",
"0#	c #955E3D",
"a#	c #A76342",
"b#	c #8C593A",
"c#	c #883B3C",
"d#	c #FB686D",
"e#	c #FB303F",
"f#	c #D10F27",
"g#	c #494429",
"h#	c #877F50",
"i#	c #595534",
"j#	c #B3484D",
"k#	c #FC4F5B",
"l#	c #FA152B",
"m#	c #FB1332",
"n#	c #AC091F",
"o#	c #754C30",
"p#	c #A76442",
"q#	c #9E6140",
"r#	c #543925",
"s#	c #B22633",
"t#	c #F91335",
"u#	c #F31230",
"v#	c #9E0B1F",
"w#	c #5F1412",
"x#	c #6C3E28",
"y#	c #9E6240",
"z#	c #975C3C",
"A#	c #5A3C26",
"B#	c #C43741",
"C#	c #FB1E3C",
"D#	c #FA1336",
"E#	c #C00D24",
"F#	c #4F301E",
"G#	c #946541",
"H#	c #705435",
"I#	c #B34A4E",
"J#	c #FE676D",
"K#	c #FB2B3B",
"L#	c #F1112E",
"M#	c #651B16",
"N#	c #697B4C",
"O#	c #443C28",
"P#	c #E75F65",
"Q#	c #FC4652",
"R#	c #FB1330",
"S#	c #C70C26",
"T#	c #513F26",
"U#	c #9C6D46",
"V#	c #9B6843",
"W#	c #5D3E27",
"X#	c #A44247",
"Y#	c #F93B4E",
"Z#	c #DC0E27",
"`#	c #442B1A",
" $	c #905A3A",
".$	c #803234",
"+$	c #FA4D59",
"@$	c #FA1534",
"#$	c #F81234",
"$$	c #B00B21",
"%$	c #4F4128",
"&$	c #837A4C",
"*$	c #48452A",
"=$	c #CD565B",
"-$	c #FE656B",
";$	c #FB2639",
">$	c #FA1330",
",$	c #9E071F",
"'$	c #374B2D",
")$	c #84393B",
"!$	c #FA656C",
"~$	c #FC3B47",
"{$	c #DE0F2D",
"]$	c #3F3A23",
"^$	c #827C4E",
"/$	c #5B5031",
"($	c #953F42",
"_$	c #F85F67",
":$	c #FB2039",
"<$	c #A40917",
"[$	c #774B30",
"}$	c #A56643",
"|$	c #7C8C56",
"1$	c #9F6140",
"2$	c #4D291E",
"3$	c #E65A61",
"4$	c #FC3D4C",
"5$	c #F71134",
"6$	c #A1091F",
"7$	c #465031",
"8$	c #303220",
"9$	c #E35E64",
"0$	c #FE6268",
"a$	c #FB2137",
"b$	c #D70F28",
"c$	c #1F0504",
"d$	c #BA4D51",
"e$	c #FE6369",
"f$	c #FB2E3E",
"g$	c #EF1131",
"h$	c #60281E",
"i$	c #4A5835",
"j$	c #823A3C",
"k$	c #F4676D",
"l$	c #FD4955",
"m$	c #FA1430",
"n$	c #ED0F2B",
"o$	c #5D1611",
"p$	c #955A3B",
"q$	c #72442B",
"r$	c #B6494D",
"s$	c #FE6269",
"t$	c #FB2A3D",
"u$	c #F51232",
"v$	c #930B1C",
"w$	c #532425",
"x$	c #F46267",
"y$	c #FE6066",
"z$	c #F41229",
"A$	c #7F1A1F",
"B$	c #EA5D62",
"C$	c #FE5E64",
"D$	c #FB1F35",
"E$	c #F9142E",
"F$	c #8E0B1A",
"G$	c #733134",
"H$	c #EE646A",
"I$	c #FB2439",
"J$	c #F8122D",
"K$	c #CC0B1F",
"L$	c #563420",
"M$	c #A36442",
"N$	c #925839",
"O$	c #682B2B",
"P$	c #F8666C",
"Q$	c #FD5860",
"R$	c #FA1D33",
"S$	c #FA132D",
"T$	c #F0112D",
"U$	c #BE202D",
"V$	c #FA4954",
"W$	c #FC3846",
"X$	c #FA152C",
"Y$	c #DC192B",
"Z$	c #FA404B",
"`$	c #FB142B",
" %	c #CC1828",
".%	c #E85C62",
"+%	c #FE666C",
"@%	c #FD5059",
"#%	c #FA152E",
"$%	c #F30F29",
"%%	c #930B14",
"&%	c #824F33",
"*%	c #858352",
"=%	c #75935B",
"-%	c #907A4D",
";%	c #553121",
">%	c #DA585E",
",%	c #FD4A54",
"'%	c #FA132B",
")%	c #FC3F4C",
"!%	c #FD4C56",
"~%	c #FB2338",
"{%	c #F7112A",
"]%	c #E40C24",
"^%	c #4C1C12",
"/%	c #9B5E3D",
"(%	c #7B492F",
"_%	c #A64246",
":%	c #FE696F",
"<%	c #FE646A",
"[%	c #FC3A47",
"}%	c #FA132C",
"|%	c #F8122B",
"1%	c #F40E27",
"2%	c #BF0A1B",
"3%	c #633C25",
"4%	c #995D3C",
"5%	c #5B2725",
"6%	c #F1646A",
"7%	c #FE676C",
"8%	c #FE5E65",
"9%	c #FB263A",
"0%	c #F51026",
"a%	c #F10D26",
"b%	c #7E0D11",
"c%	c #8A5336",
"d%	c #A26442",
"e%	c #5D3724",
"f%	c #D3565B",
"g%	c #FF696E",
"h%	c #FE666B",
"i%	c #FD525B",
"j%	c #FA1A32",
"k%	c #FB142C",
"l%	c #F71129",
"m%	c #F30E24",
"n%	c #DB0C22",
"o%	c #4A2316",
"p%	c #A0613F",
"q%	c #845033",
"r%	c #913B3D",
"s%	c #FD696F",
"t%	c #FC424E",
"u%	c #FB132D",
"v%	c #F7122B",
"w%	c #F30E23",
"x%	c #F40D25",
"y%	c #B60919",
"z%	c #6E422A",
"A%	c #A26743",
"B%	c #552921",
"C%	c #EA6167",
"D%	c #FB3242",
"E%	c #F8122A",
"F%	c #F30F24",
"G%	c #F20E22",
"H%	c #ED0D26",
"I%	c #681010",
"J%	c #92593A",
"K%	c #C95257",
"L%	c #FF696F",
"M%	c #FE5C62",
"N%	c #FB2135",
"O%	c #F81228",
"P%	c #F30F23",
"Q%	c #F30D24",
"R%	c #D40B20",
"S%	c #8F5638",
"T%	c #7D3234",
"U%	c #FA686E",
"V%	c #FE656A",
"W%	c #FC3642",
"X%	c #FA142A",
"Y%	c #F61126",
"Z%	c #F30E22",
"`%	c #F40D26",
" &	c #A60916",
".&	c #77492E",
"+&	c #A0603F",
"@&	c #4F2C1F",
"#&	c #E55E64",
"$&	c #FE686E",
"%&	c #FD545D",
"&&	c #FB1C32",
"*&	c #F40F23",
"=&	c #F20E21",
"-&	c #F20D23",
";&	c #E70C25",
">&	c #591711",
",&	c #995F3E",
"'&	c #684A2E",
")&	c #B84B50",
"!&	c #FE656C",
"~&	c #FB4A54",
"{&	c #F61B31",
"]&	c #F21329",
"^&	c #EF1228",
"/&	c #EC1228",
"(&	c #E71127",
"_&	c #E41126",
":&	c #E31125",
"<&	c #E11025",
"[&	c #E21025",
"}&	c #E21124",
"|&	c #E20F21",
"1&	c #E30D1F",
"2&	c #E70E1F",
"3&	c #EA0E20",
"4&	c #EE0E21",
"5&	c #F10E22",
"6&	c #F30D23",
"7&	c #CC0A21",
"8&	c #523B24",
"9&	c #7B8E57",
"0&	c #9F6542",
"a&	c #725F3B",
"b&	c #5A2426",
"c&	c #A5333A",
"d&	c #8C111D",
"e&	c #74171D",
"f&	c #671D20",
"g&	c #611E21",
"h&	c #621F22",
"i&	c #652123",
"j&	c #692325",
"k&	c #6B2225",
"l&	c #6D2325",
"m&	c #6C2326",
"n&	c #662123",
"o&	c #622022",
"p&	c #651C1F",
"q&	c #70181C",
"r&	c #831017",
"s&	c #9E0B17",
"t&	c #770512",
"u&	c #594E30",
"v&	c #996743",
"w&	c #92784D",
"x&	c #955A3A",
"y&	c #573825",
"z&	c #753334",
"A&	c #B14A4F",
"B&	c #CE5056",
"C&	c #DC575C",
"D&	c #E95E63",
"E&	c #F26165",
"F&	c #F76166",
"G&	c #FA6167",
"H&	c #FB6167",
"I&	c #FC6167",
"J&	c #FB6166",
"K&	c #F86166",
"L&	c #F46166",
"M&	c #EC5F64",
"N&	c #DE585E",
"O&	c #D25357",
"P&	c #B94A50",
"Q&	c #823538",
"R&	c #533123",
"S&	c #9D5E3E",
"T&	c #C75257",
"U&	c #F9686D",
"V&	c #FF676D",
"W&	c #FF646A",
"X&	c #FF6369",
"Y&	c #FF6469",
"Z&	c #FF656A",
"`&	c #FF666B",
" *	c #FE676B",
".*	c #FF676C",
"+*	c #FC686E",
"@*	c #D75459",
"#*	c #5A201C",
"$*	c #935739",
"%*	c #848453",
"&*	c #7D4A30",
"**	c #A44347",
"=*	c #FE676E",
"-*	c #FE666A",
";*	c #FE6569",
">*	c #FE6469",
",*	c #FF6269",
"'*	c #FF6569",
")*	c #FE6368",
"!*	c #FE5F65",
"~*	c #FD4352",
"{*	c #BF1224",
"]*	c #663C26",
"^*	c #633B26",
"/*	c #D05158",
"(*	c #FE5C66",
"_*	c #FC3C4A",
":*	c #FB2F41",
"<*	c #FB2F40",
"[*	c #FB2F3F",
"}*	c #FB2E3F",
"|*	c #FB2D3E",
"1*	c #FB293A",
"2*	c #FA2235",
"3*	c #FA172E",
"4*	c #4A2518",
"5*	c #A16341",
"6*	c #A36542",
"7*	c #5B3624",
"8*	c #D84A54",
"9*	c #FB2A41",
"0*	c #ED112B",
"a*	c #461C13",
"b*	c #9E603F",
"c*	c #593322",
"d*	c #D83642",
"e*	c #F8122E",
"f*	c #F91232",
"g*	c #EE1128",
"h*	c #481A12",
"i*	c #9D603E",
"j*	c #878252",
"k*	c #9D6944",
"l*	c #55311E",
"m*	c #5B1718",
"n*	c #670F10",
"o*	c #670F11",
"p*	c #630E10",
"q*	c #3A1D12",
"r*	c #9C6240",
"s*	c #935F3D",
"t*	c #915638",
"u*	c #925538",
"v*	c #915A3B",
"w*	c #967249",
"x*	c #93774C",
"y*	c #8D7C4F",
"z*	c #71955C",
"A*	c #A5B88F",
"                                                                                            ",
"                                                                                            ",
"                                                                                            ",
"                                . . .               . . . .                                 ",
"                          . + @ # $ % & * .     = - % ; ; > , =                             ",
"                        = @ ' ) ! ~ { ] ^ / = , ; ( _ : < [ } % | .                         ",
"                      = % 1 2 3 4 5 6 7 8 9 0 a [ b c d e f g h i |                         ",
"                    . j k g l m n o p q r s t u v w x y z A B C D E F                       ",
"                    G H < I J K L M N O P Q R S T U V W X Y Z B ` '  .                      ",
"        . . F F . .. .} R +.@.#.$.%.&.*.=.-.;.>.,.'.).!.~.&.{.].^././ . . F F F .           ",
"    .  .(._.:.<.i j & [.}.|.1.2.3.4.5.6.7.8.;.9.0.a.b.c.4.d.e.f.g.h.i./ # a j.k.E , .       ",
"  F - l.D ~ m.n.o.p.<./.q.r.s.t.u.4.5.v.w.x.y.z.A.B.C.D.4.d.E.F.g.G.<.H.{ 2 m.I.G.' J.=     ",
"..K.L.8 M.4 N.O.P.C Q.h.R.S.T.U.V.W.X.Y.Z.`. +.+++@+#+$+%+&.&+*+}.G.=+-+;+>+,+'+f I.)+j .   ",
"= ; !+~+{+]+^+/+(+_+v :+<+P.[+}+|+1+2+3+4+5+2 C 6+7+8+~.9+0+a+b+c+d+b e+f+g+h+i+j+P.s <.|   ",
", k+-+l+m+n+o+p+q+r+e+g s+t+u+v+w+x+y+z+A+C Q.m.B+C+D+E+F+G+H+R I+J+K+L+M+N+O+P+Q+R+M.S+T+..",
"/ U+V+W+X+Y+Z+1+&.`+ @7 ) s+.@+@@@#@$@%@&@*@: =@9.-@;@>@,@'@5+< D )@!@~@{@]@5.^@/@(@_@{ # . ",
"& :@<@[@}@|@1@4.&.2@3@v ) 4@5@6@7@8@9@0@a@Q b@ +c@d@e@f@g@h@f 8 U+R i@j@k@l@4.~.m@n@o@o.; F ",
"p@1 q@r@s@t@$+4.u@v@w@S x@y@z@A@B@C@D@E@F@G@H@I@J@K@L@X.M@N@O@I.G.b P@Q@R@S@T@^@U@V@W@s+E . ",
" .X@Y@!@Z@`@ #.#+#@###5+m.$#%#&#*#=#-#;#>#,#2 '#)#!#~#{#]#^#/#C c+5+(#_#:#<#u@[#}#|#1#H.-   ",
"F (./.2#3#4#5#6#7#8#9#0# +a#b#c#d#e#-#D@f#g#h#i#j#k#l#-#m#n#o#p# +q#r#s#t#u#v#w#x#y#[ ; =   ",
"  * # U+R z#A#B#C#D#E#F#G#m.H#I#J#K#-#{#L#M#N#O#P#Q#-#-#R#S#T#U#V#W#X#Y#D#Z#`# $M.[ k.,     ",
"     .% /.b N..$+$@$#$$$%$&$*$=$-$;$-#-#>$,$'$)$!$~$-#-#D@{$]$^$/$($_$:$]#<$[$}$[ i , .     ",
"      = |$!+1$2$3$4$>$5$6$7$8$9$0$a$-#-#{#b$c$d$e$f$-#-#{#g$h$i$j$k$l$m$n$o$p$I.a  .        ",
"        K.H.C q$r$s$t$~.u$v$w$x$y$L@-#-#-#z$A$B$C$D$-#-#-#E$F$G$H$s$I$J$K$L$M$) @           ",
"        G ^ s N$O$P$Q$R$S$T$U$V$W$X$-#-#-#-#Y$Z$3.X$-#-#-#`$ %.%+%@%#%$%%%&%R *%=%          ",
"        ..@ -%c ;%>%J#,%X.X.5.'%-#-#-#`$`$`$`$`$`$`$`$`$-#-#%+)%!%~%{%]%^%/%! ; .           ",
"           .} R (%_%:%<%[%~.}%-#-#`$`$`$`$`$`$`$`$`$`$`$`$-#{#X.D@|%1%2%3%v t &             ",
"          F i < 4%5%6%7%8%9%S$-#-#`$`$`$`$`$`$`$`$`$`$`$`$`${#X.S$0%a%b%c%m.' *             ",
"            j S+d%e%f%g%h%i%j%-#-#`$`$`$`$`$`$`$`$`$`$`$`$`$k%~.l%m%n%o%p%{ # .             ",
"             .' g q%r%s%+%h%t%X$-#`$`$`$`$`$`$`$`$`$`$`$`$`$u%v%w%x%y%z%A%[.p@              ",
"            . # y@%#B%C%J#7%e$D%-#`$`$`$`$`$`$`$`$`$`$`$`$`$E%F%G%H%I%J%2 a =               ",
"              - p.M.j+K%L%7%7%M%N%`$`$`$`$`$`$`$`$`$`$`$-#O%P%G%Q%R%[+r s+> .               ",
"              = <.2 S%T%U%7%7%V%W%`$`$`$`$`$`$`$`$`$`$X%Y%Z%G%G%`% &.&C H.,                 ",
"              F # { +&@&#&$&7%%&&&`$`$`$`$`$`$`$`$X%O%*&=&=&G%-&;&>&,&2 a =                 ",
"              * i y@Q '&)&!&~&{&]&^&/&(&_&:&<&[&}&|&1&2&3&4&5&6&7&8&^.2 L.+ .               ",
"            F 9&/.b 0&a&b&c&d&e&f&g&h&i&j&k&l&m&j&n&o&g&p&q&r&s&t&u&v&S w&$  .              ",
"            & H.m.x&y&z&A&B&C&D&E&F&G&H&H&I&I&I&I&J&G&K&L&M&N&O&P&Q&R&w C U+> .             ",
"          . i y@S&L+T&U&V&h%h%7%h%V%W&W&X&X&X&X&X&Y&W&Z&`&7% * *.*+*@*#*$*2 <.=             ",
"          * %*R.&***=*7%V%V%h%h%h%-*;*>*e$,*,*,*X&Y&'*V%h%h%V%)*!*Q$~*{*]*A%[.K.            ",
"          + k A%^*/*(*_*:*<*:*:*:*:*<*[*}*}*}*}*}*[*[*<*<*<*|*1*2*3*>$e.4*5*) j             ",
"          K.] 6*7*8*9*}%-#-#-#{#}%}%}%{#-#-#-#-#-#-#}%}%}%{#-#-#-#{#^@0*a*b*[ @             ",
"          K.p.^.c*d*e*f*u@u@u@u@f*f*f*f*f*u@u@u@f*f*f*f*f*f*u@u@u@f*v.g*h*i*=+@             ",
"          + j*k*l*m*n*o*o*o*o*o*o*o*o*o*o*o*o*o*o*o*o*o*o*o*o*o*o*o*o*p*q*r*/.j             ",
"          = i s+s*t*o@u*u*u*u*u*u*u*u*u*u*u*u*u*u*u*u*u*u*u*u*u*u*u*o@t*v*w*X@+             ",
"          . - k.1 [ Q.Q.Q.Q.Q.Q.Q.Q.Q.Q.Q.Q.Q.Q.Q.Q.Q.Q.Q.Q.Q.Q.Q.Q.Q.x*y*X@j F             ",
"            . | & @ i.E E E E E E E E E E E E E E E E E E E E E E E E > j , G               ",
"                      z*z*z*z*z*z*z*z*z*z*z*z*z*z*z*z*z*z*z*z*z*z*z*                        ",
"A*A*A*A*A*A*A*A*A*A*A*A*A*A*A*A*A*A*A*A*A*A*A*A*A*A*A*A*A*A*A*A*A*A*A*A*A*A*A*A*A*A*A*A*A*A*"};
