/* XPM */
static char * red_queen_on_white_xpm[] = {
"46 48 795 2",
"  	c #EDEDD2",
". 	c #DDE1C3",
"+ 	c #EFEED4",
"@ 	c #DEE2C4",
"# 	c #EFECD3",
"$ 	c #EFEAD1",
"% 	c #F0E8CF",
"& 	c #F0E7CE",
"* 	c #EFEDD3",
"= 	c #EFEBD2",
"- 	c #F0E9D0",
"; 	c #EFECD2",
"> 	c #F1DFC8",
", 	c #F3D3BE",
"' 	c #F4CAB6",
") 	c #F5C7B3",
"! 	c #F4CDB8",
"~ 	c #F2D7C1",
"{ 	c #F1E3CB",
"] 	c #F0E5CD",
"^ 	c #F2DAC4",
"/ 	c #F3CFBA",
"( 	c #F4C8B4",
"_ 	c #F4C8B5",
": 	c #F3D1BC",
"< 	c #F1DDC5",
"[ 	c #F0E6CD",
"} 	c #F2D6C0",
"| 	c #F6BFAD",
"1 	c #F8AD9D",
"2 	c #FAA496",
"3 	c #FAA395",
"4 	c #F9A698",
"5 	c #F7B2A1",
"6 	c #F5C7B4",
"7 	c #F2DCC5",
"8 	c #F1E0C8",
"9 	c #F7B6A5",
"0 	c #F9A799",
"a 	c #FAA396",
"b 	c #F9A99B",
"c 	c #F6BAA9",
"d 	c #F0E3CB",
"e 	c #EFEDD4",
"f 	c #F3D5BF",
"g 	c #F7B7A6",
"h 	c #F9A193",
"i 	c #DA8C80",
"j 	c #A86E63",
"k 	c #99655C",
"l 	c #BA7A6F",
"m 	c #ED988B",
"n 	c #F5C0AE",
"o 	c #F3D2BD",
"p 	c #F8AC9C",
"q 	c #F39B8E",
"r 	c #C58075",
"s 	c #9C675D",
"t 	c #A16A60",
"u 	c #CF867A",
"v 	c #F79E91",
"w 	c #F8B0A0",
"x 	c #F6BEAC",
"y 	c #F8A092",
"z 	c #AD6F65",
"A 	c #7A3839",
"B 	c #BA4A52",
"C 	c #C84D56",
"D 	c #A9202E",
"E 	c #6D403A",
"F 	c #DA8B7F",
"G 	c #F9A597",
"H 	c #F7B4A4",
"I 	c #F9AA9B",
"J 	c #E89387",
"K 	c #7E5049",
"L 	c #973C41",
"M 	c #C54E57",
"N 	c #C13945",
"O 	c #891C23",
"P 	c #956057",
"Q 	c #F2D9C3",
"R 	c #F0EBD1",
"S 	c #EFEBD1",
"T 	c #F2D4BE",
"U 	c #F8AD9E",
"V 	c #D2867A",
"W 	c #7F383A",
"X 	c #F2646F",
"Y 	c #FF6673",
"Z 	c #FF3952",
"` 	c #FE1F40",
" .	c #D2152C",
"..	c #744640",
"+.	c #EF978B",
"@.	c #FA9F92",
"#.	c #F99D91",
"$.	c #915D54",
"%.	c #B64A51",
"&.	c #FC6874",
"*.	c #FF5263",
"=.	c #FF2344",
"-.	c #F81C3B",
";.	c #9C1321",
">.	c #B07167",
",.	c #F4CBB7",
"'.	c #F0E6CE",
").	c #F0EAD1",
"!.	c #F0E8CE",
"~.	c #F4CCB8",
"{.	c #F8A497",
"].	c #89554D",
"^.	c #CF545D",
"/.	c #FF6C78",
"(.	c #FF4456",
"_.	c #FF1F3A",
":.	c #FF1F3D",
"<.	c #FC1C3D",
"[.	c #8B101C",
"}.	c #D0877B",
"|.	c #FA9C90",
"1.	c #E29084",
"2.	c #6E3534",
"3.	c #F76671",
"4.	c #FF6270",
"5.	c #FF223F",
"6.	c #FF1E40",
"7.	c #E21832",
"8.	c #764741",
"9.	c #F39C8F",
"0.	c #F5C2B0",
"a.	c #F0E4CC",
"b.	c #F1E4CB",
"c.	c #F1E5CC",
"d.	c #F1E2CA",
"e.	c #F5C6B3",
"f.	c #F4C9B5",
"g.	c #F2D7C0",
"h.	c #F1DEC6",
"i.	c #F6A294",
"j.	c #754741",
"k.	c #E05761",
"l.	c #FF6B77",
"m.	c #FF364B",
"n.	c #FF1F3B",
"o.	c #FF1E3F",
"p.	c #9F0C1E",
"q.	c #C37F73",
"r.	c #FA9D90",
"s.	c #D7897E",
"t.	c #7E282C",
"u.	c #FA6470",
"v.	c #FF5C69",
"w.	c #FF213B",
"x.	c #EC1A38",
"y.	c #713B36",
"z.	c #EF998C",
"A.	c #F5BFAD",
"B.	c #F1DCC5",
"C.	c #F2DAC3",
"D.	c #F6C0AE",
"E.	c #F5C3B0",
"F.	c #F3D0BB",
"G.	c #F1DFC7",
"H.	c #F0E9CF",
"I.	c #F8AE9F",
"J.	c #FAA295",
"K.	c #F59D90",
"L.	c #F7B2A2",
"M.	c #F4C7B4",
"N.	c #F5C4B1",
"O.	c #975E55",
"P.	c #C52C3D",
"Q.	c #FF5B6B",
"R.	c #FF3C50",
"S.	c #F91C3C",
"T.	c #7D171D",
"U.	c #D6887C",
"V.	c #E89185",
"W.	c #692F2D",
"X.	c #F24455",
"Y.	c #FF5F6C",
"Z.	c #FF2A43",
"`.	c #DB1730",
" +	c #7C4B44",
".+	c #F49E91",
"++	c #F6BFAC",
"@+	c #F6B8A7",
"#+	c #F79E92",
"$+	c #F29A8D",
"%+	c #F9A194",
"&+	c #F9A89A",
"*+	c #E18E82",
"=+	c #A1685E",
"-+	c #804F49",
";+	c #84544D",
">+	c #EF988B",
",+	c #F8AA9C",
"'+	c #DE8C80",
")+	c #702727",
"!+	c #E41835",
"~+	c #FF1D41",
"{+	c #F91D3E",
"]+	c #B4132A",
"^+	c #8B5A51",
"/+	c #F49B8E",
"(+	c #FAA093",
"_+	c #A96C62",
":+	c #941523",
"<+	c #F32A45",
"[+	c #FF2843",
"}+	c #FF1F40",
"|+	c #EF1A3A",
"1+	c #861922",
"2+	c #C2796F",
"3+	c #F9A99A",
"4+	c #F6BCAA",
"5+	c #F8B1A0",
"6+	c #F49B8F",
"7+	c #BF796E",
"8+	c #8A5A52",
"9+	c #7C4C47",
"0+	c #966259",
"a+	c #D5877B",
"b+	c #F8A295",
"c+	c #F1DDC6",
"d+	c #6F3E3A",
"e+	c #C04D56",
"f+	c #EB616C",
"g+	c #E74756",
"h+	c #A51124",
"i+	c #84534C",
"j+	c #F8AF9F",
"k+	c #F6B9A7",
"l+	c #F8A597",
"m+	c #C47C71",
"n+	c #70403A",
"o+	c #9E1528",
"p+	c #FD1D3F",
"q+	c #EC193C",
"r+	c #50352F",
"s+	c #E3998C",
"t+	c #F9A496",
"u+	c #F39F92",
"v+	c #6F5149",
"w+	c #CB2039",
"x+	c #C61732",
"y+	c #733331",
"z+	c #AE7066",
"A+	c #F6A092",
"B+	c #F69E91",
"C+	c #A2675D",
"D+	c #8C383D",
"E+	c #E15B65",
"F+	c #EC4A5A",
"G+	c #D01F36",
"H+	c #6C2424",
"I+	c #CD8277",
"J+	c #F9A899",
"K+	c #F4CCB7",
"L+	c #F4C9B4",
"M+	c #F8A395",
"N+	c #935C54",
"O+	c #C55059",
"P+	c #FF6D78",
"Q+	c #FF5564",
"R+	c #FF2343",
"S+	c #FC1D3C",
"T+	c #9C111F",
"U+	c #BF796F",
"V+	c #F9A092",
"W+	c #C48A7D",
"X+	c #A23E45",
"Y+	c #FE2C4B",
"Z+	c #F91B41",
"`+	c #7B1E22",
" @	c #D58D81",
".@	c #F7B9A8",
"+@	c #F8AB9C",
"@@	c #EA988B",
"#@	c #663B37",
"$@	c #F53850",
"%@	c #FF1E44",
"&@	c #BA102F",
"*@	c #9B7064",
"=@	c #F5C1AF",
"-@	c #D5867A",
";@	c #793437",
">@	c #F86671",
",@	c #FF5062",
"'@	c #FF2141",
")@	c #FF1E41",
"!@	c #DF1832",
"~@	c #76453E",
"{@	c #F09A8D",
"]@	c #F6BDAB",
"^@	c #F1E0C9",
"/@	c #EE9A8D",
"(@	c #73423E",
"_@	c #F0646E",
":@	c #FF6975",
"<@	c #FF2C46",
"[@	c #DD1831",
"}@	c #84544C",
"|@	c #F9A395",
"1@	c #F5C2AF",
"2@	c #A97166",
"3@	c #C1545A",
"4@	c #FF4459",
"5@	c #B6122A",
"6@	c #A86F65",
"7@	c #FAA194",
"8@	c #F9A295",
"9@	c #C47E73",
"0@	c #943B40",
"a@	c #FD3550",
"b@	c #D31534",
"c@	c #7D544B",
"d@	c #F89F92",
"e@	c #F5C5B2",
"f@	c #F8A99B",
"g@	c #B9746A",
"h@	c #BA4A51",
"i@	c #FF6874",
"j@	c #FF2A45",
"k@	c #FC1D3D",
"l@	c #77131A",
"m@	c #DD8B7F",
"n@	c #F5C5B1",
"o@	c #F09C8E",
"p@	c #74433E",
"q@	c #EE5F6A",
"r@	c #FF2942",
"s@	c #D0162F",
"t@	c #905E55",
"u@	c #794D46",
"v@	c #D65E65",
"w@	c #FF4356",
"x@	c #FF1F41",
"y@	c #EB1939",
"z@	c #71443E",
"A@	c #FA9E91",
"B@	c #8D5E55",
"C@	c #CD515A",
"D@	c #FF2A48",
"E@	c #EC183C",
"F@	c #6C433D",
"G@	c #F29B8E",
"H@	c #BD786E",
"I@	c #AD3D45",
"J@	c #FE6672",
"K@	c #FF2542",
"L@	c #F91D3C",
"M@	c #74171D",
"N@	c #E08D81",
"O@	c #F6B9A8",
"P@	c #A2645B",
"Q@	c #B22C3A",
"R@	c #FD5967",
"S@	c #FF364D",
"T@	c #FA1C3E",
"U@	c #7C1B22",
"V@	c #D09285",
"W@	c #613B36",
"X@	c #EC6770",
"Y@	c #FF3F51",
"Z@	c #FF203C",
"`@	c #84151D",
" #	c #D19284",
".#	c #E49C8E",
"+#	c #6B3B39",
"@#	c #F75E6A",
"##	c #FF243F",
"$#	c #F81C41",
"%#	c #80292A",
"&#	c #E29185",
"*#	c #E29A8C",
"=#	c #5C2B2A",
"-#	c #F13B50",
";#	c #FF2A44",
">#	c #FF1E3D",
",#	c #CC152D",
"'#	c #824D47",
")#	c #F39E91",
"!#	c #F6BBAA",
"~#	c #E89588",
"{#	c #74443E",
"]#	c #AE1425",
"^#	c #DC1839",
"/#	c #FE1D40",
"(#	c #FC1C40",
"_#	c #9B1326",
":#	c #A3766B",
"<#	c #F59E91",
"[#	c #E19185",
"}#	c #773D3C",
"|#	c #FA6F77",
"1#	c #FF3B4E",
"2#	c #FF203B",
"3#	c #BD122B",
"4#	c #9D7E70",
"5#	c #BB9485",
"6#	c #9F4247",
"7#	c #FD5A68",
"8#	c #FF223C",
"9#	c #FF1E42",
"0#	c #A41024",
"a#	c #CB857A",
"b#	c #F89E91",
"c#	c #BC8578",
"d#	c #7A2229",
"e#	c #F41D41",
"f#	c #FE1E40",
"g#	c #E3183A",
"h#	c #B91128",
"i#	c #6C3430",
"j#	c #DA897D",
"k#	c #F8B3A2",
"l#	c #F3D6BF",
"m#	c #F3D4BF",
"n#	c #AA6C62",
"o#	c #593933",
"p#	c #E02E45",
"q#	c #FF1F46",
"r#	c #F71C41",
"s#	c #8B1721",
"t#	c #B1776C",
"u#	c #F7A092",
"v#	c #C98B7F",
"w#	c #AB4B4F",
"x#	c #FE6F78",
"y#	c #FF374B",
"z#	c #FF203D",
"A#	c #ED1A39",
"B#	c #6F4F47",
"C#	c #E5CDB7",
"D#	c #807265",
"E#	c #D55C64",
"F#	c #FF5262",
"G#	c #C0112D",
"H#	c #9B6C62",
"I#	c #F9A396",
"J#	c #F9A093",
"K#	c #CA867A",
"L#	c #6F3535",
"M#	c #ED4054",
"N#	c #FF1E45",
"O#	c #F11939",
"P#	c #572524",
"Q#	c #9A655B",
"R#	c #E49185",
"S#	c #F4CEB9",
"T#	c #BD7D72",
"U#	c #A84047",
"V#	c #FE4158",
"W#	c #F11C3E",
"X#	c #7B1C22",
"Y#	c #BD8E80",
"Z#	c #F5BBA9",
"`#	c #9B7A6D",
" $	c #C3555C",
".$	c #FF6E76",
"+$	c #FF3248",
"@$	c #8C0A1E",
"#$	c #A8A391",
"$$	c #734845",
"%$	c #F76A74",
"&$	c #FF4858",
"*$	c #FF1F3F",
"=$	c #DB1535",
"-$	c #786157",
";$	c #F2BDAA",
">$	c #D19D8E",
",$	c #673A37",
"'$	c #E66069",
")$	c #FF3651",
"!$	c #FF1D44",
"~$	c #C51127",
"{$	c #98665D",
"]$	c #F8B1A1",
"^$	c #F7B1A1",
"/$	c #643231",
"($	c #F7626D",
"_$	c #FF304B",
":$	c #EA193C",
"<$	c #6D2B2B",
"[$	c #C2AD9B",
"}$	c #6D6257",
"|$	c #DD6068",
"1$	c #FF6C74",
"2$	c #FF2D46",
"3$	c #C71430",
"4$	c #363832",
"5$	c #A7484E",
"6$	c #FF6C75",
"7$	c #FF3D50",
"8$	c #FF1F3C",
"9$	c #EE1A3D",
"0$	c #6E534B",
"a$	c #C9B5A2",
"b$	c #6A4D47",
"c$	c #DB6168",
"d$	c #FF5E6B",
"e$	c #FF2142",
"f$	c #FB1B3C",
"g$	c #88181D",
"h$	c #D3877B",
"i$	c #F4CDB9",
"j$	c #F8A193",
"k$	c #8D5A51",
"l$	c #D1575F",
"m$	c #FF5D6A",
"n$	c #FF2541",
"o$	c #E4183C",
"p$	c #623935",
"q$	c #44302D",
"r$	c #F0676F",
"s$	c #FF6A73",
"t$	c #FF2845",
"u$	c #F01A36",
"v$	c #580D13",
"w$	c #DC5E65",
"x$	c #FF2F48",
"y$	c #FC1E3E",
"z$	c #86242C",
"A$	c #55463F",
"B$	c #CB5C64",
"C$	c #FF3D51",
"D$	c #E8152F",
"E$	c #673C37",
"F$	c #F0998C",
"G$	c #F6BBA9",
"H$	c #F1DEC7",
"I$	c #F3D4BE",
"J$	c #F8AC9D",
"K$	c #C97F74",
"L$	c #923E42",
"M$	c #FF4E5D",
"N$	c #FF1F3E",
"O$	c #DD1835",
"P$	c #8E2D34",
"Q$	c #FA666F",
"R$	c #FF5966",
"S$	c #FF223E",
"T$	c #BB2532",
"U$	c #F85E68",
"V$	c #FF5562",
"W$	c #FF233E",
"X$	c #AC1628",
"Y$	c #C2555B",
"Z$	c #FE6E77",
"`$	c #FF616C",
" %	c #FF2340",
".%	c #FF1A38",
"+%	c #B60F20",
"@%	c #AC6E65",
"#%	c #F7BAA9",
"$%	c #EE978B",
"%%	c #653835",
"&%	c #EC666F",
"*%	c #FE1E3E",
"=%	c #F51E3A",
"-%	c #FF2844",
";%	c #FD1F3A",
">%	c #FF263F",
",%	c #FF233D",
"'%	c #F9223D",
")%	c #FE5E69",
"!%	c #FF4256",
"~%	c #FF1D3A",
"{%	c #F71631",
"]%	c #712021",
"^%	c #DB8B80",
"/%	c #F2D8C1",
"(%	c #A0655C",
"_%	c #C6535A",
":%	c #FF717A",
"<%	c #FF6570",
"[%	c #FF2643",
"}%	c #FF2B46",
"|%	c #FF1935",
"1%	c #D91229",
"2%	c #764942",
"3%	c #F59E90",
"4%	c #F1E1CA",
"5%	c #7C3638",
"6%	c #FD7078",
"7%	c #FF6E77",
"8%	c #FF5A67",
"9%	c #FF2341",
"0%	c #FF1C37",
"a%	c #FE1532",
"b%	c #AA111E",
"c%	c #BA776C",
"d%	c #F1E1C9",
"e%	c #72453F",
"f%	c #E2626A",
"g%	c #FF7078",
"h%	c #FF6D75",
"i%	c #FF4758",
"j%	c #FE1730",
"k%	c #F2142F",
"l%	c #612624",
"m%	c #E69286",
"n%	c #F7B3A3",
"o%	c #AE6F65",
"p%	c #BA4F54",
"q%	c #FF354C",
"r%	c #FF1E3C",
"s%	c #FE1831",
"t%	c #FE152F",
"u%	c #CF1126",
"v%	c #8A574F",
"w%	c #F79F92",
"x%	c #F2D9C2",
"y%	c #F8B2A2",
"z%	c #E18E83",
"A%	c #6E3133",
"B%	c #F76D76",
"C%	c #FF6F77",
"D%	c #FF1933",
"E%	c #FD152D",
"F%	c #FD1531",
"G%	c #96121C",
"H%	c #C77F74",
"I%	c #F0EAD0",
"J%	c #F6C1AF",
"K%	c #F49D90",
"L%	c #7E4F48",
"M%	c #DE5F67",
"N%	c #FF6F76",
"O%	c #FD152E",
"P%	c #E9132D",
"Q%	c #63322D",
"R%	c #EE988B",
"S%	c #F8A99A",
"T%	c #BE7A6F",
"U%	c #A5464B",
"V%	c #FF3A4D",
"W%	c #FF1E38",
"X%	c #FF1930",
"Y%	c #FE152D",
"Z%	c #FE1530",
"`%	c #C91024",
" &	c #996259",
".&	c #F7A193",
"+&	c #F2DBC4",
"@&	c #E89487",
"#&	c #6B3735",
"$&	c #F06972",
"%&	c #FF6F78",
"&&	c #FF344A",
"*&	c #FF203A",
"=&	c #FF1C35",
"-&	c #FE182E",
";&	c #FE162D",
">&	c #FB1531",
",&	c #7D141A",
"'&	c #D78B7F",
")&	c #F3D3BD",
"!&	c #885C53",
"~&	c #D75B62",
"{&	c #FF6771",
"]&	c #FE203B",
"^&	c #FE203A",
"/&	c #FD1D36",
"(&	c #FD1930",
"_&	c #FD172D",
":&	c #E1122C",
"<&	c #6F473F",
"[&	c #F29C8F",
"}&	c #CB9A8B",
"|&	c #8E3C42",
"1&	c #ED5964",
"2&	c #DA293D",
"3&	c #C4162C",
"4&	c #B71528",
"5&	c #AE1323",
"6&	c #A61121",
"7&	c #9E101F",
"8&	c #99101E",
"9&	c #98101D",
"0&	c #950F1D",
"a&	c #960F1D",
"b&	c #970F1C",
"c&	c #990D19",
"d&	c #9E0D19",
"e&	c #A60E1B",
"f&	c #B00E1D",
"g&	c #BF0F20",
"h&	c #D11124",
"i&	c #E8122A",
"j&	c #B60D24",
"k&	c #A07B6F",
"l&	c #F4CBB6",
"m&	c #C9877B",
"n&	c #7B5F56",
"o&	c #5E292B",
"p&	c #7B3034",
"q&	c #933A3F",
"r&	c #B2494F",
"s&	c #C45257",
"t&	c #CD5359",
"u&	c #D2535A",
"v&	c #D5535B",
"w&	c #D7555C",
"x&	c #D8555C",
"y&	c #D8565D",
"z&	c #D5545B",
"A&	c #D3535A",
"B&	c #CE5359",
"C&	c #C75258",
"D&	c #B74C51",
"E&	c #993D42",
"F&	c #803236",
"G&	c #65262A",
"H&	c #6D524B",
"I&	c #B98275",
"J&	c #F19A8D",
"K&	c #F5C1AE",
"L&	c #F69F92",
"M&	c #A5685F",
"N&	c #843B3F",
"O&	c #D96067",
"P&	c #F46B73",
"Q&	c #FF6E75",
"R&	c #FF6B74",
"S&	c #F86B73",
"T&	c #E1616A",
"U&	c #9A3F43",
"V&	c #86554D",
"W&	c #F7B8A7",
"X&	c #D3857A",
"Y&	c #7B373A",
"Z&	c #F76B74",
"`&	c #FB606C",
" *	c #9E1E2B",
".*	c #B8746A",
"+*	c #F8A799",
"@*	c #F4CFBA",
"#*	c #A4675E",
"$*	c #C9535B",
"%*	c #FF5967",
"&*	c #FF5A66",
"**	c #FF5866",
"=*	c #FF5865",
"-*	c #FF5765",
";*	c #FF5764",
">*	c #FF5360",
",*	c #FF4A59",
"'*	c #FF3B4F",
")*	c #FF2847",
"!*	c #DD1732",
"~*	c #794B44",
"{*	c #F7A093",
"]*	c #8B584F",
"^*	c #D6555F",
"/*	c #FF4B5D",
"(*	c #F21B39",
"_*	c #5E322E",
":*	c #F19B8D",
"<*	c #F6C0AD",
"[*	c #84534B",
"}*	c #DB4451",
"|*	c #FF1F43",
"1*	c #FF1F42",
"2*	c #F81D38",
"3*	c #5C2D2A",
"4*	c #F0E2CA",
"5*	c #F6A395",
"6*	c #7D4D46",
"7*	c #AB2935",
"8*	c #C61329",
"9*	c #C6132D",
"0*	c #C6122E",
"a*	c #C6132E",
"b*	c #C6132A",
"c*	c #C01227",
"d*	c #542B27",
"e*	c #EE998C",
"f*	c #F6B2A1",
"g*	c #B37167",
"h*	c #935951",
"i*	c #935A52",
"j*	c #945A52",
"k*	c #945A51",
"l*	c #9F635A",
"m*	c #F1A798",
"n*	c #F3CDB8",
"o*	c #F9AB9C",
"p*	c #F2D4BF",
"q*	c #F3D2BC",
"r*	c #F1E2C9",
"s*	c #E9EACF",
"t*	c #DADFC0",
"                                                                                          . ",
"+ + + + + + + + + + + + + + + + + + + + + + + + + + + + + + + + + + + + + + + + + + + + + @ ",
"+ + + + + + + + + + + + + + + + + + + + + + + + + + + + + + + + + + + + + + + + + + + + + @ ",
"+ + + + + + + + + + + + + + + + + + + + + + + + + + + + + + + + + + + + + + + + + + + + + @ ",
"+ + + + + + + + + + + + + # $ % & % $ * + + + * = - & & - ; * + + + + + + + + + + + + + + @ ",
"+ + + + + + + + + + + * % > , ' ) ! ~ { $ * = ] ^ / ( _ : < & ; + + + + + + + + + + + + + @ ",
"+ + + + + + + + + + # [ } | 1 2 3 4 5 6 7 [ 8 ! 9 0 3 a b c : d ; + + + + + + + + + + + + @ ",
"+ + + + + + + + + e % f g h i j k l m 4 n o 6 p q r s t u v w / ] * + + + + + + + + + + + @ ",
"+ + + + + + + + + ; > x y z A B C D E F G H I J K L M N O P q 9 Q R + + + + + + + + + + + @ ",
"+ + + + + + + + + S T U V W X Y Z `  ...+.@.#.$.%.&.*.=.-.;.>.G ,.% + + + + + + + + + + + @ ",
"+ + # - [ { { '.).!.~.{.].^./.(._.:.<.[.}.|.1.2.3.4.5._.6.7.8.9.0.a.S & b.{ c.% ; + + + + @ ",
"* ).d., e.x | f.g.h.( i.j.k.l.m._.n.o.p.q.r.s.t.u.v.w._.o.x.y.z.A.B.C.~.D.x E.F.G.H.* + + @ ",
").h.e.I.J.q K.2 L.M.N.4 O.P.Q.R._.:.S.T.U.|.V.W.X.Y.Z.n.6.`. +.+++' @+4 #+$+%+I n Q % e + @ ",
"d.) &+*+=+-+;+>.>+,+c I.'+)+!+~+n.{+]+^+/+0 (+_+:+<+[+}+|+1+2+3+4+5+6+7+8+9+0+a+b+x c+= + @ ",
"f w '+d+e+f+g+h+i+>+j+k+l+m+n+o+p+q+r+s+t+g b u+v+w+}+x+y+z+A+g H B+C+D+E+F+G+H+I+J+K+[ e @ ",
"L+M+N+O+P+Q+R+S+T+U+4 n g V+W+X+Y+Z+`+ @G .@+@@@#@$@%@&@*@h w =@U -@;@>@,@'@)@!@~@{@]@^@* @ ",
"E./@(@_@:@<@n.)@[@}@|@1@n J.2@3@4@%@5@6@7@+@8@9@0@a@%@b@c@d@g e@f@g@h@i@j@_.o.k@l@m@g c+* @ ",
"n@o@p@q@i@r@_.6.s@t@8@A.4+d@u@v@w@x@y@z@{@A@@.B@C@D@x@E@F@G@H 1@&+H@I@J@K@_.o.L@M@N@O@G.* @ ",
"/ 3+P@Q@R@S@n.T@U@V@(+H w $+W@X@Y@Z@T@`@ #t+.#+#@###:.$#%#&#+@g t+*#=#-#;#>#~+,#'#)#e@{ * @ ",
"B.!#~#{#]#^#/#(#_#:#<#J.7@[#}#|#1#2#}+3#4#| 5#6#7#8#2#9#0#a#(+t+b#c#d#e#f#g#h#i#j#k#l#- + @ ",
"& m#9 m n#o#p#q#r#s#t#u#7@v#w#x#y#2#z#A#B#C#D#E#F#2#2#}+G#H#I#J#K#L#M#N#O#P#Q#R#j+S#{ # + @ ",
"# [ f @+7@T#U#V#%@W#X#Y#Z#`# $.$+$2#2#p+@$#$$$%$&$2#2#*$=$-$;$>$,$'$)$!$~${$(+]$F.{ = + + @ ",
"+ * % f ^$R#/$($_$9#:$<$[$}$|$1$2$2#2#:.3$4$5$6$7$2#2#8$9$0$a$b$c$d$e$f$g$h$3+i$] ; + + + @ ",
"+ + * b.e@j$k$l$m$n$)@o$p$q$r$s$t$2#2#2#u$v$w$s$x$2#2#2#y$z$A$B$x#C$>#D$E$F$G$H$# + + + + @ ",
"+ + + $ I$J$K$L$x#M$:.N$O$P$Q$R$S$2#2#2#_.T$U$V$W$2#2#2#2#X$Y$Z$`$ %.%+%@%t+' & + + + + + @ ",
"+ + + * G.#%$%%%&%6$R.8$*%=%-%##2#2#2#2#2#;%>%,%2#2#2#2#2#'%)%s$!%~%{%]%^%w /%= + + + + + @ ",
"+ + + + & ' M+(%_%:%<%2$N$8$2#2#2#2#2#2#2#2#2#2#2#2#2#2#2#8$[%}%8$|%1%2%3%| 4%* + + + + + @ ",
"+ + + + = g.j+U.5%6%7%8%9%8$2#2#2#2#2#2#2#2#2#2#2#2#2#2#2#8$N$:.0%a%b%c%4 i$% + + + + + + @ ",
"+ + + + * d%x G@e%f%g%h%i%z#2#2#2#2#2#2#2#2#2#2#2#2#2#2#2#8$N$~%j%k%l%m%n%C.; + + + + + + @ ",
"+ + + + + % ~.l+o%p%:%7%s$q%2#2#2#2#2#2#2#2#2#2#2#2#2#2#2#8$r%s%t%u%v%w%E.{ e + + + + + + @ ",
"+ + + + + ; x%y%z%A%B%7%C%`$r@2#2#2#2#2#2#2#2#2#2#2#2#2#2#n.D%E%F%G%H%b : I%+ + + + + + + @ ",
"+ + + + + * { J%K%L%M%g%C%N%V$S$2#2#2#2#2#2#2#2#2#2#2#2#_.D%E%O%P%Q%R%g c+# + + + + + + + @ ",
"+ + + + + + - F.S%T%U%:%C%C%1$V%2#2#2#2#2#2#2#2#2#2#2#W%X%Y%E%Z%`% &.&e.] + + + + + + + + @ ",
"+ + + + + + ; +&9 @&#&$&%&C%s$&&2#2#2#2#2#2#2#2#2#*&=&-&;&Y%E%>&,&'&+@)&$ + + + + + + + + @ ",
"+ + + + + + ; G.!#v !&~&g%{&R.Z@2#]&^&;%;%;%;%;%/&(&_&;&;&Y%O%:&<&[&^$/%S + + + + + + + + @ ",
"+ + + + + * [ o w 7@}&|&1&2&3&4&5&6&7&8&9&0&a&b&c&d&e&f&g&h&i&j&k&l+&+l&{ ; + + + + + + + @ ",
"+ + + + + H.g.g K.m&n&o&p&q&r&s&t&u&v&w&x&x&y&w&z&A&B&C&D&E&F&G&H&I&J&j+F.[ * + + + + + + @ ",
"+ + + + * ^@K&L&M&N&O&P&6$.$C%N%Q&6$6$R&R&R&R&R&6$6$h%N%C%.$h%S&T&U&V&F$W&+&; + + + + + + @ ",
"+ + + + = } j+X&Y&Z&g%Q&.$.$N%C%Q&h%6$1$R&R&R&R&6$h%Q&C%C%N%N%.$C%`& *.*+*@*- + + + + + + @ ",
"+ + + + - i$l+#*$*P+`$%*8%8%8%8%&*R$**=*-*-*-*=*=*R$R$%*R$;*>*,*'*)*!*~*{*e@] + + + + + + @ ",
"+ + + + % _ .&]*^*/*##8$8$r%r%r%r%r%n.n.n.n.n.n.n.r%r%r%r%8$n.2#2#*$(*_*:*<*d + + + + + + @ ",
"+ + + + & M.{*[*}*|*6.N$N$*$*$o.6.6.6.*$*$N$N$*$}+6.6.o.*$*$N$N$}+1*2*3*R%x 4*+ + + + + + @ ",
"+ + + + % ,.5*6*7*8*9*0*0*0*0*0*0*0*0*0*0*0*0*0*0*0*0*0*0*0*0*0*a*b*c*d*e*1@d + + + + + + @ ",
"+ + + + $ f f*g*h*i*i*i*i*i*i*i*i*i*i*i*i*i*i*i*i*i*i*i*i*i*i*i*i*j*k*l*m*i$'.+ + + + + + @ ",
"+ + + + ; d%n*g o*&+J+J+J+J+J+J+J+J+J+J+J+J+J+J+J+J+J+J+J+J+J+J+J+&+I n%6 h.S + + + + + + @ ",
"+ + + + + $ { +&p*q*q*q*q*q*q*q*q*q*q*q*q*q*q*q*q*q*q*q*q*q*q*q*q*q*I$x%r*- * + + + + + + @ ",
"+ + + + + + * ; = S $ $ $ $ $ $ $ $ $ $ $ $ $ $ $ $ $ $ $ $ $ $ $ S = ; * + + + + + + + + @ ",
"s*s*s*s*s*s*s*s*s*s*s*s*s*s*s*s*s*s*s*s*s*s*s*s*s*s*s*s*s*s*s*s*s*s*s*s*s*s*s*s*s*s*s*s*s*t*"};
