/* XPM */
static char * white_pawn_on_green_xpm[] = {
"48 48 128 2",
"  	c #82A26D",
". 	c #8FAB78",
"+ 	c #71965C",
"@ 	c #6E925A",
"# 	c #49613C",
"$ 	c #232F1D",
"% 	c #24301D",
"& 	c #4F6940",
"* 	c #70945B",
"= 	c #0A0D08",
"- 	c #060606",
"; 	c #989898",
"> 	c #ECECEC",
", 	c #EAEAEA",
"' 	c #838383",
") 	c #030303",
"! 	c #577447",
"~ 	c #6D9159",
"{ 	c #0D0D0D",
"] 	c #FBFAFB",
"^ 	c #FFFFFF",
"/ 	c #EDEDED",
"( 	c #010101",
"_ 	c #1B2416",
": 	c #B7B7B7",
"< 	c #020202",
"[ 	c #3A4D2F",
"} 	c #030403",
"| 	c #464646",
"1 	c #030402",
"2 	c #545454",
"3 	c #070905",
"4 	c #0D120B",
"5 	c #DCDCDC",
"6 	c #050505",
"7 	c #638351",
"8 	c #292929",
"9 	c #000000",
"0 	c #6E935A",
"a 	c #526D43",
"b 	c #131313",
"c 	c #F5F5F5",
"d 	c #DADADA",
"e 	c #0E0E0E",
"f 	c #5D7B4C",
"g 	c #26321F",
"h 	c #D2D2D2",
"i 	c #424242",
"j 	c #3C4F31",
"k 	c #394B2E",
"l 	c #B6B6B6",
"m 	c #506A41",
"n 	c #6A8D56",
"o 	c #B4B4B4",
"p 	c #757575",
"q 	c #6E9259",
"r 	c #293722",
"s 	c #0B0B0B",
"t 	c #435936",
"u 	c #747474",
"v 	c #3E3E3E",
"w 	c #6F935A",
"x 	c #CDCDCD",
"y 	c #858585",
"z 	c #000100",
"A 	c #898989",
"B 	c #4F4F4F",
"C 	c #070906",
"D 	c #1C2617",
"E 	c #090909",
"F 	c #384B2E",
"G 	c #678954",
"H 	c #D1D1D1",
"I 	c #9A9A9A",
"J 	c #6C8F58",
"K 	c #2A3722",
"L 	c #D4D4D4",
"M 	c #415635",
"N 	c #3B4E30",
"O 	c #485F3A",
"P 	c #0F140C",
"Q 	c #F8F8F8",
"R 	c #F2F2F2",
"S 	c #6F6F6F",
"T 	c #192215",
"U 	c #6F945B",
"V 	c #6B8E57",
"W 	c #060805",
"X 	c #121212",
"Y 	c #EBEBEB",
"Z 	c #DDDDDD",
"` 	c #0C100A",
" .	c #5F7E4D",
"..	c #949494",
"+.	c #646464",
"@.	c #020302",
"#.	c #3D3D3D",
"$.	c #212121",
"%.	c #040404",
"&.	c #FBFBFB",
"*.	c #394C2E",
"=.	c #7E7E7E",
"-.	c #546F44",
";.	c #FCFCFC",
">.	c #373737",
",.	c #050704",
"'.	c #658652",
").	c #EFEFEF",
"!.	c #2A3822",
"~.	c #445A37",
"{.	c #A5A5A5",
"].	c #686868",
"^.	c #040604",
"/.	c #F1F1F1",
"(.	c #D3D3D3",
"_.	c #61814F",
":.	c #F9F9F9",
"<.	c #688B55",
"[.	c #567346",
"}.	c #61804F",
"|.	c #3C5031",
"1.	c #587548",
"2.	c #314128",
"3.	c #F6F6F6",
"4.	c #F7F7F7",
"5.	c #536E44",
"6.	c #2E3E26",
"7.	c #48603B",
"                                                                                              . ",
"+ + + + + + + + + + + + + + + + + + + + + + + + + + + + + + + + + + + + + + + + + + + + + + +   ",
"+ + + + + + + + + + + + + + + + + + + + + + + + + + + + + + + + + + + + + + + + + + + + + + +   ",
"+ + + + + + + + + + + + + + + + + + + + + + + + + + + + + + + + + + + + + + + + + + + + + + +   ",
"+ + + + + + + + + + + + + + + + + + + + + + + + + + + + + + + + + + + + + + + + + + + + + + +   ",
"+ + + + + + + + + + + + + + + + + + + + + + + + + + + + + + + + + + + + + + + + + + + + + + +   ",
"+ + + + + + + + + + + + + + + + + + + + + + + + + + + + + + + + + + + + + + + + + + + + + + +   ",
"+ + + + + + + + + + + + + + + + + + + + + @ # $ % & * + + + + + + + + + + + + + + + + + + + +   ",
"+ + + + + + + + + + + + + + + + + + + + = - ; > , ' ) ! + + + + + + + + + + + + + + + + + + +   ",
"+ + + + + + + + + + + + + + + + + + + ~ { ] ^ ^ ^ ^ / ( + + + + + + + + + + + + + + + + + + +   ",
"+ + + + + + + + + + + + + + + + + + + _ : ^ ^ ^ ^ ^ ^ < [ + + + + + + + + + + + + + + + + + +   ",
"+ + + + + + + + + + + + + + + + + + + } ^ ^ ^ ^ ^ ^ ^ | = + + + + + + + + + + + + + + + + + +   ",
"+ + + + + + + + + + + + + + + + + + + 1 ^ ^ ^ ^ ^ ^ ^ 2 3 + + + + + + + + + + + + + + + + + +   ",
"+ + + + + + + + + + + + + + + + + + + 4 5 ^ ^ ^ ^ ^ ^ 6 $ + + + + + + + + + + + + + + + + + +   ",
"+ + + + + + + + + + + + + + + + + + + 7 8 ^ ^ ^ ^ ^ ^ 9 0 + + + + + + + + + + + + + + + + + +   ",
"+ + + + + + + + + + + + + + + + + + + a 9 b c ^ ^ d e 1 f + + + + + + + + + + + + + + + + + +   ",
"+ + + + + + + + + + + + + + + + + + g 9 h ^ ^ ^ ^ ^ ^ i 9 j + + + + + + + + + + + + + + + + +   ",
"+ + + + + + + + + + + + + + + + + k 9 d ^ ^ ^ ^ ^ ^ ^ ^ l 9 m + + + + + + + + + + + + + + + +   ",
"+ + + + + + + + + + + + + + + + n 9 o ^ ^ ^ ^ ^ ^ ^ ^ ^ ^ p 9 q + + + + + + + + + + + + + + +   ",
"+ + + + + + + + + + + + + + + + r s ^ ^ ^ ^ ^ ^ ^ ^ ^ ^ ^ ^ - t + + + + + + + + + + + + + + +   ",
"+ + + + + + + + + + + + + + + + ( u ^ ^ ^ ^ ^ ^ ^ ^ ^ ^ ^ ^ v = + + + + + + + + + + + + + + +   ",
"+ + + + + + + + + + + + + + + w 9 x ^ ^ ^ ^ ^ ^ ^ ^ ^ ^ ^ ^ y z + + + + + + + + + + + + + + +   ",
"+ + + + + + + + + + + + + + + + 9 A ^ ^ ^ ^ ^ ^ ^ ^ ^ ^ ^ ^ B C + + + + + + + + + + + + + + +   ",
"+ + + + + + + + + + + + + + + + D b ^ ^ ^ ^ ^ ^ ^ ^ ^ ^ ^ ^ E F + + + + + + + + + + + + + + +   ",
"+ + + + + + + + + + + + + + + + G 9 H ^ ^ ^ ^ ^ ^ ^ ^ ^ ^ I 9 J + + + + + + + + + + + + + + +   ",
"+ + + + + + + + + + + + + + + + + K ( > ^ ^ ^ ^ ^ ^ ^ ^ L 9 M + + + + + + + + + + + + + + + +   ",
"+ + + + + + + + + + + + + + + + + N 9 9 ^ ^ ^ ^ ^ ^ ^ H 9 9 O + + + + + + + + + + + + + + + +   ",
"+ + + + + + + + + + + + + + + ~ P ( ' Q ^ ^ ^ ^ ^ ^ ^ ^ R S 9 T U + + + + + + + + + + + + + +   ",
"+ + + + + + + + + + + + + + V W X Y ^ ^ ^ ^ ^ ^ ^ ^ ^ ^ ^ ^ Z E ` 0 + + + + + + + + + + + + +   ",
"+ + + + + + + + + + + + +  .9 ..^ ^ ^ ^ ^ ^ ^ ^ ^ ^ ^ ^ ^ ^ ^ ^ +.9 + + + + + + + + + + + + +   ",
"+ + + + + + + + + + + + + @.#.^ ^ ^ ^ ^ ^ ^ ^ ^ ^ ^ ^ ^ ^ ^ ^ ^ ^ $. .+ + + + + + + + + + + +   ",
"+ + + + + + + + + + + + * %.&.^ ^ ^ ^ ^ ^ ^ ^ ^ ^ ^ ^ ^ ^ ^ ^ ^ ^ R ( + + + + + + + + + + + +   ",
"+ + + + + + + + + + + + *.=.^ ^ ^ ^ ^ ^ ^ ^ ^ ^ ^ ^ ^ ^ ^ ^ ^ ^ ^ ^ 9 -.+ + + + + + + + + + +   ",
"+ + + + + + + + + + + + ( ;.^ ^ ^ ^ ^ ^ ^ ^ ^ ^ ^ ^ ^ ^ ^ ^ ^ ^ ^ ^ >.,.+ + + + + + + + + + +   ",
"+ + + + + + + + + + + '.9 ^ ^ ^ ^ ^ ^ ^ ^ ^ ^ ^ ^ ^ ^ ^ ^ ^ ^ ^ ^ ^ ).9 V + + + + + + + + + +   ",
"+ + + + + + + + + + + !.s ^ ^ ^ ^ ^ ^ ^ ^ ^ ^ ^ ^ ^ ^ ^ ^ ^ ^ ^ ^ ^ ^ 6 ~.+ + + + + + + + + +   ",
"+ + + + + + + + + + + 9 {.^ ^ ^ ^ ^ ^ ^ ^ ^ ^ ^ ^ ^ ^ ^ ^ ^ ^ ^ ^ ^ ^ ].^.+ + + + + + + + + +   ",
"+ + + + + + + + + + V 9 /.^ ^ ^ ^ ^ ^ ^ ^ ^ ^ ^ ^ ^ ^ ^ ^ ^ ^ ^ ^ ^ ^ (.9 * + + + + + + + + +   ",
"+ + + + + + + + + + _.( ^ ^ ^ ^ ^ ^ ^ ^ ^ ^ ^ ^ ^ ^ ^ ^ ^ ^ ^ ^ ^ ^ ^ :.9 <.+ + + + + + + + +   ",
"+ + + + + + + + + + [.- ^ ^ ^ ^ ^ ^ ^ ^ ^ ^ ^ ^ ^ ^ ^ ^ ^ ^ ^ ^ ^ ^ ^ ^ ( }.+ + + + + + + + +   ",
"+ + + + + + + + + + |.e ^ ^ ^ ^ ^ ^ ^ ^ ^ ^ ^ ^ ^ ^ ^ ^ ^ ^ ^ ^ ^ ^ ^ ^ %.1.+ + + + + + + + +   ",
"+ + + + + + + + + + 2.b 3.3.3.3.3.3.3.3.3.3.3.3.3.3.3.3.3.3.3.3.3.3.3.4.E 5.+ + + + + + + + +   ",
"+ + + + + + + + + + 6.9 9 9 9 9 9 9 9 9 9 9 9 9 9 9 9 9 9 9 9 9 9 9 9 9 9 7.+ + + + + + + + +   ",
"+ + + + + + + + + + + + + + + + + + + + + + + + + + + + + + + + + + + + + + + + + + + + + + +   ",
"+ + + + + + + + + + + + + + + + + + + + + + + + + + + + + + + + + + + + + + + + + + + + + + +   ",
"+ + + + + + + + + + + + + + + + + + + + + + + + + + + + + + + + + + + + + + + + + + + + + + +   ",
"+ + + + + + + + + + + + + + + + + + + + + + + + + + + + + + + + + + + + + + + + + + + + + + +   ",
"+ + + + + + + + + + + + + + + + + + + + + + + + + + + + + + + + + + + + + + + + + + + + + + +   "};
