/* XPM */
static char * white_pawn_on_white_xpm[] = {
"48 48 134 2",
"  	c #EFEED4",
". 	c #DEE2C4",
"+ 	c #E9E8CE",
"@ 	c #E9E8CF",
"# 	c #EDECD2",
"$ 	c #616156",
"% 	c #040403",
"& 	c #000000",
"* 	c #070706",
"= 	c #78786A",
"- 	c #151512",
"; 	c #060606",
"> 	c #989898",
", 	c #ECECEC",
"' 	c #EAEAEA",
") 	c #838383",
"! 	c #030303",
"~ 	c #B8B8A3",
"{ 	c #E7E6CD",
"] 	c #0D0D0D",
"^ 	c #FBFAFB",
"/ 	c #FFFFFF",
"( 	c #EDEDED",
"_ 	c #020202",
": 	c #393933",
"< 	c #B7B7B7",
"[ 	c #7A796C",
"} 	c #464646",
"| 	c #090908",
"1 	c #FDFDFD",
"2 	c #313131",
"3 	c #1E1D1A",
"4 	c #66665B",
"5 	c #8E8E8E",
"6 	c #A4A391",
"7 	c #010101",
"8 	c #D6D6D6",
"9 	c #BABABA",
"0 	c #0D0D0C",
"a 	c #AEAD9A",
"b 	c #131313",
"c 	c #F5F5F5",
"d 	c #DADADA",
"e 	c #0E0E0E",
"f 	c #060605",
"g 	c #C4C4AE",
"h 	c #504F47",
"i 	c #D2D2D2",
"j 	c #424242",
"k 	c #7E7E70",
"l 	c #78776A",
"m 	c #B6B6B6",
"n 	c #A9A996",
"o 	c #E0DFC7",
"p 	c #B4B4B4",
"q 	c #757575",
"r 	c #E8E7CE",
"s 	c #171714",
"t 	c #333333",
"u 	c #161616",
"v 	c #45453E",
"w 	c #EEEDD3",
"x 	c #AAAAAA",
"y 	c #6B6B6B",
"z 	c #EAE9D0",
"A 	c #D1D1D1",
"B 	c #898989",
"C 	c #4F4F4F",
"D 	c #0F0F0D",
"E 	c #3C3C35",
"F 	c #090909",
"G 	c #77776A",
"H 	c #DAD9C2",
"I 	c #9A9A9A",
"J 	c #E5E4CB",
"K 	c #58584E",
"L 	c #D4D4D4",
"M 	c #888879",
"N 	c #C4C3AE",
"O 	c #5B5B5B",
"P 	c #F1F1F1",
"Q 	c #040404",
"R 	c #D3D2BB",
"S 	c #888779",
"T 	c #434343",
"U 	c #282828",
"V 	c #ABAB98",
"W 	c #8F8F7F",
"X 	c #A2A2A2",
"Y 	c #737373",
"Z 	c #B2B19E",
"` 	c #C9C8B3",
" .	c #949494",
"..	c #646464",
"+.	c #050505",
"@.	c #3D3D3D",
"#.	c #212121",
"$.	c #C8C7B2",
"%.	c #ECEBD1",
"&.	c #FBFBFB",
"*.	c #F2F2F2",
"=.	c #EEEDD4",
"-.	c #78786B",
";.	c #7E7E7E",
">.	c #B1B09D",
",.	c #A4A4A4",
"'.	c #A6A593",
").	c #D1D0B9",
"!.	c #242420",
"~.	c #1E1E1E",
"{.	c #0C0C0C",
"].	c #56554C",
"^.	c #A5A5A5",
"/.	c #686868",
"(.	c #E2E1C9",
"_.	c #D3D3D3",
":.	c #ECEBD2",
"<.	c #CECDB7",
"[.	c #F9F9F9",
"}.	c #DDDCC4",
"|.	c #B7B6A2",
"1.	c #CDCCB5",
"2.	c #6F6F62",
"3.	c #111111",
"4.	c #070707",
"5.	c #B8B7A3",
"6.	c #656459",
"7.	c #4D4D4D",
"8.	c #4E4E4E",
"9.	c #A2A290",
"0.	c #7F7F71",
"a.	c #363530",
"b.	c #ABAA98",
"c.	c #D2D9B8",
"                                                                                              . ",
"                                                                                              . ",
"                                                                                              . ",
"                                                                                              . ",
"                                                                                              . ",
"                                                                                              . ",
"                                              + @                                             . ",
"                                        # $ % & & * =                                         . ",
"                                        - ; > , ' ) ! ~                                       . ",
"                                      { ] ^ / / / / ( _                                       . ",
"                                      : < / / / / / / _ [                                     . ",
"                                      * / / / / / / / } -                                     . ",
"                                      | 1 / / / / / / 2 3                                     . ",
"                                      4 5 / / / / / / & 6                                     . ",
"                                        7 8 / / / / 9 0                                       . ",
"                                      a & b c / / d e f g                                     . ",
"                                    h & i / / / / / / j & k                                   . ",
"                                  l & d / / / / / / / / m & n                                 . ",
"                                o & p / / / / / / / / / / q & r                               . ",
"                                s t / / / / / / / / / / / / u v                               . ",
"                              w & x / / / / / / / / / / / / y f                               . ",
"                              z & A / / / / / / / / / / / / B 7                               . ",
"                                7 B / / / / / / / / / / / / C D                               . ",
"                                E b / / / / / / / / / / / / F G                               . ",
"                                H & A / / / / / / / / / / I & J                               . ",
"                                  K 7 , / / / / / / / / L & M                                 . ",
"                                N & ! O / / / / / / / P } & Q R                               . ",
"                              S & T / / / / / / / / / / / / U & V                             . ",
"                            W & X / / / / / / / / / / / / / / Y & Z                           . ",
"                          ` &  ./ / / / / / / / / / / / / / / / ..&                           . ",
"                          +.@./ / / / / / / / / / / / / / / / / / #.$.                        . ",
"                        %.Q &./ / / / / / / / / / / / / / / / / / *._ =.                      . ",
"                        -.;./ / / / / / / / / / / / / / / / / / / / & >.                      . ",
"                      { & / / / / / / / / / / / / / / / / / / / / / ,.& #                     . ",
"                      '.! / / / / / / / / / / / / / / / / / / / / / / & ).                    . ",
"                      !.~./ / / / / / / / / / / / / / / / / / / / / / {.].                    . ",
"                      & ^./ / / / / / / / / / / / / / / / / / / / / / /.|                     . ",
"                    (.& P / / / / / / / / / / / / / / / / / / / / / / _.& :.                  . ",
"                    <.7 / / / / / / / / / / / / / / / / / / / / / / / [.& }.                  . ",
"                    |.; / / / / / / / / / / / / / / / / / / / / / / / / 7 1.                  . ",
"                    2.3./ / / / / / / / / / / / / / / / / / / / / / / / 4.5.                  . ",
"                    6.; 7.7.7.7.7.7.7.7.7.7.7.7.7.7.7.7.7.7.7.7.7.7.7.8.! 9.                  . ",
"                    0.a.a.a.a.a.a.a.a.a.a.a.a.a.a.a.a.a.a.a.a.a.a.a.a.a.a.b.                  . ",
"                                                                                              . ",
"                                                                                              . ",
"                                                                                              . ",
"                                                                                              . ",
". . . . . . . . . . . . . . . . . . . . . . . . . . . . . . . . . . . . . . . . . . . . . . . c."};
