/* XPM */
static char * yellow_king_on_green_xpm[] = {
"50 48 338 2",
"  	c #7A9C65",
". 	c #71965C",
"+ 	c #71945B",
"@ 	c #738F58",
"# 	c #71955B",
"$ 	c #748A54",
"% 	c #8B6841",
"& 	c #A27D52",
"* 	c #A27D51",
"= 	c #88623B",
"- 	c #738E57",
"; 	c #748954",
"> 	c #B89362",
", 	c #FBD292",
"' 	c #FBD08F",
") 	c #FACA82",
"! 	c #AC804A",
"~ 	c #B99463",
"{ 	c #FDD08A",
"] 	c #FBC36D",
"^ 	c #FBC26C",
"/ 	c #FBC26A",
"( 	c #AD8048",
"_ 	c #72935A",
": 	c #72925A",
"< 	c #758652",
"[ 	c #FBC169",
"} 	c #738B55",
"| 	c #7C6E43",
"1 	c #8A7045",
"2 	c #8B7146",
"3 	c #8C6F45",
"4 	c #C09A67",
"5 	c #B4864B",
"6 	c #8B6E41",
"7 	c #8B6F42",
"8 	c #886D40",
"9 	c #797346",
"0 	c #8E7449",
"a 	c #E5BD81",
"b 	c #EEC586",
"c 	c #EEC486",
"d 	c #F4CA8A",
"e 	c #FCCE87",
"f 	c #F1B965",
"g 	c #EDB563",
"h 	c #EBB463",
"i 	c #CC9B55",
"j 	c #7F6F43",
"k 	c #91764B",
"l 	c #F2C98A",
"m 	c #FCC777",
"n 	c #FBC571",
"o 	c #FBC46F",
"p 	c #F2BB65",
"q 	c #CA9B54",
"r 	c #807043",
"s 	c #F2C88A",
"t 	c #FBC471",
"u 	c #F2BA65",
"v 	c #F2C889",
"w 	c #FBC470",
"x 	c #F3BB66",
"y 	c #EAB462",
"z 	c #C99B54",
"A 	c #8D7449",
"B 	c #E3B572",
"C 	c #EBB564",
"D 	c #EBB462",
"E 	c #F0B864",
"F 	c #DFAC5E",
"G 	c #CD9E56",
"H 	c #CA9B55",
"I 	c #BF9250",
"J 	c #7A7245",
"K 	c #806D42",
"L 	c #81663D",
"M 	c #BE8E4F",
"N 	c #FCC169",
"O 	c #DEAB5D",
"P 	c #A87C46",
"Q 	c #82673E",
"R 	c #816E42",
"S 	c #787748",
"T 	c #71955C",
"U 	c #777949",
"V 	c #D3A058",
"W 	c #DEAC5D",
"X 	c #B3874B",
"Y 	c #777B4B",
"Z 	c #729259",
"` 	c #7C6C41",
" .	c #D4A159",
"..	c #EAB362",
"+.	c #E9B361",
"@.	c #D1A158",
"#.	c #B3864B",
"$.	c #7B7245",
"%.	c #729159",
"&.	c #729058",
"*.	c #75824F",
"=.	c #767748",
"-.	c #7D7143",
";.	c #897347",
">.	c #90754A",
",.	c #9B774C",
"'.	c #A67D4E",
").	c #A77C47",
"!.	c #A67B46",
"~.	c #A67A46",
"{.	c #A57B48",
"].	c #A27B4E",
"^.	c #99764C",
"/.	c #92774A",
"(.	c #887246",
"_.	c #7C6F43",
":.	c #758350",
"<.	c #738F57",
"[.	c #7E6F43",
"}.	c #937142",
"|.	c #A67D47",
"1.	c #C29558",
"2.	c #DDB379",
"3.	c #EAC286",
"4.	c #EEC689",
"5.	c #F2C98B",
"6.	c #F5C781",
"7.	c #F5BF6E",
"8.	c #F6BD68",
"9.	c #F5BC67",
"0.	c #F6BD67",
"a.	c #F6BE69",
"b.	c #F5C071",
"c.	c #F4C885",
"d.	c #F3CA8B",
"e.	c #E9C186",
"f.	c #E0B577",
"g.	c #C09357",
"h.	c #A77D47",
"i.	c #927142",
"j.	c #7D7044",
"k.	c #728F57",
"l.	c #797849",
"m.	c #947242",
"n.	c #BB8D4F",
"o.	c #E4AF5F",
"p.	c #F9BF68",
"q.	c #FCC36C",
"r.	c #FBC572",
"s.	c #FCD08C",
"t.	c #FDD493",
"u.	c #FCCB80",
"v.	c #FAC16A",
"w.	c #E1AE5E",
"x.	c #DDAB5C",
"y.	c #FCCE86",
"z.	c #FDD494",
"A.	c #FCC36B",
"B.	c #E5AF60",
"C.	c #B88A4D",
"D.	c #906F41",
"E.	c #777A4B",
"F.	c #C29351",
"G.	c #FCCF88",
"H.	c #FAC16B",
"I.	c #E7B261",
"J.	c #D7A65A",
"K.	c #D5A559",
"L.	c #F0B964",
"M.	c #FCD08A",
"N.	c #FBC36E",
"O.	c #F6BE67",
"P.	c #E3AF5F",
"Q.	c #E9B462",
"R.	c #F8BF68",
"S.	c #EFB764",
"T.	c #BD8E4F",
"U.	c #7C7245",
"V.	c #758450",
"W.	c #F9C068",
"X.	c #FBC16A",
"Y.	c #FBC570",
"Z.	c #D6A659",
"`.	c #DDAB5D",
" +	c #D6A559",
".+	c #DCAA5C",
"++	c #ECB663",
"@+	c #F7BD67",
"#+	c #B3874C",
"$+	c #758551",
"%+	c #787648",
"&+	c #D8A55B",
"*+	c #787D4C",
"=+	c #77794A",
"-+	c #D5A259",
";+	c #EBB662",
">+	c #E6B260",
",+	c #EEB763",
"'+	c #C89854",
")+	c #787E4D",
"!+	c #748853",
"~+	c #D8A75A",
"{+	c #B4874C",
"]+	c #957242",
"^+	c #DAA85B",
"/+	c #8A6C40",
"(+	c #DEAA5D",
"_+	c #F5BD67",
":+	c #EEB764",
"<+	c #7B7246",
"[+	c #748451",
"}+	c #B0844A",
"|+	c #FAC068",
"1+	c #DBA95B",
"2+	c #D6A65A",
"3+	c #DBA95C",
"4+	c #F7BE67",
"5+	c #A97F48",
"6+	c #877042",
"7+	c #E6B060",
"8+	c #E8B361",
"9+	c #E1AC5E",
"0+	c #767E4D",
"a+	c #C09050",
"b+	c #D7A75A",
"c+	c #B5894D",
"d+	c #76824F",
"e+	c #917243",
"f+	c #E3B05F",
"g+	c #856C40",
"h+	c #797748",
"i+	c #CD9C56",
"j+	c #D9A75A",
"k+	c #C09250",
"l+	c #787C4C",
"m+	c #738C56",
"n+	c #9E7744",
"o+	c #F1BA65",
"p+	c #DFAC5D",
"q+	c #927042",
"r+	c #F4BC66",
"s+	c #CA9954",
"t+	c #748652",
"u+	c #AD8149",
"v+	c #EDB763",
"w+	c #9E7643",
"x+	c #827043",
"y+	c #E3AE5F",
"z+	c #DDAA5C",
"A+	c #E7B361",
"B+	c #E9B461",
"C+	c #D9A65B",
"D+	c #7D7547",
"E+	c #75814E",
"F+	c #BA8B4D",
"G+	c #FAC069",
"H+	c #E1AD5E",
"I+	c #748753",
"J+	c #8D7142",
"K+	c #EDB663",
"L+	c #E4B060",
"M+	c #E4AE5F",
"N+	c #847043",
"O+	c #767A4A",
"P+	c #DFAB5D",
"Q+	c #CD9D56",
"R+	c #CE9D56",
"S+	c #E8B261",
"T+	c #EFB864",
"U+	c #D1A057",
"V+	c #CF9E56",
"W+	c #B2854B",
"X+	c #936B41",
"Y+	c #A67E50",
"Z+	c #A47D50",
"`+	c #A37B4F",
" @	c #A57E50",
".@	c #A37C4F",
"+@	c #8C6740",
"@@	c #777C4B",
"#@	c #7D7145",
"$@	c #BA8F54",
"%@	c #F2C57F",
"&@	c #F9CC86",
"*@	c #F6C985",
"=@	c #F1C682",
"-@	c #F1C582",
";@	c #E6BA79",
">@	c #A87F4A",
",@	c #797648",
"'@	c #827144",
")@	c #E8B262",
"!@	c #EBB563",
"~@	c #D7A75B",
"{@	c #D6A75B",
"]@	c #D6A65B",
"^@	c #C19451",
"/@	c #7B7748",
"(@	c #786F43",
"_@	c #E3AD5F",
":@	c #D9A85B",
"<@	c #B98C4E",
"[@	c #797B4A",
"}@	c #777547",
"|@	c #C19151",
"1@	c #E7B160",
"2@	c #E4B05F",
"3@	c #D4A459",
"4@	c #D0A057",
"5@	c #A37A45",
"6@	c #777E4C",
"7@	c #7C7044",
"8@	c #936B3E",
"9@	c #A37844",
"0@	c #A27744",
"a@	c #A17644",
"b@	c #90693E",
"c@	c #977443",
"d@	c #E0AB5E",
"e@	c #E2AD5E",
"f@	c #CA9A54",
"g@	c #C39451",
"h@	c #BE9050",
"i@	c #83673E",
"j@	c #738D56",
"k@	c #997141",
"l@	c #D8A45A",
"m@	c #DAA65B",
"n@	c #C99954",
"o@	c #BF9150",
"p@	c #BB8E4E",
"q@	c #86633B",
"r@	c #787B4B",
"s@	c #7A7C4B",
"t@	c #7A7B4B",
"u@	c #797B4B",
"v@	c #787C4B",
"w@	c #72945B",
"  . . . . . . . . . . . . . . . . . . . . . . . . . . . . . . . . . . . . . . . . . . . . . . . . . ",
"  . . . . . . . . . . . . . . . . . . . . + @ @ @ @ @ @ @ # . . . . . . . . . . . . . . . . . . . . ",
"  . . . . . . . . . . . . . . . . . . . . $ % & & & & * = - . . . . . . . . . . . . . . . . . . . . ",
"  . . . . . . . . . . . . . . . . . . . . ; > , ' ' ' ) ! - . . . . . . . . . . . . . . . . . . . . ",
"  . . . . . . . . . . . . . . . . . . . . ; ~ { ] ^ ^ / ( - . . . . . . . . . . . . . . . . . . . . ",
"  . . . . . . . . . . . . . . . . _ : : : < ~ { [ [ [ [ ( } : : : _ . . . . . . . . . . . . . . . . ",
"  . . . . . . . . . . . . . . . _ | 1 2 2 3 4 { [ [ [ [ 5 6 7 7 8 9 # . . . . . . . . . . . . . . . ",
"  . . . . . . . . . . . . . . . _ 0 a b c c d e [ [ [ [ f g g h i j + . . . . . . . . . . . . . . . ",
"  . . . . . . . . . . . . . . . _ k l m n n n o [ [ [ [ [ [ [ p q r + . . . . . . . . . . . . . . . ",
"  . . . . . . . . . . . . . . . _ k s t [ [ [ [ [ [ [ [ [ [ [ u q r + . . . . . . . . . . . . . . . ",
"  . . . . . . . . . . . . . . . _ k s t [ [ [ [ [ [ [ [ [ [ [ p q r + . . . . . . . . . . . . . . . ",
"  . . . . . . . . . . . . . . . _ k v w [ [ [ [ [ [ [ x f f f y z r + . . . . . . . . . . . . . . . ",
"  . . . . . . . . . . . . . . . _ A B C D D E [ [ [ [ F G H H H I j + . . . . . . . . . . . . . . . ",
"  . . . . . . . . . . . . . . . _ J K K K L M N [ [ [ O P Q R R K S # . . . . . . . . . . . . . . . ",
"  . . . . . . . . . . . . . . . . T # # . U V [ [ [ [ W X Y T # # . . . . . . . . . . . . . . . . . ",
"  . . . . . . . . . . . . . . . . . . # Z `  .....+...@.#.$.%.+ . . . . . . . . . . . . . . . . . . ",
"  . . . . . . . . . . . . T &.$ *.=.-.;.>.,.'.).!.P ~.{.].^./.(._.=.:.; &.. . . . . . . . . . . . . ",
"  . . . . . . . . . . <.:.[.}.|.1.2.3.4.5.6.7.8.9.0.0.a.b.c.d.4.e.f.g.h.i.j.:.k.. . . . . . . . . . ",
"  . . . . . . . . Z l.m.n.o.f p.q.r.s.t.u.v.u w.x.p [ [ [ ^ y.z.e t A.p.f B.C.D.E._ . . . . . . . . ",
"  . . . . . . . _ [.F.f [ [ [ [ [ [ r.G.H.I.J.K.K.L.[ [ [ [ ] M.N.O.I.P.Q.p R.S.T.U.# . . . . . . . ",
"  . . . . . . . V.C.W.[ [ [ [ [ [ [ X.Y.u Z.K.K.K.L.[ [ [ [ [ r.R.`.K.K.K. +.+++@+#+$+. . . . . . . ",
"  . . . . . . . %+&+[ [ [ [ [ [ [ [ [ [ ++K.K.K.K.L.[ [ [ [ [ [ E Z.K.K.K.K.K.J.u i *+. . . . . . . ",
"  . . . . . . . =+-+[ [ [ [ [ [ [ [ [ [ ;+K.K.K.K.L.[ [ [ [ [ [ >+K.K.K.K.K.K.K.,+'+)+. . . . . . . ",
"  . . . . . . . !+C.[ [ [ [ [ [ [ [ [ [ L.K.K.K.K.L.[ [ [ [ [ [ `.K.K.K.K.K.K.~+0.{+< . . . . . . . ",
"  . . . . . . . &.]+x [ [ [ [ [ [ [ [ [ x Z.K.K.K.L.[ [ [ [ [ R.^+K.K.K.K.K.K.P.f /+_ . . . . . . . ",
"  . . . . . . . + j (+[ [ [ [ [ [ [ [ [ _+~+K.K.K.L.[ [ [ [ [ _+~+K.K.K.K.K. +:+ .<+T . . . . . . . ",
"  . . . . . . . . [+}+|+[ [ [ [ [ [ [ [ R.1+K.K.K.L.[ [ [ [ [ u 2+K.K.K.K.K.3+4+5+!+. . . . . . . . ",
"  . . . . . . . . _ 6+7+[ [ [ [ [ [ [ [ W.x.K.K.K.L.[ [ [ [ [ :+K.K.K.K.K.K.8+9+R # . . . . . . . . ",
"  . . . . . . . . . 0+a+[ [ [ [ [ [ [ [ [ F K.K.K.L.[ [ [ [ [ >+K.K.K.K.K.b+x c+d+. . . . . . . . . ",
"  . . . . . . . . . &.e+:+[ [ [ [ [ [ [ [ >+K.K.K.L.[ [ [ [ [ O K.K.K.K.K.f+D g+_ . . . . . . . . . ",
"  . . . . . . . . . . h+i+[ [ [ [ [ [ [ [ ++K.K.K.L.[ [ [ [ R.j+K.K.K.K. +L.k+l+. . . . . . . . . . ",
"  . . . . . . . . . . m+n+0.[ [ [ [ [ [ [ o+K.K.K.L.[ [ [ [ _+~+K.K.K.K.p+f q+%.. . . . . . . . . . ",
"  . . . . . . . . . . # $.-+[ [ [ [ [ [ [ r+b+K.K.L.[ [ [ [ o+2+K.K.K.K.++s+l.. . . . . . . . . . . ",
"  . . . . . . . . . . . t+u+|+[ [ [ [ [ [ 4+^+K.K.L.[ [ [ [ v+K.K.K.K.^+r+w+m+. . . . . . . . . . . ",
"  . . . . . . . . . . . + x+y+[ [ [ [ [ [ W.z+K.K.L.[ [ [ [ A+K.K.K.K.B+C+D+# . . . . . . . . . . . ",
"  . . . . . . . . . . . . E+F+[ [ [ [ [ [ G+p+K.K.L.[ [ [ [ H+K.K.K.b+x !.I+. . . . . . . . . . . . ",
"  . . . . . . . . . . . . Z J+K+[ [ [ [ [ [ P.K.K.L.[ [ [ G+^+K.K.K.L+M+N++ . . . . . . . . . . . . ",
"  . . . . . . . . . . . . . O+a+o+o+o+o+o+u P+Q+R+S+u o+o+T+U+R+R+V+8+W+:.. . . . . . . . . . . . . ",
"  . . . . . . . . . . . . : S X+Y+Y+Y+Y+Y+Y+Z+`+`+ @Y+Y+Y+Y+.@`+`+.@ @+@@@_ . . . . . . . . . . . . ",
"  . . . . . . . . . . . # #@$@%@&@&@&@&@&@&@&@&@&@&@&@&@&@*@=@-@-@-@-@;@>@,@T . . . . . . . . . . . ",
"  . . . . . . . . . . . T '@)@/ / / / / / / / / / / / / / !@~@{@{@{@{@]@^@/@. . . . . . . . . . . . ",
"  . . . . . . . . . . . . (@_@[ [ [ [ [ [ [ [ [ [ [ [ [ _+:@K.K.K.K.K.K.<@[@. . . . . . . . . . . . ",
"  . . . . . . . . . . . . }@|@1@8+8+8+8+8+8+8+8+8+8+8+2@J.3@3@3@3@3@3@4@5@6@. . . . . . . . . . . . ",
"  . . . . . . . . . . . . @ 7@8@9@9@9@9@9@9@9@9@9@0@0@0@0@0@0@0@0@0@a@b@,@: . . . . . . . . . . . . ",
"  . . . . . . . . . . . . . - c@d@y+y+y+y+y+y+y+e@f@g@g@g@g@g@g@g@g@h@i@_ . . . . . . . . . . . . . ",
"  . . . . . . . . . . . . . j@k@l@m@m@m@m@m@m@m@m@n@o@o@o@o@o@o@o@o@p@q@_ . . . . . . . . . . . . . ",
"  . . . . . . . . . . . . . %.r@s@s@s@s@s@s@s@s@s@t@t@t@t@t@t@t@t@t@u@v@w@. . . . . . . . . . . . . ",
"  . . . . . . . . . . . . . . . . . . . . . . . . . . . . . . . . . . . . . . . . . . . . . . . . . "};
