/* XPM */
static char * yellow_king_on_white_xpm[] = {
"48 48 330 2",
"  	c #EFEED4",
". 	c #D0D7B8",
"+ 	c #EDECD2",
"@ 	c #CDC4AB",
"# 	c #CAC1A8",
"$ 	c #CBC2A9",
"% 	c #ECEAD0",
"& 	c #EBE9CF",
"* 	c #987753",
"= 	c #CBA470",
"- 	c #CAA36D",
"; 	c #967048",
"> 	c #E8E5CB",
", 	c #A5825B",
"' 	c #FDD392",
") 	c #FCCC84",
"! 	c #FBC676",
"~ 	c #A97F4D",
"{ 	c #FDD28F",
"] 	c #FBC26A",
"^ 	c #FBC169",
"/ 	c #E0DBC1",
"( 	c #CBC0A6",
"_ 	c #C8BDA2",
": 	c #A17D54",
"< 	c #A77D49",
"[ 	c #C6BA9F",
"} 	c #E1DBC1",
"| 	c #C8BEA4",
"1 	c #A78052",
"2 	c #C19A67",
"3 	c #CCA56E",
"4 	c #CF9D57",
"5 	c #C09050",
"6 	c #BF8F50",
"7 	c #A07542",
"8 	c #C4B89D",
"9 	c #C8BDA3",
"0 	c #CFA872",
"a 	c #FDD18C",
"b 	c #FCCD83",
"c 	c #FCCC83",
"d 	c #FCCB7F",
"e 	c #FBC16A",
"f 	c #F0B965",
"g 	c #B98C4C",
"h 	c #FCCA80",
"i 	c #EBB663",
"j 	c #B78A4B",
"k 	c #F9BF68",
"l 	c #F8BF68",
"m 	c #E9B462",
"n 	c #CEA66E",
"o 	c #FBC574",
"p 	c #FAC069",
"q 	c #E1AE5F",
"r 	c #D8A75A",
"s 	c #D6A65A",
"t 	c #CAC0A6",
"u 	c #95714D",
"v 	c #9E7950",
"w 	c #9E784F",
"x 	c #9D764D",
"y 	c #A97D47",
"z 	c #DEAB5D",
"A 	c #A77C46",
"B 	c #977149",
"C 	c #9A754E",
"D 	c #926F4A",
"E 	c #EDEBD1",
"F 	c #E9E6CC",
"G 	c #E9E6CD",
"H 	c #D5CDB2",
"I 	c #B3864D",
"J 	c #AC8149",
"K 	c #C9BFA4",
"L 	c #EFEED3",
"M 	c #C6BBA0",
"N 	c #C29252",
"O 	c #F4BB66",
"P 	c #F3BB66",
"Q 	c #D9A75B",
"R 	c #B3864B",
"S 	c #BEB196",
"T 	c #EEEDD3",
"U 	c #E5E2C8",
"V 	c #DDD7BD",
"W 	c #CEC4AA",
"X 	c #BFB298",
"Y 	c #B6A58A",
"Z 	c #AA9375",
"` 	c #9D7D5A",
" .	c #9D7548",
"..	c #A27845",
"+.	c #A07543",
"@.	c #A27743",
"#.	c #9E7444",
"$.	c #9A7247",
"%.	c #9B7B57",
"&.	c #AB9374",
"*.	c #B19F85",
"=.	c #BBAD93",
"-.	c #CCC3A8",
";.	c #DBD5BB",
">.	c #E3E0C5",
",.	c #EEECD2",
"'.	c #E2DEC3",
").	c #C9C0A5",
"!.	c #AB9579",
"~.	c #A17D53",
"{.	c #AC814C",
"].	c #C79D63",
"^.	c #DEB77E",
"/.	c #E7BE83",
"(.	c #EBC387",
"_.	c #F1C685",
":.	c #F2BE72",
"<.	c #F4BC68",
"[.	c #F4BC66",
"}.	c #F3BF73",
"|.	c #EEC588",
"1.	c #E7BF84",
"2.	c #E0B87E",
"3.	c #CEA469",
"4.	c #AE834C",
"5.	c #A17B4F",
"6.	c #A99275",
"7.	c #C4B89E",
"8.	c #E5E1C7",
"9.	c #B2A085",
"0.	c #A47E51",
"a.	c #C69652",
"b.	c #E8B261",
"c.	c #F3BA66",
"d.	c #FBC46E",
"e.	c #FCCB81",
"f.	c #FDD393",
"g.	c #FCCF8B",
"h.	c #FBC36E",
"i.	c #F5BD66",
"j.	c #E5B160",
"k.	c #DEAC5D",
"l.	c #F0B964",
"m.	c #FBC36F",
"n.	c #FCD08B",
"o.	c #FDD493",
"p.	c #FBC46F",
"q.	c #EAB362",
"r.	c #CD9B55",
"s.	c #A57D4D",
"t.	c #AE9B80",
"u.	c #E6E3C8",
"v.	c #A28667",
"w.	c #D2A058",
"x.	c #FCCE86",
"y.	c #FBC573",
"z.	c #EFB864",
"A.	c #D5A559",
"B.	c #EDB763",
"C.	c #FBC572",
"D.	c #F1BA65",
"E.	c #E3AF5F",
"F.	c #F5BC66",
"G.	c #F5BD67",
"H.	c #D8A45A",
"I.	c #A1825F",
"J.	c #E2DEC4",
"K.	c #C3B79D",
"L.	c #CC9A55",
"M.	c #FAC169",
"N.	c #D9A85B",
"O.	c #F2BB65",
"P.	c #D7A75A",
"Q.	c #E1AE5E",
"R.	c #F7BE67",
"S.	c #D7A45A",
"T.	c #B5A58B",
"U.	c #EFEFD5",
"V.	c #F0EFD5",
"W.	c #AD9B80",
"X.	c #E6B060",
"Y.	c #F6BE67",
"Z.	c #E4B05F",
"`.	c #E9B261",
" +	c #A99479",
".+	c #B4A48A",
"++	c #E2AC5E",
"@+	c #F9C068",
"#+	c #DDAB5C",
"$+	c #E2AE5E",
"%+	c #AA977D",
"&+	c #EFEFD4",
"*+	c #D1CAB0",
"=+	c #C49451",
"-+	c #D7A65A",
";+	c #D6A559",
">+	c #D29F57",
",+	c #BFB398",
"'+	c #EFEED5",
")+	c #E1DCC2",
"!+	c #A78152",
"~+	c #F6BD67",
"{+	c #DBA95C",
"]+	c #AD834E",
"^+	c #DED9BF",
"/+	c #EDEBD0",
"(+	c #A38B6E",
"_+	c #E7B161",
":+	c #E0AD5E",
"<+	c #EEB864",
"[+	c #A18666",
"}+	c #EAE7CD",
"|+	c #D0C7AD",
"1+	c #BB8E51",
"2+	c #FAC068",
"3+	c #E9B461",
"4+	c #D6A659",
"5+	c #C79653",
"6+	c #C9BFA5",
"7+	c #E9E6CB",
"8+	c #9F815F",
"9+	c #EDB663",
"0+	c #E8B361",
"a+	c #A07F5A",
"b+	c #CC9B56",
"c+	c #ECB663",
"d+	c #DDAB5D",
"e+	c #D29F58",
"f+	c #BAAB91",
"g+	c #E4E1C6",
"h+	c #A07D55",
"i+	c #A68053",
"j+	c #B4A388",
"k+	c #DAA65B",
"l+	c #E6B160",
"m+	c #DDA95D",
"n+	c #AE9B7F",
"o+	c #A77F4E",
"p+	c #F8BE68",
"q+	c #DAA85B",
"r+	c #F3BC66",
"s+	c #AD834F",
"t+	c #D9D3B8",
"u+	c #EDECD1",
"v+	c #A79073",
"w+	c #E1AC5E",
"x+	c #DFAC5D",
"y+	c #EAB562",
"z+	c #E5AF60",
"A+	c #A48B6D",
"B+	c #D5CDB3",
"C+	c #B78A4F",
"D+	c #C09152",
"E+	c #CFC6AC",
"F+	c #EBE8CE",
"G+	c #A18463",
"H+	c #EAB462",
"I+	c #E6B260",
"J+	c #EBB462",
"K+	c #9E815F",
"L+	c #EAE8CE",
"M+	c #C7BCA2",
"N+	c #C89753",
"O+	c #CB9A55",
"P+	c #E8E6CC",
"Q+	c #9F7C56",
"R+	c #EFB764",
"S+	c #D3A258",
"T+	c #D3A358",
"U+	c #EEB763",
"V+	c #E6E2C8",
"W+	c #A0896D",
"X+	c #A47A47",
"Y+	c #AE834D",
"Z+	c #AB814C",
"`+	c #A27849",
" @	c #AA804C",
".@	c #AC824D",
"+@	c #A57B4A",
"@@	c #A47A48",
"#@	c #9D8467",
"$@	c #E4E0C6",
"%@	c #A08464",
"&@	c #C79C60",
"*@	c #EFC483",
"=@	c #F0C584",
"-@	c #EEC383",
";@	c #ECC181",
">@	c #EBC081",
",@	c #C49961",
"'@	c #9D8060",
")@	c #A67C4B",
"!@	c #FAC16B",
"~@	c #FBC26C",
"{@	c #E9B564",
"]@	c #D9A95D",
"^@	c #D8A85C",
"/@	c #A07749",
"(@	c #E3DEC4",
"_@	c #E8E5CA",
":@	c #9C774D",
"<@	c #99744B",
"[@	c #DEA95D",
"}@	c #D4A459",
"|@	c #C79954",
"1@	c #947351",
"2@	c #E9E7CD",
"3@	c #D4CCB2",
"4@	c #987958",
"5@	c #9E7442",
"6@	c #A47945",
"7@	c #A37945",
"8@	c #A27744",
"9@	c #9F7443",
"0@	c #997A59",
"a@	c #D3CBB1",
"b@	c #C2B69B",
"c@	c #CF9E57",
"d@	c #C59652",
"e@	c #AE8249",
"f@	c #BAAC92",
"g@	c #B88A4C",
"h@	c #C49551",
"i@	c #B98B4C",
"j@	c #A67B45",
"k@	c #B8AA91",
"l@	c #DAD5BB",
"m@	c #D1D7B8",
"n@	c #CBD3B2",
"o@	c #BECAA6",
"                                                                                              . ",
"                                      + @ # # # # # $ %                                       . ",
"                                      & * = = = = - ; >                                       . ",
"                                      & , ' ) ) ) ! ~ >                                       . ",
"                                      & , { ] ^ ^ ^ ~ >                                       . ",
"                              / ( ( ( _ : { ] ^ ^ ^ < [ ( ( ( }                               . ",
"                              | 1 2 2 2 3 { ] ^ ^ ^ 4 5 5 6 7 8                               . ",
"                              9 0 a b b c d e ^ ^ ^ ^ ^ ^ f g 8                               . ",
"                              9 0 h ^ ^ ^ ^ ^ ^ ^ ^ ^ ^ ^ i j 8                               . ",
"                              9 0 h ^ ^ ^ ^ ^ ^ ^ ^ ^ ^ ^ i j 8                               . ",
"                              9 0 h ^ ^ ^ ^ ^ ^ ^ k l l l m j 8                               . ",
"                              9 n o p p p ^ ^ ^ ^ q r r r s j 8                               . ",
"                              t u v w x y ^ ^ ^ ^ z A B C C D _                               . ",
"                              E F G G H I ^ ^ ^ ^ z J K G G F E                               . ",
"                                  L % M N O O P O Q R S % T                                   . ",
"                        E U V W X Y Z `  ...+.@.+.#.$.%.&.*.=.-.;.>.%                         . ",
"                  ,.'.).!.~.{.].^./.(._.:.<.P [.P <.}._.|.1.2.3.4.5.6.7./ E                   . ",
"                8.9.0.a.b.c.e d.e.f.g.h.i.j.k.l.^ ^ ^ m.n.o.e.p.] [.q.r.s.t.'.                . ",
"              u.v.w.[.^ ^ ^ ^ ^ ] x.y.z.r A.A.B.^ ^ ^ ^ C.x.e D.E.j.B.F.G.H.I.J.              . ",
"              K.L.M.^ ^ ^ ^ ^ ^ ^ p.p N.A.A.A.B.^ ^ ^ ^ ] p.O.P.A.A.A.P.Q.R.S.T.U.            . ",
"            V.W.X.^ ^ ^ ^ ^ ^ ^ ^ ^ Y.s A.A.A.B.^ ^ ^ ^ ^ ^ j.A.A.A.A.A.A.Z.`. +L             . ",
"            V..+++^ ^ ^ ^ ^ ^ ^ ^ ^ Y.s A.A.A.B.^ ^ ^ ^ ^ @+#+A.A.A.A.A.A.$+X.%+&+            . ",
"              *+=+^ ^ ^ ^ ^ ^ ^ ^ ^ p -+A.A.A.B.^ ^ ^ ^ ^ Y.-+A.A.A.A.A.;+z.>+,+'+            . ",
"              )+!+~+^ ^ ^ ^ ^ ^ ^ ^ p {+A.A.A.B.^ ^ ^ ^ ^ O.;+A.A.A.A.A.N.[.]+^+              . ",
"              /+(+_+^ ^ ^ ^ ^ ^ ^ ^ ^ :+A.A.A.B.^ ^ ^ ^ ^ <+A.A.A.A.A.A.Z.q.[+}+              . ",
"                |+1+2+^ ^ ^ ^ ^ ^ ^ ^ Z.A.A.A.B.^ ^ ^ ^ ^ 3+A.A.A.A.A.4+D.5+6+                . ",
"                7+8+9+^ ^ ^ ^ ^ ^ ^ ^ 0+A.A.A.B.^ ^ ^ ^ ^ Z.A.A.A.A.A.#+z.a+8.                . ",
"                  7.b+^ ^ ^ ^ ^ ^ ^ ^ c+A.A.A.B.^ ^ ^ ^ @+d+A.A.A.A.A.i e+f+                  . ",
"                  g+h+O ^ ^ ^ ^ ^ ^ ^ P A.A.A.B.^ ^ ^ ^ R.s A.A.A.A.N.P i+)+                  . ",
"                    j+k+^ ^ ^ ^ ^ ^ ^ R.;+A.A.B.^ ^ ^ ^ P A.A.A.A.A.l+m+n+T                   . ",
"                    V o+p+^ ^ ^ ^ ^ ^ @+q+A.A.B.^ ^ ^ ^ <+A.A.A.A.s r+s+t+                    . ",
"                    u+v+w+^ ^ ^ ^ ^ ^ p x+A.A.B.^ ^ ^ ^ y+A.A.A.A.:+z+A+E                     . ",
"                      B+C+^ ^ ^ ^ ^ ^ M.E.A.A.B.^ ^ ^ ^ Z.A.A.A.A.D.D+E+                      . ",
"                      F+G+H+^ ^ ^ ^ ^ ^ I+A.A.B.^ ^ ^ p z A.A.A.z J+K+L+                      . ",
"                        M+N+^ ^ ^ ^ ^ ^ H+A.A.B.^ ^ ^ k r A.A.A.c+O+K.                        . ",
"                        P+Q+R+l l l l l 9+S+S+y+l l l P T+T+S+r U+h+>                         . ",
"                        V+W+X+Y+Y+Y+Y+Y+Z+`+`+ @Y+Y+Y+.@`+`+`++@@@#@$@                        . ",
"                      > %@&@*@=@=@=@=@=@=@=@=@=@=@=@=@-@;@;@;@;@>@,@'@'.                      . ",
"                      U )@!@~@~@~@~@~@~@~@~@~@~@~@~@~@{@]@]@]@]@]@^@/@(@                      . ",
"                      _@:@^ ^ ^ ^ ^ ^ ^ ^ ^ ^ ^ ^ ^ G.r A.A.A.A.A.A.<@>                       . ",
"                      }+%.[@H+y+y+y+y+y+y+y+y+y+y+l+r }@}@}@}@}@}@|@1@2@                      . ",
"                      T 3@4@5@6@6@6@6@6@6@6@7@8@8@8@8@8@8@8@8@8@9@0@a@T                       . ",
"                          b@=+X.X.X.X.X.X.X.z+c@d@d@d@d@d@d@d@d@e@X                           . ",
"                          f@g@>+>+>+>+>+>+>+>+h@i@g g g g g g g j@k@                          . ",
"                          l@$ $ $ $ $ $ $ $ $ $ $ $ $ $ $ $ $ $ $ l@                          . ",
"                                                                                              . ",
"                                                                                              m@",
"n@n@n@n@n@n@n@n@n@n@n@n@n@n@n@n@n@n@n@n@n@n@n@n@n@n@n@n@n@n@n@n@n@n@n@n@n@n@n@n@n@n@n@n@n@n@n@o@"};
