/* XPM */
static char * yellow_king_on_white_xpm[] = {
"50 48 375 2",
"  	c #E9EACE",
". 	c #EFEED4",
"+ 	c #ECEAD0",
"@ 	c #E3E0C6",
"# 	c #EEECD2",
"$ 	c #D7D0B6",
"% 	c #916C47",
"& 	c #A37E54",
"* 	c #A37D52",
"= 	c #8A6541",
"- 	c #E4E0C6",
"; 	c #D6D0B6",
"> 	c #BF9967",
", 	c #FBD292",
"' 	c #FBD08F",
") 	c #F9C981",
"! 	c #A97E4B",
"~ 	c #C09A68",
"{ 	c #FDCF89",
"] 	c #FBC36D",
"^ 	c #FBC26C",
"/ 	c #FAC16A",
"( 	c #AA7E4A",
"_ 	c #EEEDD3",
": 	c #E9E6CC",
"< 	c #E8E5CB",
"[ 	c #D1C9AF",
"} 	c #FDCF88",
"| 	c #FBC169",
"1 	c #FAC169",
"2 	c #AA7E49",
"3 	c #DED8BE",
"4 	c #EBE8CE",
"5 	c #E9E6CB",
"6 	c #A58E72",
"7 	c #A08260",
"8 	c #A18361",
"9 	c #9C7C59",
"0 	c #C59E6A",
"a 	c #B1834A",
"b 	c #9F7F5A",
"c 	c #A1825E",
"d 	c #9E7F5D",
"e 	c #B4A387",
"f 	c #EDECD2",
"g 	c #E8E5CA",
"h 	c #A48765",
"i 	c #E7BE83",
"j 	c #EEC586",
"k 	c #EEC486",
"l 	c #F5CB8A",
"m 	c #FCCE86",
"n 	c #F0B865",
"o 	c #EDB563",
"p 	c #EBB463",
"q 	c #CA9954",
"r 	c #A99376",
"s 	c #EDECD1",
"t 	c #A68966",
"u 	c #F4CA8B",
"v 	c #FBC776",
"w 	c #FBC571",
"x 	c #FBC46F",
"y 	c #F1BA65",
"z 	c #C89953",
"A 	c #F4CA8A",
"B 	c #FBC36F",
"C 	c #F2BB65",
"D 	c #F1B965",
"E 	c #E9B461",
"F 	c #C79953",
"G 	c #A38665",
"H 	c #E4B672",
"I 	c #EBB462",
"J 	c #DEAB5D",
"K 	c #CC9D56",
"L 	c #CA9B54",
"M 	c #BE904F",
"N 	c #E9E7CC",
"O 	c #AE9B81",
"P 	c #A58D72",
"Q 	c #967758",
"R 	c #C29251",
"S 	c #DDAA5C",
"T 	c #A57A45",
"U 	c #997C5E",
"V 	c #A68E72",
"W 	c #BBAD92",
"X 	c #B8A88D",
"Y 	c #D6A259",
"Z 	c #DDAB5D",
"` 	c #B0854A",
" .	c #C4B89D",
"..	c #F0EFD5",
"+.	c #EDEBD1",
"@.	c #E7E3C9",
"#.	c #A0886B",
"$.	c #D7A35A",
"%.	c #EAB362",
"&.	c #E9B361",
"*.	c #D0A057",
"=.	c #B1854A",
"-.	c #B2A185",
";.	c #E7E4C9",
">.	c #E4E0C5",
",.	c #D9D2B8",
"'.	c #CBC1A7",
").	c #B9AA90",
"!.	c #AC987D",
"~.	c #A89072",
"{.	c #A48664",
"].	c #9E7951",
"^.	c #A67D4E",
"/.	c #A77B47",
"(.	c #A67B46",
"_.	c #A87C46",
":.	c #A67A46",
"<.	c #A57B48",
"[.	c #A27B4E",
"}.	c #9F7C54",
"|.	c #A78966",
"1.	c #A68D70",
"2.	c #AA977D",
"3.	c #BAAB91",
"4.	c #CFC6AB",
"5.	c #D8D2B7",
"6.	c #E5E1C6",
"7.	c #E2DDC3",
"8.	c #CCC3A9",
"9.	c #A89478",
"0.	c #A17E56",
"a.	c #AB804B",
"b.	c #C39658",
"c.	c #DDB479",
"d.	c #EAC286",
"e.	c #EEC689",
"f.	c #F2C98B",
"g.	c #F5C680",
"h.	c #F5BF6D",
"i.	c #F6BD68",
"j.	c #F5BC67",
"k.	c #F6BD67",
"l.	c #F6BE69",
"m.	c #F5C171",
"n.	c #F4C885",
"o.	c #F3CA8B",
"p.	c #E9C186",
"q.	c #DFB476",
"r.	c #BF9155",
"s.	c #AA7F4A",
"t.	c #A27F59",
"u.	c #AB987D",
"v.	c #CFC6AC",
"w.	c #E3DFC5",
"x.	c #E7E4CA",
"y.	c #B8A98E",
"z.	c #A17D54",
"A.	c #BD8E4F",
"B.	c #E5AF60",
"C.	c #F9C068",
"D.	c #FCC36C",
"E.	c #FBC573",
"F.	c #FCD08D",
"G.	c #FDD493",
"H.	c #FCCA7F",
"I.	c #E1AE5E",
"J.	c #DDAB5C",
"K.	c #F3BB66",
"L.	c #FCCE87",
"M.	c #FDD494",
"N.	c #FCCD86",
"O.	c #FBC470",
"P.	c #FCC26B",
"Q.	c #F9BF68",
"R.	c #F1B865",
"S.	c #E4AE5F",
"T.	c #B7894C",
"U.	c #9F7D57",
"V.	c #C2B69C",
"W.	c #EAE7CD",
"X.	c #A78F72",
"Y.	c #C69552",
"Z.	c #FBC673",
"`.	c #FCCE88",
" +	c #FAC16B",
".+	c #E6B160",
"++	c #D7A65A",
"@+	c #D5A559",
"#+	c #FBC36E",
"$+	c #FCD08A",
"%+	c #F5BD67",
"&+	c #E7B261",
"*+	c #E3AF5F",
"=+	c #E9B462",
"-+	c #F8BF68",
";+	c #EEB663",
">+	c #BB8C4F",
",+	c #B19F83",
"'+	c #CCC2A8",
")+	c #BC8D4E",
"!+	c #FBC26A",
"~+	c #D6A659",
"{+	c #D6A559",
"]+	c #DCAA5C",
"^+	c #EDB763",
"/+	c #B3874F",
"(+	c #D4CCB3",
"_+	c #B4A389",
":+	c #DCA85C",
"<+	c #EBB562",
"[+	c #EEB864",
"}+	c #D8A75A",
"|+	c #F3BB65",
"1+	c #C89753",
"2+	c #C6BDA3",
"3+	c #B8A98F",
"4+	c #D9A55A",
"5+	c #EAB562",
"6+	c #E5B160",
"7+	c #EFB864",
"8+	c #C59452",
"9+	c #C9C0A7",
"0+	c #D3CCB2",
"a+	c #BC8D4D",
"b+	c #FCC169",
"c+	c #D9A85B",
"d+	c #B38750",
"e+	c #D6CFB5",
"f+	c #A37D50",
"g+	c #F4BC66",
"h+	c #F2BA65",
"i+	c #D9A85A",
"j+	c #E4B05F",
"k+	c #9D7E5E",
"l+	c #ECE9CF",
"m+	c #A58E71",
"n+	c #E2AC5E",
"o+	c #F5BC66",
"p+	c #D7A75A",
"q+	c #D19E57",
"r+	c #B3A186",
"s+	c #CDC3A9",
"t+	c #B6894D",
"u+	c #FAC069",
"v+	c #F7BE67",
"w+	c #DAA85B",
"x+	c #DBAA5C",
"y+	c #AA8150",
"z+	c #D9D3B9",
"A+	c #A38664",
"B+	c #E9B261",
"C+	c #EDB663",
"D+	c #DEAA5D",
"E+	c #A79073",
"F+	c #C1B59B",
"G+	c #C49451",
"H+	c #B4884F",
"I+	c #CFC5AB",
"J+	c #E3E0C5",
"K+	c #A38158",
"L+	c #F0B864",
"M+	c #E5B060",
"N+	c #E4B060",
"O+	c #A08667",
"P+	c #EFEDD3",
"Q+	c #B4A388",
"R+	c #D19F57",
"S+	c #F0B965",
"T+	c #BE8F50",
"U+	c #C5B99E",
"V+	c #DCD6BC",
"W+	c #A87F4D",
"X+	c #F0B964",
"Y+	c #E0AD5E",
"Z+	c #9F7D58",
"`+	c #AB977A",
" @	c #C79754",
".@	c #BEB095",
"+@	c #D0C8AE",
"@@	c #B3864C",
"#@	c #ECB663",
"$@	c #DBA95B",
"%@	c #F4BB66",
"&@	c #A0794D",
"*@	c #DFDAC0",
"=@	c #EBE9CF",
"-@	c #A68D6F",
";@	c #E6B060",
">@	c #E6B260",
",@	c #D6A45A",
"'@	c #B5A489",
")@	c #C6BBA1",
"!@	c #BD8E4E",
"~@	c #DFAC5D",
"{@	c #A57C4B",
"]@	c #D8D1B7",
"^@	c #E6E3C9",
"/@	c #A38460",
"(@	c #EFB764",
"_@	c #E1AC5E",
":@	c #EFEFD4",
"<@	c #BAAC91",
"[@	c #C39351",
"}@	c #DDAA5D",
"|@	c #CD9D56",
"1@	c #CE9E56",
"2@	c #EEB764",
"3@	c #D09F57",
"4@	c #CE9D56",
"5@	c #CF9F56",
"6@	c #B0844D",
"7@	c #946C42",
"8@	c #A67E50",
"9@	c #A47D50",
"0@	c #A37B4F",
"a@	c #A57E50",
"b@	c #A37C4F",
"c@	c #A57D50",
"d@	c #8F6944",
"e@	c #C3B69C",
"f@	c #EAE8CE",
"g@	c #A99579",
"h@	c #BE9257",
"i@	c #F3C680",
"j@	c #F9CC86",
"k@	c #F6C984",
"l@	c #F1C682",
"m@	c #F1C582",
"n@	c #E4B877",
"o@	c #A87E4C",
"p@	c #A79072",
"q@	c #FBC16A",
"r@	c #E9B563",
"s@	c #D7A75B",
"t@	c #D6A75B",
"u@	c #D6A65B",
"v@	c #BF9251",
"w@	c #BBAD93",
"x@	c #A69378",
"y@	c #B78A4D",
"z@	c #B19F84",
"A@	c #C49452",
"B@	c #E7B260",
"C@	c #E8B361",
"D@	c #D4A459",
"E@	c #CFA057",
"F@	c #A27946",
"G@	c #C7BDA2",
"H@	c #E2DEC3",
"I@	c #A99477",
"J@	c #956D40",
"K@	c #A37844",
"L@	c #A27744",
"M@	c #A17644",
"N@	c #936D44",
"O@	c #A47E50",
"P@	c #E0AB5E",
"Q@	c #E3AE5F",
"R@	c #C99954",
"S@	c #C39451",
"T@	c #BD8F4F",
"U@	c #997A5A",
"V@	c #DCD7BD",
"W@	c #A07747",
"X@	c #D8A55A",
"Y@	c #DAA65B",
"Z@	c #C89954",
"`@	c #BF9150",
" #	c #BA8D4E",
".#	c #906F4D",
"+#	c #E4E1C7",
"@#	c #BFB39A",
"##	c #C0B39A",
"$#	c #C2B79D",
"%#	c #ECEBD1",
"  . . . . . . . . . . . . . . . . . . . . . . . . . . . . . . . . . . . . . . . . . . . . . . . . . ",
"  . . . . . . . . . . . . . . . . . . . . + @ @ @ @ @ @ @ # . . . . . . . . . . . . . . . . . . . . ",
"  . . . . . . . . . . . . . . . . . . . . $ % & & & & * = - . . . . . . . . . . . . . . . . . . . . ",
"  . . . . . . . . . . . . . . . . . . . . ; > , ' ' ' ) ! - . . . . . . . . . . . . . . . . . . . . ",
"  . . . . . . . . . . . . . . . . . . . . ; ~ { ] ^ ^ / ( - . . . . . . . . . . . . . . . . . . . . ",
"  . . . . . . . . . . . . . . . _ : < < < [ ~ } | | | 1 2 3 < < < 4 . . . . . . . . . . . . . . . . ",
"  . . . . . . . . . . . . . . . 5 6 7 8 8 9 0 } | | | | a b c c d e f . . . . . . . . . . . . . . . ",
"  . . . . . . . . . . . . . . . g h i j k k l m | | | | n o o p q r s . . . . . . . . . . . . . . . ",
"  . . . . . . . . . . . . . . . g t u v w w w x | | | | | | | y z r s . . . . . . . . . . . . . . . ",
"  . . . . . . . . . . . . . . . g t A B | | | | | | | | | | | y z r s . . . . . . . . . . . . . . . ",
"  . . . . . . . . . . . . . . . g t A B | | | | | | | | | | | y z r s . . . . . . . . . . . . . . . ",
"  . . . . . . . . . . . . . . . g t A B | | | | | | | C D D D E F r s . . . . . . . . . . . . . . . ",
"  . . . . . . . . . . . . . . . g G H p I I D | | | | J K L L L M r s . . . . . . . . . . . . . . . ",
"  . . . . . . . . . . . . . . . N O P 6 6 Q R | | | | S T U V V 6 W # . . . . . . . . . . . . . . . ",
"  . . . . . . . . . . . . . . . . # # # # X Y | | | | Z `  .# # # _ . . . . . . . . . . . . . . . . ",
"  . . . . . . . . . . . . . . . . ... +.@.#.$.%.%.&.%.*.=.-.;.+ ..... . . . . . . . . . . . . . . . ",
"  . . . . . . . . . . . . # >.,.'.).!.~.{.].^./.(._.:.<.[.}.|.1.2.3.4.5.6.. . . . . . . . . . . . . ",
"  . . . . . . . . . _ 7.8.9.0.a.b.c.d.e.f.g.h.i.j.k.k.l.m.n.o.e.p.q.r.s.t.u.v.w.. . . . . . . . . . ",
"  . . . . . . . . x.y.z.A.B.D C.D.E.F.G.H./ y I.J.K.| | | ] L.M.N.O.P.Q.R.S.T.U.V.W.. . . . . . . . ",
"  . . . . . . . : X.Y.D | | | | | | Z.`. +.+++@+@+y | | | | #+$+] %+&+*+=+K.-+;+>+,++.. . . . . . . ",
"  . . . . . . . '+)+C.| | | | | | | !+O.D ~+@+@+@+y | | | | | w -+J.@+@+@+{+]+^+k./+(+. . . . . . . ",
"  . . . . . . .._+:+| | | | | | | | | | <+@+@+@+@+y | | | | | | [+{+@+@+@+@+@+}+|+1+2+. . . . . . . ",
"  . . . . . . ..3+4+| | | | | | | | | | 5+@+@+@+@+y | | | | | | 6+@+@+@+@+@+@+{+7+8+9+. . . . . . . ",
"  . . . . . . . 0+a+b+| | | | | | | | | [+@+@+@+@+y | | | | | 1 ]+@+@+@+@+@+@+c+k.d+e+. . . . . . . ",
"  . . . . . . . w.f+g+| | | | | | | | | h+~+@+@+@+y | | | | | -+i+@+@+@+@+@+@+j+7+k++ . . . . . . . ",
"  . . . . . . . l+m+n+| | | | | | | | | g+}+@+@+@+y | | | | | o+p+@+@+@+@+@+~+7+q+r+_ . . . . . . . ",
"  . . . . . . . . s+t+u+| | | | | | | | v+w+@+@+@+y | | | | | D ~+@+@+@+@+@+x+v+y+z+. . . . . . . . ",
"  . . . . . . . . < A+B+| | | | | | | | Q.]+@+@+@+y | | | | | C+@+@+@+@+@+@+=+D+E+# . . . . . . . . ",
"  . . . . . . . . . F+G+b+| | | | | | | | J @+@+@+y | | | | | 6+@+@+@+@+@+}+K.H+I+. . . . . . . . . ",
"  . . . . . . . . . J+K+L+| | | | | | | | M+@+@+@+y | | | | | Z @+@+@+@+@+N+B+O++ . . . . . . . . . ",
"  . . . . . . . . . P+Q+R+| | | | | | | | <+@+@+@+y | | | | -+}+@+@+@+@+~+S+T+U+. . . . . . . . . . ",
"  . . . . . . . . . . V+W+v+| | | | | | | X+@+@+@+y | | | | g+++@+@+@+@+Y+7+Z+x.. . . . . . . . . . ",
"  . . . . . . . . . . +.`+4+| | | | | | | K.++@+@+y | | | | S+~+@+@+@+{+^+ @.@P+. . . . . . . . . . ",
"  . . . . . . . . . . . +@@@u+| | | | | | v+c+@+@+y | | | | #@@+@+@+@+$@%@&@*@. . . . . . . . . . . ",
"  . . . . . . . . . . . =@-@;@| | | | | | Q.x+@+@+y | | | | >@@+@+@+@+5+,@'@_ . . . . . . . . . . . ",
"  . . . . . . . . . . . . )@!@| | | | | | u+J @+@+y | | | | ~@@+@+@+}+K.{@]@. . . . . . . . . . . . ",
"  . . . . . . . . . . . . ^@/@(@| | | | | | I.@+@+y | | | C.c+@+@+@+6+_@r +.. . . . . . . . . . . . ",
"  . . . . . . . . . . . . :@<@[@y y y y y h+}@|@1@&.y y y 2@3@4@4@5@&.6@[ . . . . . . . . . . . . . ",
"  . . . . . . . . . . . . < '@7@8@8@8@8@8@8@9@0@0@a@8@8@8@8@b@0@0@b@c@d@e@f@. . . . . . . . . . . . ",
"  . . . . . . . . . . . +.g@h@i@j@j@j@j@j@j@j@j@j@j@j@j@j@k@l@m@m@m@m@n@o@X _ . . . . . . . . . . . ",
"  . . . . . . . . . . . f p@p !+!+!+!+!+!+!+!+!+!+!+!+!+q@r@s@t@t@t@t@u@v@w@P+. . . . . . . . . . . ",
"  . . . . . . . . . . . _ x@;@| | | | | | | | | | | | | o+}+@+@+@+@+@+@+y@V.. . . . . . . . . . . . ",
"  . . . . . . . . . . . . z@A@B@C@C@C@C@C@C@C@C@C@C@C@j+++D@D@D@D@D@D@E@F@G@. . . . . . . . . . . . ",
"  . . . . . . . . . . . . H@I@J@K@K@K@K@K@K@K@K@K@L@L@L@L@L@L@L@L@L@M@N@3+: . . . . . . . . . . . . ",
"  . . . . . . . . . . . . . *@O@P@Q@Q@Q@Q@Q@Q@Q@_@R@S@S@S@S@S@S@S@S@T@U@=@. . . . . . . . . . . . . ",
"  . . . . . . . . . . . . . V@W@X@Y@Y@Y@Y@Y@Y@Y@Y@Z@`@`@`@`@`@`@`@`@ #.#+ . . . . . . . . . . . . . ",
"  . . . . . . . . . . . . . +#@###################@#@#@#@#@#@#@#@#@#@#$#%#. . . . . . . . . . . . . ",
"  . . . . . . . . . . . . . . . . . . . . . . . . . . . . . . . . . . . . . . . . . . . . . . . . . "};
