/* XPM */
static char * yellow_king_on_green_xpm[] = {
"48 48 311 2",
"  	c #759960",
". 	c #9EB388",
"+ 	c #71965C",
"@ 	c #9DB387",
"# 	c #71955B",
"$ 	c #758652",
"% 	c #758451",
"& 	c #758551",
"* 	c #72945A",
"= 	c #896A42",
"- 	c #C29C6A",
"; 	c #C29B67",
"> 	c #906940",
", 	c #729259",
"' 	c #98794C",
") 	c #FDD392",
"! 	c #FCCE87",
"~ 	c #FCCD86",
"{ 	c #FCCD87",
"] 	c #FBC779",
"^ 	c #A57B47",
"/ 	c #99794D",
"( 	c #FDD28F",
"_ 	c #FBC26B",
": 	c #FBC16A",
"< 	c #FBC169",
"[ 	c #A57B46",
"} 	c #738F58",
"| 	c #758450",
"1 	c #99774C",
"2 	c #FBC26A",
"3 	c #75824F",
"4 	c #728F58",
"5 	c #76804E",
"6 	c #A17B50",
"7 	c #B79160",
"8 	c #C59E69",
"9 	c #C99754",
"0 	c #B6894D",
"a 	c #B6884D",
"b 	c #9D7242",
"c 	c #767E4D",
"d 	c #757F4E",
"e 	c #CFA973",
"f 	c #FDD18D",
"g 	c #FCCC82",
"h 	c #F1BA65",
"i 	c #BA8D4D",
"j 	c #757D4C",
"k 	c #FCCA80",
"l 	c #EBB663",
"m 	c #B88B4C",
"n 	c #F9C068",
"o 	c #EAB562",
"p 	c #D0A770",
"q 	c #FCC776",
"r 	c #E3AF5F",
"s 	c #DBA95B",
"t 	c #D8A75A",
"u 	c #926D42",
"v 	c #9E7745",
"w 	c #9E7644",
"x 	c #B0824A",
"y 	c #DEAB5D",
"z 	c #AA7F48",
"A 	c #977041",
"B 	c #8D683D",
"C 	c #767F4D",
"D 	c #729058",
"E 	c #758651",
"F 	c #B0834A",
"G 	c #AA7F47",
"H 	c #C39352",
"I 	c #F8BE68",
"J 	c #F7BE68",
"K 	c #F7BE67",
"L 	c #DCA95C",
"M 	c #B4874B",
"N 	c #787B4B",
"O 	c #71955C",
"P 	c #72935A",
"Q 	c #738F57",
"R 	c #748752",
"S 	c #7C7A4A",
"T 	c #807447",
"U 	c #876C43",
"V 	c #9A7145",
"W 	c #A17644",
"X 	c #9F7442",
"Y 	c #9F7542",
"Z 	c #9B7142",
"` 	c #956D42",
" .	c #876B42",
"..	c #827447",
"+.	c #7D7849",
"@.	c #787D4C",
"#.	c #748652",
"$.	c #738E57",
"%.	c #729159",
"&.	c #7E7446",
"*.	c #8D6E41",
"=.	c #BE955F",
"-.	c #D6AF78",
";.	c #E0B87E",
">.	c #E6BE83",
",.	c #EDC384",
"'.	c #EEBC72",
").	c #F1BA67",
"!.	c #F0B865",
"~.	c #F1B965",
"{.	c #F1BA68",
"].	c #F0BE73",
"^.	c #E9C084",
"/.	c #E0B87F",
"(.	c #D8B178",
"_.	c #C59D65",
":.	c #A27A47",
"<.	c #8F6F41",
"[.	c #807346",
"}.	c #75814F",
"|.	c #7A7749",
"1.	c #927142",
"2.	c #BD8E4F",
"3.	c #E2AC5E",
"4.	c #EFB864",
"5.	c #FAC16A",
"6.	c #FBC46F",
"7.	c #FCCD84",
"8.	c #FDD493",
"9.	c #FDD08C",
"0.	c #FBC470",
"a.	c #E8B361",
"b.	c #E1AE5E",
"c.	c #FDD494",
"d.	c #FCCC84",
"e.	c #F2B965",
"f.	c #E4AE5F",
"g.	c #C49452",
"h.	c #957142",
"i.	c #7B7547",
"j.	c #826E42",
"k.	c #CB9A55",
"l.	c #F2BA65",
"m.	c #FCCF88",
"n.	c #FBC674",
"o.	c #DAA85B",
"p.	c #D5A559",
"q.	c #EDB763",
"r.	c #FBC673",
"s.	c #F3BB66",
"t.	c #E6B260",
"u.	c #F0B965",
"v.	c #F6BE67",
"w.	c #F4BB66",
"x.	c #D19E57",
"y.	c #866E41",
"z.	c #C79753",
"A.	c #FAC069",
"B.	c #FBC570",
"C.	c #DAA95B",
"D.	c #FBC571",
"E.	c #E4B05F",
"F.	c #F7BF68",
"G.	c #D3A058",
"H.	c #797748",
"I.	c #7A7145",
"J.	c #E6B060",
"K.	c #D6A65A",
"L.	c #E6B160",
"M.	c #E9B261",
"N.	c #817043",
"O.	c #787446",
"P.	c #E3AD5F",
"Q.	c #F6BD67",
"R.	c #DDAB5C",
"S.	c #E7B160",
"T.	c #7E6F43",
"U.	c #758350",
"V.	c #C79653",
"W.	c #FAC068",
"X.	c #D7A65A",
"Y.	c #D7A75A",
"Z.	c #EEB764",
"`.	c #D4A159",
" +	c #76794A",
".+	c #738D56",
"++	c #A17B46",
"@+	c #D6A559",
"#+	c #D9A85B",
"$+	c #F5BC66",
"%+	c #AB8149",
"&+	c #738B55",
"*+	c #71945B",
"=+	c #826C41",
"-+	c #E9B262",
";+	c #FAC169",
">+	c #E0AD5D",
",+	c #E2AF5F",
"'+	c #ECB563",
")+	c #876D41",
"!+	c #72925A",
"~+	c #BC8F4F",
"{+	c #EAB462",
"]+	c #D6A659",
"^+	c #CA9954",
"/+	c #8C6E41",
"(+	c #EFB764",
"_+	c #E5B060",
":+	c #DCAA5C",
"<+	c #937242",
"[+	c #739058",
"}+	c #CF9D57",
"|+	c #ECB663",
"1+	c #DDAB5D",
"2+	c #D5A259",
"3+	c #7A7648",
"4+	c #977443",
"5+	c #F2BB65",
"6+	c #D9A75B",
"7+	c #A17A46",
"8+	c #7C7346",
"9+	c #DCA85C",
"0+	c #E4B060",
"a+	c #E0AB5E",
"b+	c #7E7044",
"c+	c #748A54",
"d+	c #A67D47",
"e+	c #F8BF68",
"f+	c #EEB864",
"g+	c #AD834A",
"h+	c #748853",
"i+	c #816E42",
"j+	c #DEAC5D",
"k+	c #826D41",
"l+	c #BA8C4E",
"m+	c #F0B964",
"n+	c #C29352",
"o+	c #77824F",
"p+	c #886E41",
"q+	c #896D40",
"r+	c #CC9A55",
"s+	c #E9B462",
"t+	c #CE9D56",
"u+	c #797B4B",
"v+	c #927041",
"w+	c #D3A358",
"x+	c #EBB562",
"y+	c #F4BC66",
"z+	c #D4A459",
"A+	c #D4A358",
"B+	c #D9A75A",
"C+	c #F0B864",
"D+	c #967242",
"E+	c #7C6B41",
"F+	c #A87D48",
"G+	c #B4884E",
"H+	c #AF844C",
"I+	c #A47948",
"J+	c #AE834C",
"K+	c #B1854D",
"L+	c #A47A48",
"M+	c #A97E4A",
"N+	c #A97E49",
"O+	c #7D6A40",
"P+	c #836E42",
"Q+	c #BE945C",
"R+	c #EAC081",
"S+	c #EBC182",
"T+	c #E8BE80",
"U+	c #E7BD7F",
"V+	c #BC935E",
"W+	c #729059",
"X+	c #A27946",
"Y+	c #FAC26C",
"Z+	c #FBC36E",
"`+	c #EBB766",
" @	c #DBAB5F",
".@	c #DAA95E",
"+@	c #9D7443",
"@@	c #937041",
"#@	c #926D40",
"$@	c #896B3F",
"%@	c #E3AE5F",
"&@	c #EEB763",
"*@	c #CA9C55",
"=@	c #85663C",
"-@	c #768350",
";@	c #88693E",
">@	c #A27844",
",@	c #A77C46",
"'@	c #A67B46",
")@	c #A47945",
"!@	c #767C4C",
"~@	c #C09150",
"{@	c #DFAB5D",
"]@	c #CA9A54",
"^@	c #C19250",
"/@	c #C19251",
"(@	c #C19351",
"_@	c #AB7F47",
":@	c #777A4B",
"<@	c #787849",
"[@	c #BE8F50",
"}@	c #DAA65B",
"|@	c #DAA55B",
"1@	c #CB9B55",
"2@	c #BE9150",
"3@	c #AB7F48",
"4@	c #797749",
"5@	c #758853",
"6@	c #787E4C",
"                                                                                              . ",
"+ + + + + + + + + + + + + + + + + + + + + + + + + + + + + + + + + + + + + + + + + + + + + + + @ ",
"+ + + + + + + + + + + + + + + + + + + # $ % % % % % & # + + + + + + + + + + + + + + + + + + + @ ",
"+ + + + + + + + + + + + + + + + + + + * = - - - - ; > , + + + + + + + + + + + + + + + + + + + @ ",
"+ + + + + + + + + + + + + + + + + + + * ' ) ! ~ { ] ^ , + + + + + + + + + + + + + + + + + + + @ ",
"+ + + + + + + + + + + + + + + + + + + * / ( _ : : < [ , + + + + + + + + + + + + + + + + + + + @ ",
"+ + + + + + + + + + + + + + + } & & & | 1 ( 2 < < < [ 3 & & & 4 + + + + + + + + + + + + + + + @ ",
"+ + + + + + + + + + + + + + + 5 6 7 7 7 8 ( 2 < < < 9 0 0 a b c + + + + + + + + + + + + + + + @ ",
"+ + + + + + + + + + + + + + + d e f ~ ~ ~ g 2 < < < < < < h i j + + + + + + + + + + + + + + + @ ",
"+ + + + + + + + + + + + + + + d e k < < < < < < < < < < < l m j + + + + + + + + + + + + + + + @ ",
"+ + + + + + + + + + + + + + + d e k < < < < < < < < < < < l m j + + + + + + + + + + + + + + + @ ",
"+ + + + + + + + + + + + + + + d e k < < < < < < < n n n n o m j + + + + + + + + + + + + + + + @ ",
"+ + + + + + + + + + + + + + + d p q < < < < < < < r s s s t m j + + + + + + + + + + + + + + + @ ",
"+ + + + + + + + + + + + + + + 5 u v w w x < < < < y z A A A B C + + + + + + + + + + + + + + + @ ",
"+ + + + + + + + + + + + + + + * D D D E F < < < < y G C D D D * + + + + + + + + + + + + + + + @ ",
"+ + + + + + + + + + + + + + + + + + # 5 H I J K I L M N # + + + + + + + + + + + + + + + + + + @ ",
"+ + + + + + + + + + + + O P Q R C S T U V W X Y X Z `  ...+.@.#.$., # + + + + + + + + + + + + @ ",
"+ + + + + + + + + O %.& &.*.v =.-.;.>.,.'.).!.h ~.{.].,.^./.(._.:.<.[.}.D O + + + + + + + + + @ ",
"+ + + + + + + + , |.1.2.3.4.5.6.7.8.9.0.K a.b.h < < < 0.f c.d.0.2 e.f.g.h.i.D + + + + + + + + @ ",
"+ + + + + + + , j.k.l.< < < < < 2 m.n.~.o.p.p.q.< < < < r.m.: s.t.a.u.v.w.x.y.D + + + + + + + @ ",
"+ + + + + + + C z.A.< < < < < < < B.5.C.p.p.p.q.< < < < 2 D.s.t p.p.p.t E.F.G.H.+ + + + + + + @ ",
"+ + + + + + + I.J.< < < < < < < < < v.K.p.p.p.q.< < < < < < L.p.p.p.p.p.p.L.M.N.+ + + + + + + @ ",
"+ + + + + + + O.P.< < < < < < < < < Q.K.p.p.p.q.< < < < < n R.p.p.p.p.p.p.b.S.T.+ + + + + + + @ ",
"+ + + + + + + U.V.< < < < < < < < < W.X.p.p.p.q.< < < < < K Y.p.p.p.p.p.p.Z.`. ++ + + + + + + @ ",
"+ + + + + + + .+++K < < < < < < < < A.s p.p.p.q.< < < < < s.@+p.p.p.p.p.#+$+%+&++ + + + + + + @ ",
"+ + + + + + + *+=+-+< < < < < < < < ;+>+p.p.p.q.< < < < < 4.p.p.p.p.p.p.,+'+)+!++ + + + + + + @ ",
"+ + + + + + + + U.~+A.< < < < < < < < E.p.p.p.q.< < < < < {+p.p.p.p.p.]+h ^+c + + + + + + + + @ ",
"+ + + + + + + + , /+(+< < < < < < < < a.p.p.p.q.< < < < < _+p.p.p.p.p.:+u.<+[++ + + + + + + + @ ",
"+ + + + + + + + + N }+< < < < < < < < |+p.p.p.q.< < < < n 1+p.p.p.p.p.o 2+3++ + + + + + + + + @ ",
"+ + + + + + + + + } 4+$+< < < < < < < 5+p.p.p.q.< < < < K X.p.p.p.p.6+s.7+.++ + + + + + + + + @ ",
"+ + + + + + + + + + 8+9+< < < < < < < K @+p.p.q.< < < < s.p.p.p.p.p.0+a+b+# + + + + + + + + + @ ",
"+ + + + + + + + + + c+d+e+< < < < < < n #+p.p.q.< < < < f+p.p.p.p.]+s.g+h++ + + + + + + + + + @ ",
"+ + + + + + + + + + # i+f.< < < < < < A.j+p.p.q.< < < < o p.p.p.p.>+S.k+*++ + + + + + + + + + @ ",
"+ + + + + + + + + + + & l+< < < < < < ;+r p.p.q.< < < < E.p.p.p.p.m+n+o++ + + + + + + + + + + @ ",
"+ + + + + + + + + + + P p+'+< < < < < < t.p.p.q.< < < A.j+p.p.p.R.|+q+P + + + + + + + + + + + @ ",
"+ + + + + + + + + + + + @.r+< < < < < < s+p.p.q.< < < n t p.p.p.o t+u++ + + + + + + + + + + + @ ",
"+ + + + + + + + + + + + , v+~.n n n n n q.w+w+x+n n n y+z+A+w+B+C+D+%.+ + + + + + + + + + + + @ ",
"+ + + + + + + + + + + + , E+F+G+G+G+G+G+H+I+I+J+G+G+G+K+L+I+I+M+N+O+%.+ + + + + + + + + + + + @ ",
"+ + + + + + + + + + + !+P+Q+R+S+S+S+S+S+S+S+S+S+S+S+S+R+T+T+T+T+U+V+=+D + + + + + + + + + + + @ ",
"+ + + + + + + + + + + W+X+Y+Z+Z+Z+Z+Z+Z+Z+Z+Z+Z+Z+Z+Z+`+ @ @ @ @ @.@+@$.+ + + + + + + + + + + @ ",
"+ + + + + + + + + + + , @@< < < < < < < < < < < < < K #+p.p.p.p.p.p.#@, + + + + + + + + + + + @ ",
"+ + + + + + + + + + + P $@%@&@&@&@&@&@&@&@&@&@&@&@s+C.p.p.p.p.p.p.*@=@P + + + + + + + + + + + @ ",
"+ + + + + + + + + + + + -@;@>@,@,@,@,@,@,@,@,@'@'@'@'@'@'@'@'@'@)@;@-@+ + + + + + + + + + + + @ ",
"+ + + + + + + + + + + + + !@~@a+a+a+a+a+a+a+{@]@^@/@/@/@/@/@/@(@_@:@+ + + + + + + + + + + + + @ ",
"+ + + + + + + + + + + + + <@[@}@|@|@|@|@|@|@}@1@2@2@2@2@2@2@2@2@3@4@+ + + + + + + + + + + + + @ ",
"+ + + + + + + + + + + + + 5@6@6@6@6@6@6@6@6@6@6@6@6@6@6@6@6@6@6@@.5@+ + + + + + + + + + + + + @ ",
"+ + + + + + + + + + + + + + + + + + + + + + + + + + + + + + + + + + + + + + + + + + + + + + + @ ",
"+ + + + + + + + + + + + + + + + + + + + + + + + + + + + + + + + + + + + + + + + + + + + + + + @ "};
